M48
; DRILL file KiCad 10.0.3 date 2026-07-07T21:47:44
; FORMAT={-:-/ absolute / metric / decimal}
; #@! TF.CreationDate,2026-07-07T21:47:44+02:00
; #@! TF.GenerationSoftware,Kicad,Pcbnew,10.0.3
; #@! TF.FileFunction,Plated,1,2,PTH
FMAT,2
METRIC
; #@! TA.AperFunction,Plated,PTH,ViaDrill
T1C0.300
; #@! TA.AperFunction,Plated,PTH,ComponentDrill
T2C1.000
; #@! TA.AperFunction,Plated,PTH,ComponentDrill
T3C1.020
%
G90
G05
T1
X146.4Y-86.0
X147.9Y-78.5
X149.0Y-87.2
X149.1Y-76.6
X160.05Y-77.6
X160.15Y-81.7
X160.15Y-91.5
X160.25Y-87.8
X163.7Y-80.3
X168.0Y-81.5
X168.15Y-77.8
X170.6Y-90.9
X171.85Y-80.1
X171.95Y-78.9
X172.25Y-89.6
X172.35Y-87.7
X172.45Y-85.6
T2
X129.825Y-71.575
X129.825Y-90.575
X147.325Y-71.575
X147.325Y-89.575
X151.795Y-79.095
X151.795Y-81.635
X151.795Y-84.175
X155.45Y-79.06
X155.45Y-81.6
X155.45Y-84.14
T3
X123.0Y-79.0
X123.0Y-82.0
X123.0Y-85.0
M30
