%TF.GenerationSoftware,KiCad,Pcbnew,10.0.3*%
%TF.CreationDate,2026-05-28T18:58:34+02:00*%
%TF.ProjectId,MiniVersion,4d696e69-5665-4727-9369-6f6e2e6b6963,rev?*%
%TF.SameCoordinates,Original*%
%TF.FileFunction,Soldermask,Bot*%
%TF.FilePolarity,Negative*%
%FSLAX46Y46*%
G04 Gerber Fmt 4.6, Leading zero omitted, Abs format (unit mm)*
G04 Created by KiCad (PCBNEW 10.0.3) date 2026-05-28 18:58:34*
%MOMM*%
%LPD*%
G01*
G04 APERTURE LIST*
G04 Aperture macros list*
%AMRoundRect*
0 Rectangle with rounded corners*
0 $1 Rounding radius*
0 $2 $3 $4 $5 $6 $7 $8 $9 X,Y pos of 4 corners*
0 Add a 4 corners polygon primitive as box body*
4,1,4,$2,$3,$4,$5,$6,$7,$8,$9,$2,$3,0*
0 Add four circle primitives for the rounded corners*
1,1,$1+$1,$2,$3*
1,1,$1+$1,$4,$5*
1,1,$1+$1,$6,$7*
1,1,$1+$1,$8,$9*
0 Add four rect primitives between the rounded corners*
20,1,$1+$1,$2,$3,$4,$5,0*
20,1,$1+$1,$4,$5,$6,$7,0*
20,1,$1+$1,$6,$7,$8,$9,0*
20,1,$1+$1,$8,$9,$2,$3,0*%
G04 Aperture macros list end*
%ADD10R,1.700000X1.700000*%
%ADD11C,1.700000*%
%ADD12R,0.640000X2.000000*%
%ADD13R,2.400000X0.740000*%
%ADD14RoundRect,0.225000X-0.250000X0.225000X-0.250000X-0.225000X0.250000X-0.225000X0.250000X0.225000X0*%
%ADD15RoundRect,0.200000X-0.275000X0.200000X-0.275000X-0.200000X0.275000X-0.200000X0.275000X0.200000X0*%
%ADD16RoundRect,0.200000X-0.200000X-0.275000X0.200000X-0.275000X0.200000X0.275000X-0.200000X0.275000X0*%
%ADD17RoundRect,0.250000X-0.375000X-0.625000X0.375000X-0.625000X0.375000X0.625000X-0.375000X0.625000X0*%
%ADD18C,2.000000*%
%ADD19C,1.270000*%
%ADD20RoundRect,0.250001X-0.759999X0.499999X-0.759999X-0.499999X0.759999X-0.499999X0.759999X0.499999X0*%
%ADD21O,2.020000X1.500000*%
%ADD22RoundRect,0.225000X-0.225000X-0.250000X0.225000X-0.250000X0.225000X0.250000X-0.225000X0.250000X0*%
%ADD23RoundRect,0.250000X0.625000X-0.375000X0.625000X0.375000X-0.625000X0.375000X-0.625000X-0.375000X0*%
%ADD24RoundRect,0.250000X0.312500X0.625000X-0.312500X0.625000X-0.312500X-0.625000X0.312500X-0.625000X0*%
%ADD25RoundRect,0.200000X0.200000X0.275000X-0.200000X0.275000X-0.200000X-0.275000X0.200000X-0.275000X0*%
%ADD26R,5.600000X2.300000*%
G04 APERTURE END LIST*
D10*
%TO.C,J3*%
X155450000Y-79060000D03*
D11*
X155450000Y-81600000D03*
X155450000Y-84140000D03*
%TD*%
D10*
%TO.C,J2*%
X151795000Y-79095000D03*
D11*
X151795000Y-81635000D03*
X151795000Y-84175000D03*
%TD*%
D12*
%TO.C,U2*%
X141730000Y-74850000D03*
X144270000Y-74850000D03*
X144270000Y-81150000D03*
X141730000Y-81150000D03*
%TD*%
D13*
%TO.C,J4*%
X169950000Y-77630000D03*
X166050000Y-77630000D03*
X169950000Y-78900000D03*
X166050000Y-78900000D03*
X169950000Y-80170000D03*
X166050000Y-80170000D03*
%TD*%
D14*
%TO.C,C5*%
X147900000Y-83650000D03*
X147900000Y-85200000D03*
%TD*%
D15*
%TO.C,R2*%
X146400000Y-80650000D03*
X146400000Y-82300000D03*
%TD*%
D14*
%TO.C,C4*%
X149400000Y-71650000D03*
X149400000Y-73200000D03*
%TD*%
D16*
%TO.C,R11*%
X143250000Y-85500000D03*
X144900000Y-85500000D03*
%TD*%
D17*
%TO.C,D3*%
X141900000Y-83600000D03*
X144700000Y-83600000D03*
%TD*%
D18*
%TO.C,U3*%
X147325000Y-89575000D03*
X147325000Y-71575000D03*
X129825000Y-71575000D03*
X129825000Y-90575000D03*
%TD*%
D15*
%TO.C,R12*%
X146400000Y-83600000D03*
X146400000Y-85250000D03*
%TD*%
D19*
%TO.C,J1*%
X124960000Y-76000000D03*
X124960000Y-88000000D03*
D20*
X123000000Y-79000000D03*
D21*
X123000000Y-82000000D03*
X123000000Y-85000000D03*
%TD*%
D16*
%TO.C,R6*%
X170000000Y-89600000D03*
X171650000Y-89600000D03*
%TD*%
%TO.C,R9*%
X160900000Y-87700000D03*
X162550000Y-87700000D03*
%TD*%
D22*
%TO.C,C3*%
X160900000Y-91400000D03*
X162450000Y-91400000D03*
%TD*%
D23*
%TO.C,D2*%
X139000000Y-75000000D03*
X139000000Y-72200000D03*
%TD*%
D24*
%TO.C,R1*%
X137000000Y-75000000D03*
X134075000Y-75000000D03*
%TD*%
D25*
%TO.C,R5*%
X171800000Y-85600000D03*
X170150000Y-85600000D03*
%TD*%
D16*
%TO.C,R4*%
X160700000Y-77600000D03*
X162350000Y-77600000D03*
%TD*%
D26*
%TO.C,F1*%
X131000000Y-87000000D03*
X131000000Y-79600000D03*
%TD*%
D25*
%TO.C,R7*%
X171700000Y-87700000D03*
X170050000Y-87700000D03*
%TD*%
D24*
%TO.C,R8*%
X137000000Y-71000000D03*
X134075000Y-71000000D03*
%TD*%
D16*
%TO.C,R3*%
X160700000Y-81700000D03*
X162350000Y-81700000D03*
%TD*%
M02*
