%TF.GenerationSoftware,KiCad,Pcbnew,10.0.3*%
%TF.CreationDate,2026-05-28T18:58:34+02:00*%
%TF.ProjectId,MiniVersion,4d696e69-5665-4727-9369-6f6e2e6b6963,rev?*%
%TF.SameCoordinates,Original*%
%TF.FileFunction,Copper,L1,Top*%
%TF.FilePolarity,Positive*%
%FSLAX46Y46*%
G04 Gerber Fmt 4.6, Leading zero omitted, Abs format (unit mm)*
G04 Created by KiCad (PCBNEW 10.0.3) date 2026-05-28 18:58:34*
%MOMM*%
%LPD*%
G01*
G04 APERTURE LIST*
G04 Aperture macros list*
%AMRoundRect*
0 Rectangle with rounded corners*
0 $1 Rounding radius*
0 $2 $3 $4 $5 $6 $7 $8 $9 X,Y pos of 4 corners*
0 Add a 4 corners polygon primitive as box body*
4,1,4,$2,$3,$4,$5,$6,$7,$8,$9,$2,$3,0*
0 Add four circle primitives for the rounded corners*
1,1,$1+$1,$2,$3*
1,1,$1+$1,$4,$5*
1,1,$1+$1,$6,$7*
1,1,$1+$1,$8,$9*
0 Add four rect primitives between the rounded corners*
20,1,$1+$1,$2,$3,$4,$5,0*
20,1,$1+$1,$4,$5,$6,$7,0*
20,1,$1+$1,$6,$7,$8,$9,0*
20,1,$1+$1,$8,$9,$2,$3,0*%
G04 Aperture macros list end*
%TA.AperFunction,ComponentPad*%
%ADD10R,1.700000X1.700000*%
%TD*%
%TA.AperFunction,ComponentPad*%
%ADD11C,1.700000*%
%TD*%
%TA.AperFunction,SMDPad,CuDef*%
%ADD12R,2.500000X1.000000*%
%TD*%
%TA.AperFunction,SMDPad,CuDef*%
%ADD13R,1.000000X1.800000*%
%TD*%
%TA.AperFunction,ComponentPad*%
%ADD14C,2.000000*%
%TD*%
%TA.AperFunction,ComponentPad*%
%ADD15RoundRect,0.250001X-0.759999X0.499999X-0.759999X-0.499999X0.759999X-0.499999X0.759999X0.499999X0*%
%TD*%
%TA.AperFunction,ComponentPad*%
%ADD16O,2.020000X1.500000*%
%TD*%
%TA.AperFunction,ViaPad*%
%ADD17C,0.600000*%
%TD*%
%TA.AperFunction,Conductor*%
%ADD18C,0.254000*%
%TD*%
%TA.AperFunction,Conductor*%
%ADD19C,1.000000*%
%TD*%
%TA.AperFunction,Conductor*%
%ADD20C,0.500000*%
%TD*%
G04 APERTURE END LIST*
D10*
%TO.P,J3,1,Pin_1_1*%
%TO.N,+3V3*%
X155450000Y-79060000D03*
D11*
%TO.P,J3,2,Pin_2_2*%
%TO.N,/ESP8266/D5*%
X155450000Y-81600000D03*
%TO.P,J3,3,Pin_3_3*%
%TO.N,GND*%
X155450000Y-84140000D03*
%TD*%
D10*
%TO.P,J2,1,Pin_1_1*%
%TO.N,+3V3*%
X151795000Y-79095000D03*
D11*
%TO.P,J2,2,Pin_2_2*%
%TO.N,/Opto*%
X151795000Y-81635000D03*
%TO.P,J2,3,Pin_3_3*%
%TO.N,GND*%
X151795000Y-84175000D03*
%TD*%
D12*
%TO.P,U4,1,~{RST}_1*%
%TO.N,Net-(U4-~{RST})*%
X158695000Y-77625000D03*
%TO.P,U4,2,ADC_2*%
%TO.N,/ESP8266/ADC*%
X158695000Y-79625000D03*
%TO.P,U4,3,EN_3*%
%TO.N,/ESP8266/EN*%
X158695000Y-81625000D03*
%TO.P,U4,4,GPIO16_4*%
%TO.N,/ESP8266/D16*%
X158695000Y-83625000D03*
%TO.P,U4,5,GPIO14_5*%
%TO.N,/ESP8266/D14*%
X158695000Y-85625000D03*
%TO.P,U4,6,GPIO12_6*%
%TO.N,/ESP8266/D12*%
X158695000Y-87625000D03*
%TO.P,U4,7,GPIO13_7*%
%TO.N,/ESP8266/D13*%
X158695000Y-89625000D03*
%TO.P,U4,8,VCC_8*%
%TO.N,+3V3*%
X158695000Y-91625000D03*
D13*
%TO.P,U4,9,CS0_9*%
%TO.N,unconnected-(U4-CS0-Pad9)*%
X161295000Y-93125000D03*
%TO.P,U4,10,MISO_10*%
%TO.N,unconnected-(U4-MISO-Pad10)*%
X163295000Y-93125000D03*
%TO.P,U4,11,GPIO9_11*%
%TO.N,unconnected-(U4-GPIO9-Pad11)*%
X165295000Y-93125000D03*
%TO.P,U4,12,GPIO10_12*%
%TO.N,unconnected-(U4-GPIO10-Pad12)*%
X167295000Y-93125000D03*
%TO.P,U4,13,MOSI_13*%
%TO.N,unconnected-(U4-MOSI-Pad13)*%
X169295000Y-93125000D03*
%TO.P,U4,14,SCLK_14*%
%TO.N,unconnected-(U4-SCLK-Pad14)*%
X171295000Y-93125000D03*
D12*
%TO.P,U4,15,GND_15*%
%TO.N,GND*%
X173895000Y-91625000D03*
%TO.P,U4,16,GPIO15_16*%
%TO.N,/ESP8266/D15*%
X173895000Y-89625000D03*
%TO.P,U4,17,GPIO2_17*%
%TO.N,/ESP8266/D2*%
X173895000Y-87625000D03*
%TO.P,U4,18,GPIO0_18*%
%TO.N,/ESP8266/D0*%
X173895000Y-85625000D03*
%TO.P,U4,19,GPIO4_19*%
%TO.N,/ESP8266/D4*%
X173895000Y-83625000D03*
%TO.P,U4,20,GPIO5_20*%
%TO.N,/ESP8266/D5*%
X173895000Y-81625000D03*
%TO.P,U4,21,GPIO3/RXD_21*%
%TO.N,/ESP8266/RX*%
X173895000Y-79625000D03*
%TO.P,U4,22,GPIO1/TXD_22*%
%TO.N,/ESP8266/TX*%
X173895000Y-77625000D03*
%TD*%
D14*
%TO.P,U3,1,GND_1*%
%TO.N,GND*%
X147325000Y-89575000D03*
%TO.P,U3,2,VCC_2*%
%TO.N,+3V3*%
X147325000Y-71575000D03*
%TO.P,U3,3,N_3*%
%TO.N,Net-(J1-Pin_3)*%
X129825000Y-71575000D03*
%TO.P,U3,4,L_4*%
%TO.N,Net-(U3-L)*%
X129825000Y-90575000D03*
%TD*%
D15*
%TO.P,J1,1,Pin_1_1*%
%TO.N,Net-(J1-Pin_1)*%
X123000000Y-79000000D03*
D16*
%TO.P,J1,2,Pin_2_2*%
%TO.N,Net-(J1-Pin_2)*%
X123000000Y-82000000D03*
%TO.P,J1,3,Pin_3_3*%
%TO.N,Net-(J1-Pin_3)*%
X123000000Y-85000000D03*
%TD*%
D17*
%TO.N,GND*%
X149100000Y-76600000D03*
X149000000Y-87200000D03*
X168000000Y-81500000D03*
X163700000Y-80300000D03*
X170600000Y-90900000D03*
%TO.N,+3V3*%
X147900000Y-78500000D03*
X146400000Y-86000000D03*
%TO.N,/ESP8266/EN*%
X168150000Y-77800000D03*
%TO.N,Net-(U4-~{RST})*%
X160050000Y-77600000D03*
%TO.N,/ESP8266/EN*%
X160150000Y-81700000D03*
%TO.N,/ESP8266/D12*%
X160250000Y-87800000D03*
%TO.N,/ESP8266/D15*%
X172250000Y-89600000D03*
%TO.N,/ESP8266/D2*%
X172350000Y-87700000D03*
%TO.N,/ESP8266/D0*%
X172450000Y-85600000D03*
%TO.N,+3V3*%
X160150000Y-91500000D03*
%TO.N,/ESP8266/TX*%
X171950000Y-78900000D03*
%TO.N,/ESP8266/RX*%
X171850000Y-80100000D03*
%TD*%
%TO.N,/ESP8266/D5*%
D18*
X170575000Y-81625000D02*
X173895000Y-81625000D01*
X156648000Y-82798000D02*
X169402000Y-82798000D01*
X169402000Y-82798000D02*
X170575000Y-81625000D01*
X155450000Y-81600000D02*
X156648000Y-82798000D01*
%TO.N,+3V3*%
D19*
X151830000Y-79060000D02*
X151795000Y-79095000D01*
X155450000Y-79060000D02*
X151830000Y-79060000D01*
D18*
X147900000Y-84500000D02*
X147900000Y-78500000D01*
X146400000Y-86000000D02*
X147900000Y-84500000D01*
%TO.N,/ESP8266/EN*%
X164250000Y-81700000D02*
X160150000Y-81700000D01*
X168150000Y-77800000D02*
X164250000Y-81700000D01*
%TO.N,Net-(U4-~{RST})*%
X160050000Y-77600000D02*
X158720000Y-77600000D01*
X158720000Y-77600000D02*
X158695000Y-77625000D01*
%TO.N,/ESP8266/EN*%
X158770000Y-81700000D02*
X158695000Y-81625000D01*
X160150000Y-81700000D02*
X158770000Y-81700000D01*
%TO.N,/ESP8266/D12*%
X160250000Y-87800000D02*
X158870000Y-87800000D01*
X158870000Y-87800000D02*
X158695000Y-87625000D01*
%TO.N,/ESP8266/D15*%
X173870000Y-89600000D02*
X173895000Y-89625000D01*
X172250000Y-89600000D02*
X173870000Y-89600000D01*
%TO.N,/ESP8266/D2*%
X172350000Y-87700000D02*
X173820000Y-87700000D01*
X173820000Y-87700000D02*
X173895000Y-87625000D01*
%TO.N,/ESP8266/D0*%
X173870000Y-85600000D02*
X173895000Y-85625000D01*
X172450000Y-85600000D02*
X173870000Y-85600000D01*
%TO.N,+3V3*%
D20*
X160150000Y-91500000D02*
X158820000Y-91500000D01*
X158820000Y-91500000D02*
X158695000Y-91625000D01*
%TO.N,/ESP8266/TX*%
D18*
X173225000Y-77625000D02*
X171950000Y-78900000D01*
X173895000Y-77625000D02*
X173225000Y-77625000D01*
%TO.N,/ESP8266/RX*%
X172325000Y-79625000D02*
X171850000Y-80100000D01*
X173895000Y-79625000D02*
X172325000Y-79625000D01*
%TO.N,Net-(J1-Pin_3)*%
D19*
X129825000Y-82175000D02*
X129825000Y-71575000D01*
X123000000Y-85000000D02*
X127000000Y-85000000D01*
X127000000Y-85000000D02*
X129825000Y-82175000D01*
%TD*%
%TA.AperFunction,Conductor*%
%TO.N,GND*%
G36*
X175442539Y-68520185D02*
G01*
X175488294Y-68572989D01*
X175499500Y-68624500D01*
X175499500Y-76544446D01*
X175479815Y-76611485D01*
X175427011Y-76657240D01*
X175357853Y-76667184D01*
X175332168Y-76660628D01*
X175252485Y-76630909D01*
X175252483Y-76630908D01*
X175192883Y-76624501D01*
X175192881Y-76624500D01*
X175192873Y-76624500D01*
X175192864Y-76624500D01*
X172597129Y-76624500D01*
X172597123Y-76624501D01*
X172537516Y-76630908D01*
X172402671Y-76681202D01*
X172402664Y-76681206D01*
X172287455Y-76767452D01*
X172287452Y-76767455D01*
X172201206Y-76882664D01*
X172201202Y-76882671D01*
X172150908Y-77017517D01*
X172144501Y-77077116D01*
X172144500Y-77077135D01*
X172144500Y-77766718D01*
X172124815Y-77833757D01*
X172108181Y-77854399D01*
X171887672Y-78074907D01*
X171826349Y-78108392D01*
X171824183Y-78108843D01*
X171716508Y-78130261D01*
X171716498Y-78130264D01*
X171570827Y-78190602D01*
X171570814Y-78190609D01*
X171439711Y-78278210D01*
X171439707Y-78278213D01*
X171328213Y-78389707D01*
X171328210Y-78389711D01*
X171240609Y-78520814D01*
X171240602Y-78520827D01*
X171180264Y-78666498D01*
X171180261Y-78666510D01*
X171149500Y-78821153D01*
X171149500Y-78978846D01*
X171180261Y-79133489D01*
X171180264Y-79133501D01*
X171240602Y-79279172D01*
X171240609Y-79279185D01*
X171303485Y-79373285D01*
X171324363Y-79439963D01*
X171305878Y-79507343D01*
X171288064Y-79529857D01*
X171228213Y-79589707D01*
X171228210Y-79589711D01*
X171140609Y-79720814D01*
X171140602Y-79720827D01*
X171080264Y-79866498D01*
X171080261Y-79866510D01*
X171049500Y-80021153D01*
X171049500Y-80178846D01*
X171080261Y-80333489D01*
X171080264Y-80333501D01*
X171140602Y-80479172D01*
X171140609Y-80479185D01*
X171228210Y-80610288D01*
X171228213Y-80610292D01*
X171339707Y-80721786D01*
X171339711Y-80721789D01*
X171412459Y-80770398D01*
X171457264Y-80824010D01*
X171465971Y-80893335D01*
X171435817Y-80956362D01*
X171376374Y-80993082D01*
X171343568Y-80997500D01*
X170513192Y-80997500D01*
X170391973Y-81021612D01*
X170391965Y-81021614D01*
X170338122Y-81043917D01*
X170277771Y-81068915D01*
X170277756Y-81068923D01*
X170174996Y-81137585D01*
X170174988Y-81137591D01*
X169178400Y-82134181D01*
X169117077Y-82167666D01*
X169090719Y-82170500D01*
X164966281Y-82170500D01*
X164899242Y-82150815D01*
X164853487Y-82098011D01*
X164843543Y-82028853D01*
X164872568Y-81965297D01*
X164878600Y-81958819D01*
X165707234Y-81130185D01*
X168212328Y-78625089D01*
X168273649Y-78591606D01*
X168275648Y-78591189D01*
X168383497Y-78569737D01*
X168529179Y-78509394D01*
X168660289Y-78421789D01*
X168771789Y-78310289D01*
X168859394Y-78179179D01*
X168862007Y-78172872D01*
X168879655Y-78130264D01*
X168919737Y-78033497D01*
X168950500Y-77878842D01*
X168950500Y-77721158D01*
X168950500Y-77721155D01*
X168950499Y-77721153D01*
X168946192Y-77699500D01*
X168919737Y-77566503D01*
X168900955Y-77521158D01*
X168859397Y-77420827D01*
X168859390Y-77420814D01*
X168771789Y-77289711D01*
X168771786Y-77289707D01*
X168660292Y-77178213D01*
X168660288Y-77178210D01*
X168529185Y-77090609D01*
X168529172Y-77090602D01*
X168383501Y-77030264D01*
X168383489Y-77030261D01*
X168228845Y-76999500D01*
X168228842Y-76999500D01*
X168071158Y-76999500D01*
X168071155Y-76999500D01*
X167916510Y-77030261D01*
X167916498Y-77030264D01*
X167770827Y-77090602D01*
X167770814Y-77090609D01*
X167639711Y-77178210D01*
X167639707Y-77178213D01*
X167528213Y-77289707D01*
X167528210Y-77289711D01*
X167440609Y-77420814D01*
X167440602Y-77420827D01*
X167380264Y-77566498D01*
X167380261Y-77566508D01*
X167358843Y-77674183D01*
X167326458Y-77736094D01*
X167324907Y-77737672D01*
X164026400Y-81036181D01*
X163965077Y-81069666D01*
X163938719Y-81072500D01*
X160689357Y-81072500D01*
X160674550Y-81068658D01*
X160662043Y-81069454D01*
X160638267Y-81059245D01*
X160629073Y-81056860D01*
X160624664Y-81054407D01*
X160529179Y-80990606D01*
X160454034Y-80959480D01*
X160447795Y-80956009D01*
X160428091Y-80935991D01*
X160406223Y-80918369D01*
X160401095Y-80908565D01*
X160398781Y-80906215D01*
X160398057Y-80902759D01*
X160391897Y-80890982D01*
X160388797Y-80882671D01*
X160388793Y-80882664D01*
X160307042Y-80773460D01*
X160302546Y-80767454D01*
X160244854Y-80724265D01*
X160202984Y-80668333D01*
X160198000Y-80598641D01*
X160231485Y-80537318D01*
X160244854Y-80525734D01*
X160302546Y-80482546D01*
X160388796Y-80367331D01*
X160439091Y-80232483D01*
X160445500Y-80172873D01*
X160445499Y-79077128D01*
X160439091Y-79017517D01*
X160424666Y-78978842D01*
X160388797Y-78882671D01*
X160388793Y-78882664D01*
X160302547Y-78767456D01*
X160302548Y-78767456D01*
X160302546Y-78767454D01*
X160244854Y-78724265D01*
X160202984Y-78668333D01*
X160198000Y-78598641D01*
X160231485Y-78537318D01*
X160244854Y-78525734D01*
X160302546Y-78482546D01*
X160388796Y-78367331D01*
X160390176Y-78363630D01*
X160392545Y-78360465D01*
X160393046Y-78359548D01*
X160393177Y-78359619D01*
X160432042Y-78307695D01*
X160437441Y-78303873D01*
X160560289Y-78221789D01*
X160671789Y-78110289D01*
X160759394Y-77979179D01*
X160819737Y-77833497D01*
X160850500Y-77678842D01*
X160850500Y-77521158D01*
X160850500Y-77521155D01*
X160850499Y-77521153D01*
X160830543Y-77420827D01*
X160819737Y-77366503D01*
X160787929Y-77289711D01*
X160759397Y-77220827D01*
X160759390Y-77220814D01*
X160671789Y-77089711D01*
X160671786Y-77089707D01*
X160560292Y-76978213D01*
X160560288Y-76978210D01*
X160429185Y-76890609D01*
X160429170Y-76890601D01*
X160410684Y-76882944D01*
X160358871Y-76842695D01*
X160302546Y-76767454D01*
X160279709Y-76750358D01*
X160187335Y-76681206D01*
X160187328Y-76681202D01*
X160052482Y-76630908D01*
X160052483Y-76630908D01*
X159992883Y-76624501D01*
X159992881Y-76624500D01*
X159992873Y-76624500D01*
X159992864Y-76624500D01*
X157397129Y-76624500D01*
X157397123Y-76624501D01*
X157337516Y-76630908D01*
X157202671Y-76681202D01*
X157202664Y-76681206D01*
X157087455Y-76767452D01*
X157087452Y-76767455D01*
X157001206Y-76882664D01*
X157001202Y-76882671D01*
X156950908Y-77017517D01*
X156944501Y-77077116D01*
X156944500Y-77077135D01*
X156944500Y-77863219D01*
X156924815Y-77930258D01*
X156872011Y-77976013D01*
X156802853Y-77985957D01*
X156739297Y-77956932D01*
X156721237Y-77937535D01*
X156657546Y-77852454D01*
X156632212Y-77833489D01*
X156542335Y-77766206D01*
X156542328Y-77766202D01*
X156407482Y-77715908D01*
X156407483Y-77715908D01*
X156347883Y-77709501D01*
X156347881Y-77709500D01*
X156347873Y-77709500D01*
X156347864Y-77709500D01*
X154552129Y-77709500D01*
X154552123Y-77709501D01*
X154492516Y-77715908D01*
X154357671Y-77766202D01*
X154357664Y-77766206D01*
X154242455Y-77852452D01*
X154242452Y-77852455D01*
X154156206Y-77967664D01*
X154156204Y-77967668D01*
X154156204Y-77967669D01*
X154152039Y-77978834D01*
X154110171Y-78034766D01*
X154044707Y-78059184D01*
X154035859Y-78059500D01*
X153193401Y-78059500D01*
X153126362Y-78039815D01*
X153096610Y-78007898D01*
X153094112Y-78009769D01*
X153002547Y-77887455D01*
X153002544Y-77887452D01*
X152887335Y-77801206D01*
X152887328Y-77801202D01*
X152752482Y-77750908D01*
X152752483Y-77750908D01*
X152692883Y-77744501D01*
X152692881Y-77744500D01*
X152692873Y-77744500D01*
X152692864Y-77744500D01*
X150897129Y-77744500D01*
X150897123Y-77744501D01*
X150837516Y-77750908D01*
X150702671Y-77801202D01*
X150702664Y-77801206D01*
X150587455Y-77887452D01*
X150587452Y-77887455D01*
X150501206Y-78002664D01*
X150501202Y-78002671D01*
X150450908Y-78137517D01*
X150444501Y-78197116D01*
X150444500Y-78197135D01*
X150444500Y-79992870D01*
X150444501Y-79992876D01*
X150450908Y-80052483D01*
X150501202Y-80187328D01*
X150501206Y-80187335D01*
X150587452Y-80302544D01*
X150587455Y-80302547D01*
X150702664Y-80388793D01*
X150702671Y-80388797D01*
X150834082Y-80437810D01*
X150890016Y-80479681D01*
X150914433Y-80545145D01*
X150899582Y-80613418D01*
X150878431Y-80641673D01*
X150764889Y-80755215D01*
X150639951Y-80927179D01*
X150543444Y-81116585D01*
X150477753Y-81318760D01*
X150444500Y-81528713D01*
X150444500Y-81741286D01*
X150472210Y-81916243D01*
X150477754Y-81951243D01*
X150542599Y-82150815D01*
X150543444Y-82153414D01*
X150639951Y-82342820D01*
X150764890Y-82514786D01*
X150915213Y-82665109D01*
X151087179Y-82790048D01*
X151087181Y-82790049D01*
X151087184Y-82790051D01*
X151096493Y-82794794D01*
X151147290Y-82842766D01*
X151164087Y-82910587D01*
X151141552Y-82976722D01*
X151096505Y-83015760D01*
X151087446Y-83020376D01*
X151087440Y-83020380D01*
X151033282Y-83059727D01*
X151033282Y-83059728D01*
X151665591Y-83692037D01*
X151602007Y-83709075D01*
X151487993Y-83774901D01*
X151394901Y-83867993D01*
X151329075Y-83982007D01*
X151312037Y-84045591D01*
X150679728Y-83413282D01*
X150679727Y-83413282D01*
X150640380Y-83467439D01*
X150543904Y-83656782D01*
X150478242Y-83858869D01*
X150478242Y-83858872D01*
X150445000Y-84068753D01*
X150445000Y-84281246D01*
X150478242Y-84491127D01*
X150478242Y-84491130D01*
X150543904Y-84693217D01*
X150640375Y-84882550D01*
X150679728Y-84936716D01*
X151312037Y-84304408D01*
X151329075Y-84367993D01*
X151394901Y-84482007D01*
X151487993Y-84575099D01*
X151602007Y-84640925D01*
X151665590Y-84657962D01*
X151033282Y-85290269D01*
X151033282Y-85290270D01*
X151087449Y-85329624D01*
X151276782Y-85426095D01*
X151478870Y-85491757D01*
X151688754Y-85525000D01*
X151901246Y-85525000D01*
X152111127Y-85491757D01*
X152111130Y-85491757D01*
X152313217Y-85426095D01*
X152502554Y-85329622D01*
X152556716Y-85290270D01*
X152556717Y-85290270D01*
X151924408Y-84657962D01*
X151987993Y-84640925D01*
X152102007Y-84575099D01*
X152195099Y-84482007D01*
X152260925Y-84367993D01*
X152277962Y-84304409D01*
X152910270Y-84936717D01*
X152910270Y-84936716D01*
X152949622Y-84882554D01*
X153046095Y-84693217D01*
X153111757Y-84491130D01*
X153111757Y-84491127D01*
X153145000Y-84281246D01*
X153145000Y-84068754D01*
X153141757Y-84048279D01*
X153111757Y-83858872D01*
X153111757Y-83858869D01*
X153046095Y-83656782D01*
X152949624Y-83467449D01*
X152910270Y-83413282D01*
X152910269Y-83413282D01*
X152277962Y-84045590D01*
X152260925Y-83982007D01*
X152195099Y-83867993D01*
X152102007Y-83774901D01*
X151987993Y-83709075D01*
X151924409Y-83692037D01*
X152556716Y-83059728D01*
X152502547Y-83020373D01*
X152502547Y-83020372D01*
X152493500Y-83015763D01*
X152442706Y-82967788D01*
X152425912Y-82899966D01*
X152448451Y-82833832D01*
X152493508Y-82794793D01*
X152502816Y-82790051D01*
X152609305Y-82712683D01*
X152674786Y-82665109D01*
X152674788Y-82665106D01*
X152674792Y-82665104D01*
X152825104Y-82514792D01*
X152825106Y-82514788D01*
X152825109Y-82514786D01*
X152950048Y-82342820D01*
X152950047Y-82342820D01*
X152950051Y-82342816D01*
X153046557Y-82153412D01*
X153112246Y-81951243D01*
X153145500Y-81741287D01*
X153145500Y-81528713D01*
X153112246Y-81318757D01*
X153046557Y-81116588D01*
X152950051Y-80927184D01*
X152950049Y-80927181D01*
X152950048Y-80927179D01*
X152825109Y-80755213D01*
X152711569Y-80641673D01*
X152678084Y-80580350D01*
X152683068Y-80510658D01*
X152724940Y-80454725D01*
X152755915Y-80437810D01*
X152887331Y-80388796D01*
X153002546Y-80302546D01*
X153088796Y-80187331D01*
X153094185Y-80172883D01*
X153106014Y-80141168D01*
X153147884Y-80085234D01*
X153213348Y-80060816D01*
X153222196Y-80060500D01*
X154035859Y-80060500D01*
X154102898Y-80080185D01*
X154148653Y-80132989D01*
X154152030Y-80141140D01*
X154156204Y-80152331D01*
X154156205Y-80152332D01*
X154156206Y-80152335D01*
X154242452Y-80267544D01*
X154242455Y-80267547D01*
X154357664Y-80353793D01*
X154357671Y-80353797D01*
X154489082Y-80402810D01*
X154545016Y-80444681D01*
X154569433Y-80510145D01*
X154554582Y-80578418D01*
X154533431Y-80606673D01*
X154419889Y-80720215D01*
X154294951Y-80892179D01*
X154198444Y-81081585D01*
X154132753Y-81283760D01*
X154127210Y-81318760D01*
X154099500Y-81493713D01*
X154099500Y-81706287D01*
X154132754Y-81916243D01*
X154191814Y-82098011D01*
X154198444Y-82118414D01*
X154294951Y-82307820D01*
X154419890Y-82479786D01*
X154570213Y-82630109D01*
X154742179Y-82755048D01*
X154742181Y-82755049D01*
X154742184Y-82755051D01*
X154751493Y-82759794D01*
X154802290Y-82807766D01*
X154819087Y-82875587D01*
X154796552Y-82941722D01*
X154751505Y-82980760D01*
X154742446Y-82985376D01*
X154742440Y-82985380D01*
X154688282Y-83024727D01*
X154688282Y-83024728D01*
X155320591Y-83657037D01*
X155257007Y-83674075D01*
X155142993Y-83739901D01*
X155049901Y-83832993D01*
X154984075Y-83947007D01*
X154967037Y-84010591D01*
X154334728Y-83378282D01*
X154334727Y-83378282D01*
X154295380Y-83432439D01*
X154198904Y-83621782D01*
X154133242Y-83823869D01*
X154133242Y-83823872D01*
X154100000Y-84033753D01*
X154100000Y-84246246D01*
X154133242Y-84456127D01*
X154133242Y-84456130D01*
X154198904Y-84658217D01*
X154295375Y-84847550D01*
X154334728Y-84901716D01*
X154967037Y-84269408D01*
X154984075Y-84332993D01*
X155049901Y-84447007D01*
X155142993Y-84540099D01*
X155257007Y-84605925D01*
X155320590Y-84622962D01*
X154688282Y-85255269D01*
X154688282Y-85255270D01*
X154742449Y-85294624D01*
X154931782Y-85391095D01*
X155133870Y-85456757D01*
X155343754Y-85490000D01*
X155556246Y-85490000D01*
X155766127Y-85456757D01*
X155766130Y-85456757D01*
X155968217Y-85391095D01*
X156157554Y-85294622D01*
X156211716Y-85255270D01*
X156211717Y-85255270D01*
X155579408Y-84622962D01*
X155642993Y-84605925D01*
X155757007Y-84540099D01*
X155850099Y-84447007D01*
X155915925Y-84332993D01*
X155932962Y-84269408D01*
X156565270Y-84901717D01*
X156565270Y-84901716D01*
X156604622Y-84847554D01*
X156701095Y-84658217D01*
X156766755Y-84456134D01*
X156773450Y-84413867D01*
X156803379Y-84350732D01*
X156862690Y-84313800D01*
X156932553Y-84314797D01*
X156990786Y-84353407D01*
X156995599Y-84360446D01*
X156995888Y-84360231D01*
X157087452Y-84482544D01*
X157087453Y-84482544D01*
X157087454Y-84482546D01*
X157090500Y-84484826D01*
X157145145Y-84525734D01*
X157187015Y-84581668D01*
X157191999Y-84651360D01*
X157158513Y-84712683D01*
X157145145Y-84724266D01*
X157087452Y-84767455D01*
X157001206Y-84882664D01*
X157001202Y-84882671D01*
X156950908Y-85017517D01*
X156944501Y-85077116D01*
X156944501Y-85077123D01*
X156944500Y-85077135D01*
X156944500Y-86172870D01*
X156944501Y-86172876D01*
X156950908Y-86232483D01*
X157001202Y-86367328D01*
X157001206Y-86367335D01*
X157087452Y-86482544D01*
X157087453Y-86482544D01*
X157087454Y-86482546D01*
X157090500Y-86484826D01*
X157145145Y-86525734D01*
X157187015Y-86581668D01*
X157191999Y-86651360D01*
X157158513Y-86712683D01*
X157145145Y-86724266D01*
X157087452Y-86767455D01*
X157001206Y-86882664D01*
X157001202Y-86882671D01*
X156950908Y-87017517D01*
X156944501Y-87077116D01*
X156944500Y-87077135D01*
X156944500Y-88172870D01*
X156944501Y-88172876D01*
X156950908Y-88232483D01*
X157001202Y-88367328D01*
X157001206Y-88367335D01*
X157087452Y-88482544D01*
X157087453Y-88482544D01*
X157087454Y-88482546D01*
X157112235Y-88501097D01*
X157145145Y-88525734D01*
X157187015Y-88581668D01*
X157191999Y-88651360D01*
X157158513Y-88712683D01*
X157145145Y-88724266D01*
X157087452Y-88767455D01*
X157001206Y-88882664D01*
X157001202Y-88882671D01*
X156950908Y-89017517D01*
X156944501Y-89077116D01*
X156944501Y-89077123D01*
X156944500Y-89077135D01*
X156944500Y-90172870D01*
X156944501Y-90172876D01*
X156950908Y-90232483D01*
X157001202Y-90367328D01*
X157001206Y-90367335D01*
X157087452Y-90482544D01*
X157087453Y-90482544D01*
X157087454Y-90482546D01*
X157090500Y-90484826D01*
X157145145Y-90525734D01*
X157187015Y-90581668D01*
X157191999Y-90651360D01*
X157158513Y-90712683D01*
X157145145Y-90724266D01*
X157087452Y-90767455D01*
X157001206Y-90882664D01*
X157001202Y-90882671D01*
X156950908Y-91017517D01*
X156944501Y-91077116D01*
X156944500Y-91077135D01*
X156944500Y-92172870D01*
X156944501Y-92172876D01*
X156950908Y-92232483D01*
X157001202Y-92367328D01*
X157001206Y-92367335D01*
X157087452Y-92482544D01*
X157087455Y-92482547D01*
X157202664Y-92568793D01*
X157202671Y-92568797D01*
X157337517Y-92619091D01*
X157337516Y-92619091D01*
X157343507Y-92619735D01*
X157397127Y-92625500D01*
X159992872Y-92625499D01*
X160052483Y-92619091D01*
X160127169Y-92591234D01*
X160196857Y-92586251D01*
X160258181Y-92619735D01*
X160291666Y-92681058D01*
X160294500Y-92707417D01*
X160294500Y-94072870D01*
X160294501Y-94072876D01*
X160300908Y-94132483D01*
X160351202Y-94267328D01*
X160351204Y-94267331D01*
X160376550Y-94301189D01*
X160400967Y-94366654D01*
X160386115Y-94434926D01*
X160336710Y-94484332D01*
X160277283Y-94499500D01*
X138024500Y-94499500D01*
X137957461Y-94479815D01*
X137911706Y-94427011D01*
X137900500Y-94375500D01*
X137900500Y-89456947D01*
X145825000Y-89456947D01*
X145825000Y-89693052D01*
X145861934Y-89926247D01*
X145934897Y-90150802D01*
X146042087Y-90361174D01*
X146102338Y-90444104D01*
X146102340Y-90444105D01*
X146842037Y-89704408D01*
X146859075Y-89767993D01*
X146924901Y-89882007D01*
X147017993Y-89975099D01*
X147132007Y-90040925D01*
X147195590Y-90057962D01*
X146455893Y-90797658D01*
X146538828Y-90857914D01*
X146749197Y-90965102D01*
X146973752Y-91038065D01*
X146973751Y-91038065D01*
X147206948Y-91075000D01*
X147443052Y-91075000D01*
X147676247Y-91038065D01*
X147900802Y-90965102D01*
X148111163Y-90857918D01*
X148111169Y-90857914D01*
X148194104Y-90797658D01*
X148194105Y-90797658D01*
X147454408Y-90057962D01*
X147517993Y-90040925D01*
X147632007Y-89975099D01*
X147725099Y-89882007D01*
X147790925Y-89767993D01*
X147807962Y-89704409D01*
X148547658Y-90444105D01*
X148547658Y-90444104D01*
X148607914Y-90361169D01*
X148607918Y-90361163D01*
X148715102Y-90150802D01*
X148788065Y-89926247D01*
X148825000Y-89693052D01*
X148825000Y-89456947D01*
X148788065Y-89223752D01*
X148715102Y-88999197D01*
X148607914Y-88788828D01*
X148547658Y-88705894D01*
X148547658Y-88705893D01*
X147807962Y-89445590D01*
X147790925Y-89382007D01*
X147725099Y-89267993D01*
X147632007Y-89174901D01*
X147517993Y-89109075D01*
X147454409Y-89092037D01*
X148194105Y-88352340D01*
X148194104Y-88352338D01*
X148111174Y-88292087D01*
X147900802Y-88184897D01*
X147676247Y-88111934D01*
X147676248Y-88111934D01*
X147443052Y-88075000D01*
X147206948Y-88075000D01*
X146973752Y-88111934D01*
X146749197Y-88184897D01*
X146538830Y-88292084D01*
X146455894Y-88352340D01*
X147195591Y-89092037D01*
X147132007Y-89109075D01*
X147017993Y-89174901D01*
X146924901Y-89267993D01*
X146859075Y-89382007D01*
X146842037Y-89445591D01*
X146102340Y-88705894D01*
X146042084Y-88788830D01*
X145934897Y-88999197D01*
X145861934Y-89223752D01*
X145825000Y-89456947D01*
X137900500Y-89456947D01*
X137900500Y-85921153D01*
X145599500Y-85921153D01*
X145599500Y-86078846D01*
X145630261Y-86233489D01*
X145630264Y-86233501D01*
X145690602Y-86379172D01*
X145690609Y-86379185D01*
X145778210Y-86510288D01*
X145778213Y-86510292D01*
X145889707Y-86621786D01*
X145889711Y-86621789D01*
X146020814Y-86709390D01*
X146020827Y-86709397D01*
X146155484Y-86765173D01*
X146166503Y-86769737D01*
X146321153Y-86800499D01*
X146321156Y-86800500D01*
X146321158Y-86800500D01*
X146478844Y-86800500D01*
X146478845Y-86800499D01*
X146633497Y-86769737D01*
X146779179Y-86709394D01*
X146910289Y-86621789D01*
X147021789Y-86510289D01*
X147109394Y-86379179D01*
X147169737Y-86233497D01*
X147191156Y-86125812D01*
X147223539Y-86063906D01*
X147225034Y-86062383D01*
X148387411Y-84900008D01*
X148456083Y-84797233D01*
X148503385Y-84683035D01*
X148515487Y-84622196D01*
X148527500Y-84561805D01*
X148527500Y-79039356D01*
X148547185Y-78972317D01*
X148548398Y-78970465D01*
X148609394Y-78879179D01*
X148669737Y-78733497D01*
X148700500Y-78578842D01*
X148700500Y-78421158D01*
X148700500Y-78421155D01*
X148700499Y-78421153D01*
X148694244Y-78389707D01*
X148669737Y-78266503D01*
X148633569Y-78179185D01*
X148609397Y-78120827D01*
X148609390Y-78120814D01*
X148521789Y-77989711D01*
X148521786Y-77989707D01*
X148410292Y-77878213D01*
X148410288Y-77878210D01*
X148279185Y-77790609D01*
X148279172Y-77790602D01*
X148133501Y-77730264D01*
X148133489Y-77730261D01*
X147978845Y-77699500D01*
X147978842Y-77699500D01*
X147821158Y-77699500D01*
X147821155Y-77699500D01*
X147666510Y-77730261D01*
X147666498Y-77730264D01*
X147520827Y-77790602D01*
X147520814Y-77790609D01*
X147389711Y-77878210D01*
X147389707Y-77878213D01*
X147278213Y-77989707D01*
X147278210Y-77989711D01*
X147190609Y-78120814D01*
X147190602Y-78120827D01*
X147130264Y-78266498D01*
X147130261Y-78266510D01*
X147099500Y-78421153D01*
X147099500Y-78578846D01*
X147130261Y-78733489D01*
X147130264Y-78733501D01*
X147190603Y-78879174D01*
X147190604Y-78879175D01*
X147190606Y-78879179D01*
X147204107Y-78899384D01*
X147251602Y-78970465D01*
X147272480Y-79037142D01*
X147272500Y-79039356D01*
X147272500Y-84188718D01*
X147252815Y-84255757D01*
X147236181Y-84276399D01*
X146337672Y-85174907D01*
X146276349Y-85208392D01*
X146274183Y-85208843D01*
X146166508Y-85230261D01*
X146166498Y-85230264D01*
X146020827Y-85290602D01*
X146020814Y-85290609D01*
X145889711Y-85378210D01*
X145889707Y-85378213D01*
X145778213Y-85489707D01*
X145778210Y-85489711D01*
X145690609Y-85620814D01*
X145690602Y-85620827D01*
X145630264Y-85766498D01*
X145630261Y-85766510D01*
X145599500Y-85921153D01*
X137900500Y-85921153D01*
X137900500Y-76325000D01*
X158175000Y-76325000D01*
X174415000Y-76325000D01*
X174415000Y-69005000D01*
X158175000Y-69005000D01*
X158175000Y-76325000D01*
X137900500Y-76325000D01*
X137900500Y-71456902D01*
X145824500Y-71456902D01*
X145824500Y-71693097D01*
X145861446Y-71926368D01*
X145934433Y-72150996D01*
X146041657Y-72361433D01*
X146180483Y-72552510D01*
X146347490Y-72719517D01*
X146538567Y-72858343D01*
X146637991Y-72909002D01*
X146749003Y-72965566D01*
X146749005Y-72965566D01*
X146749008Y-72965568D01*
X146869412Y-73004689D01*
X146973631Y-73038553D01*
X147206903Y-73075500D01*
X147206908Y-73075500D01*
X147443097Y-73075500D01*
X147676368Y-73038553D01*
X147900992Y-72965568D01*
X148111433Y-72858343D01*
X148302510Y-72719517D01*
X148469517Y-72552510D01*
X148608343Y-72361433D01*
X148715568Y-72150992D01*
X148788553Y-71926368D01*
X148825500Y-71693097D01*
X148825500Y-71456902D01*
X148788553Y-71223631D01*
X148715566Y-70999003D01*
X148608342Y-70788566D01*
X148469517Y-70597490D01*
X148302510Y-70430483D01*
X148111433Y-70291657D01*
X147900996Y-70184433D01*
X147676368Y-70111446D01*
X147443097Y-70074500D01*
X147443092Y-70074500D01*
X147206908Y-70074500D01*
X147206903Y-70074500D01*
X146973631Y-70111446D01*
X146749003Y-70184433D01*
X146538566Y-70291657D01*
X146429550Y-70370862D01*
X146347490Y-70430483D01*
X146347488Y-70430485D01*
X146347487Y-70430485D01*
X146180485Y-70597487D01*
X146180485Y-70597488D01*
X146180483Y-70597490D01*
X146120862Y-70679550D01*
X146041657Y-70788566D01*
X145934433Y-70999003D01*
X145861446Y-71223631D01*
X145824500Y-71456902D01*
X137900500Y-71456902D01*
X137900500Y-68624500D01*
X137920185Y-68557461D01*
X137972989Y-68511706D01*
X138024500Y-68500500D01*
X175375500Y-68500500D01*
X175442539Y-68520185D01*
G37*
%TD.AperFunction*%
%TA.AperFunction,Conductor*%
G36*
X172139318Y-82272185D02*
G01*
X172185073Y-82324989D01*
X172188461Y-82333166D01*
X172201203Y-82367330D01*
X172201206Y-82367335D01*
X172287452Y-82482544D01*
X172287453Y-82482544D01*
X172287454Y-82482546D01*
X172290500Y-82484826D01*
X172345145Y-82525734D01*
X172387015Y-82581668D01*
X172391999Y-82651360D01*
X172358513Y-82712683D01*
X172345145Y-82724266D01*
X172287452Y-82767455D01*
X172201206Y-82882664D01*
X172201202Y-82882671D01*
X172150908Y-83017517D01*
X172144501Y-83077116D01*
X172144500Y-83077135D01*
X172144500Y-84172870D01*
X172144501Y-84172876D01*
X172150908Y-84232483D01*
X172201202Y-84367328D01*
X172201206Y-84367335D01*
X172287452Y-84482544D01*
X172287453Y-84482544D01*
X172287454Y-84482546D01*
X172290500Y-84484826D01*
X172345145Y-84525734D01*
X172357596Y-84542367D01*
X172373606Y-84555618D01*
X172378113Y-84569776D01*
X172387015Y-84581668D01*
X172388497Y-84602394D01*
X172394801Y-84622196D01*
X172390939Y-84636540D01*
X172391999Y-84651360D01*
X172382039Y-84669598D01*
X172376638Y-84689663D01*
X172362751Y-84704920D01*
X172358513Y-84712683D01*
X172354134Y-84716852D01*
X172349804Y-84720778D01*
X172287454Y-84767454D01*
X172264440Y-84798195D01*
X172255611Y-84806203D01*
X172238046Y-84814709D01*
X172219763Y-84828912D01*
X172070823Y-84890604D01*
X172070814Y-84890609D01*
X171939711Y-84978210D01*
X171939707Y-84978213D01*
X171828213Y-85089707D01*
X171828210Y-85089711D01*
X171740609Y-85220814D01*
X171740602Y-85220827D01*
X171680264Y-85366498D01*
X171680261Y-85366510D01*
X171649500Y-85521153D01*
X171649500Y-85678846D01*
X171680261Y-85833489D01*
X171680264Y-85833501D01*
X171740602Y-85979172D01*
X171740609Y-85979185D01*
X171828210Y-86110288D01*
X171828213Y-86110292D01*
X171939707Y-86221786D01*
X171939711Y-86221789D01*
X172070817Y-86309392D01*
X172070819Y-86309392D01*
X172070821Y-86309394D01*
X172153964Y-86343832D01*
X172165510Y-86348615D01*
X172173995Y-86354462D01*
X172180589Y-86356097D01*
X172194936Y-86368894D01*
X172208224Y-86378052D01*
X172213081Y-86383196D01*
X172287454Y-86482546D01*
X172353677Y-86532121D01*
X172360999Y-86539876D01*
X172372210Y-86561890D01*
X172387015Y-86581668D01*
X172387788Y-86592478D01*
X172392707Y-86602137D01*
X172390236Y-86626718D01*
X172391999Y-86651360D01*
X172386804Y-86660872D01*
X172385721Y-86671656D01*
X172370353Y-86690999D01*
X172358513Y-86712683D01*
X172345145Y-86724266D01*
X172287454Y-86767454D01*
X172202634Y-86880757D01*
X172146700Y-86922627D01*
X172127567Y-86928061D01*
X172116507Y-86930261D01*
X172116500Y-86930263D01*
X171970827Y-86990602D01*
X171970814Y-86990609D01*
X171839711Y-87078210D01*
X171839707Y-87078213D01*
X171728213Y-87189707D01*
X171728210Y-87189711D01*
X171640609Y-87320814D01*
X171640602Y-87320827D01*
X171580264Y-87466498D01*
X171580261Y-87466510D01*
X171549500Y-87621153D01*
X171549500Y-87778846D01*
X171580261Y-87933489D01*
X171580264Y-87933501D01*
X171640602Y-88079172D01*
X171640609Y-88079185D01*
X171728210Y-88210288D01*
X171728213Y-88210292D01*
X171839707Y-88321786D01*
X171839711Y-88321789D01*
X171970814Y-88409390D01*
X171970827Y-88409397D01*
X172116498Y-88469735D01*
X172116503Y-88469737D01*
X172271158Y-88500500D01*
X172271163Y-88500500D01*
X172277218Y-88501097D01*
X172277076Y-88502529D01*
X172291407Y-88506737D01*
X172313492Y-88508316D01*
X172332935Y-88518931D01*
X172337204Y-88520185D01*
X172344470Y-88525229D01*
X172345138Y-88525729D01*
X172387012Y-88581660D01*
X172392001Y-88651351D01*
X172358519Y-88712676D01*
X172345145Y-88724266D01*
X172280356Y-88772768D01*
X172278560Y-88770370D01*
X172230404Y-88796666D01*
X172204046Y-88799500D01*
X172171155Y-88799500D01*
X172016510Y-88830261D01*
X172016498Y-88830264D01*
X171870827Y-88890602D01*
X171870814Y-88890609D01*
X171739711Y-88978210D01*
X171739707Y-88978213D01*
X171628213Y-89089707D01*
X171628210Y-89089711D01*
X171540609Y-89220814D01*
X171540602Y-89220827D01*
X171480264Y-89366498D01*
X171480261Y-89366510D01*
X171449500Y-89521153D01*
X171449500Y-89678846D01*
X171480261Y-89833489D01*
X171480264Y-89833501D01*
X171540602Y-89979172D01*
X171540609Y-89979185D01*
X171628210Y-90110288D01*
X171628213Y-90110292D01*
X171739707Y-90221786D01*
X171739711Y-90221789D01*
X171870814Y-90309390D01*
X171870827Y-90309397D01*
X171995803Y-90361163D01*
X172016503Y-90369737D01*
X172171158Y-90400500D01*
X172171168Y-90400500D01*
X172176019Y-90400978D01*
X172240809Y-90427132D01*
X172248806Y-90434032D01*
X172256669Y-90441424D01*
X172287454Y-90482546D01*
X172351119Y-90530205D01*
X172356179Y-90534962D01*
X172370489Y-90559346D01*
X172387432Y-90581980D01*
X172387939Y-90589081D01*
X172391543Y-90595221D01*
X172390399Y-90623469D01*
X172392416Y-90651672D01*
X172389004Y-90657920D01*
X172388716Y-90665033D01*
X172372479Y-90688180D01*
X172358930Y-90712994D01*
X172349100Y-90721511D01*
X172348594Y-90722234D01*
X172347975Y-90722486D01*
X172345562Y-90724578D01*
X172287809Y-90767812D01*
X172201649Y-90882906D01*
X172201645Y-90882913D01*
X172151403Y-91017620D01*
X172151401Y-91017627D01*
X172145000Y-91077155D01*
X172145000Y-91375000D01*
X173771000Y-91375000D01*
X173838039Y-91394685D01*
X173883794Y-91447489D01*
X173895000Y-91499000D01*
X173895000Y-91625000D01*
X174021000Y-91625000D01*
X174088039Y-91644685D01*
X174133794Y-91697489D01*
X174145000Y-91749000D01*
X174145000Y-92625000D01*
X175192828Y-92625000D01*
X175192844Y-92624999D01*
X175252372Y-92618598D01*
X175252383Y-92618595D01*
X175332166Y-92588838D01*
X175401857Y-92583853D01*
X175463181Y-92617337D01*
X175496666Y-92678660D01*
X175499500Y-92705019D01*
X175499500Y-94375500D01*
X175479815Y-94442539D01*
X175427011Y-94488294D01*
X175375500Y-94499500D01*
X172312717Y-94499500D01*
X172245678Y-94479815D01*
X172199923Y-94427011D01*
X172189979Y-94357853D01*
X172213450Y-94301189D01*
X172216039Y-94297729D01*
X172238796Y-94267331D01*
X172289091Y-94132483D01*
X172295500Y-94072873D01*
X172295499Y-92706883D01*
X172315184Y-92639845D01*
X172367987Y-92594090D01*
X172437146Y-92584146D01*
X172462833Y-92590702D01*
X172537623Y-92618597D01*
X172537627Y-92618598D01*
X172597155Y-92624999D01*
X172597172Y-92625000D01*
X173645000Y-92625000D01*
X173645000Y-91875000D01*
X172203897Y-91875000D01*
X172136858Y-91855315D01*
X172129596Y-91850273D01*
X172037331Y-91781204D01*
X172037328Y-91781202D01*
X171902482Y-91730908D01*
X171902483Y-91730908D01*
X171842883Y-91724501D01*
X171842881Y-91724500D01*
X171842873Y-91724500D01*
X171842864Y-91724500D01*
X170747129Y-91724500D01*
X170747123Y-91724501D01*
X170687516Y-91730908D01*
X170552671Y-91781202D01*
X170552664Y-91781206D01*
X170437455Y-91867452D01*
X170394266Y-91925145D01*
X170338332Y-91967015D01*
X170268640Y-91971999D01*
X170207317Y-91938513D01*
X170195734Y-91925145D01*
X170158195Y-91875000D01*
X170152546Y-91867454D01*
X170152544Y-91867453D01*
X170152544Y-91867452D01*
X170037335Y-91781206D01*
X170037328Y-91781202D01*
X169902482Y-91730908D01*
X169902483Y-91730908D01*
X169842883Y-91724501D01*
X169842881Y-91724500D01*
X169842873Y-91724500D01*
X169842864Y-91724500D01*
X168747129Y-91724500D01*
X168747123Y-91724501D01*
X168687516Y-91730908D01*
X168552671Y-91781202D01*
X168552664Y-91781206D01*
X168437455Y-91867452D01*
X168394266Y-91925145D01*
X168338332Y-91967015D01*
X168268640Y-91971999D01*
X168207317Y-91938513D01*
X168195734Y-91925145D01*
X168158195Y-91875000D01*
X168152546Y-91867454D01*
X168152544Y-91867453D01*
X168152544Y-91867452D01*
X168037335Y-91781206D01*
X168037328Y-91781202D01*
X167902482Y-91730908D01*
X167902483Y-91730908D01*
X167842883Y-91724501D01*
X167842881Y-91724500D01*
X167842873Y-91724500D01*
X167842864Y-91724500D01*
X166747129Y-91724500D01*
X166747123Y-91724501D01*
X166687516Y-91730908D01*
X166552671Y-91781202D01*
X166552664Y-91781206D01*
X166437455Y-91867452D01*
X166394266Y-91925145D01*
X166338332Y-91967015D01*
X166268640Y-91971999D01*
X166207317Y-91938513D01*
X166195734Y-91925145D01*
X166158195Y-91875000D01*
X166152546Y-91867454D01*
X166152544Y-91867453D01*
X166152544Y-91867452D01*
X166037335Y-91781206D01*
X166037328Y-91781202D01*
X165902482Y-91730908D01*
X165902483Y-91730908D01*
X165842883Y-91724501D01*
X165842881Y-91724500D01*
X165842873Y-91724500D01*
X165842864Y-91724500D01*
X164747129Y-91724500D01*
X164747123Y-91724501D01*
X164687516Y-91730908D01*
X164552671Y-91781202D01*
X164552664Y-91781206D01*
X164437455Y-91867452D01*
X164394266Y-91925145D01*
X164338332Y-91967015D01*
X164268640Y-91971999D01*
X164207317Y-91938513D01*
X164195734Y-91925145D01*
X164158195Y-91875000D01*
X164152546Y-91867454D01*
X164152544Y-91867453D01*
X164152544Y-91867452D01*
X164037335Y-91781206D01*
X164037328Y-91781202D01*
X163902482Y-91730908D01*
X163902483Y-91730908D01*
X163842883Y-91724501D01*
X163842881Y-91724500D01*
X163842873Y-91724500D01*
X163842864Y-91724500D01*
X162747129Y-91724500D01*
X162747123Y-91724501D01*
X162687516Y-91730908D01*
X162552671Y-91781202D01*
X162552664Y-91781206D01*
X162437455Y-91867452D01*
X162394266Y-91925145D01*
X162338332Y-91967015D01*
X162268640Y-91971999D01*
X162207317Y-91938513D01*
X162195734Y-91925145D01*
X162158195Y-91875000D01*
X162152546Y-91867454D01*
X162152544Y-91867453D01*
X162152544Y-91867452D01*
X162037335Y-91781206D01*
X162037328Y-91781202D01*
X161902482Y-91730908D01*
X161902483Y-91730908D01*
X161842883Y-91724501D01*
X161842881Y-91724500D01*
X161842873Y-91724500D01*
X161842865Y-91724500D01*
X161072622Y-91724500D01*
X161005583Y-91704815D01*
X160959828Y-91652011D01*
X160950183Y-91584934D01*
X160949903Y-91584907D01*
X160950015Y-91583766D01*
X160949884Y-91582853D01*
X160950404Y-91579812D01*
X160950500Y-91578844D01*
X160950500Y-91421155D01*
X160950499Y-91421153D01*
X160945234Y-91394685D01*
X160919737Y-91266503D01*
X160919735Y-91266498D01*
X160859397Y-91120827D01*
X160859390Y-91120814D01*
X160771789Y-90989711D01*
X160771786Y-90989707D01*
X160660292Y-90878213D01*
X160660288Y-90878210D01*
X160529185Y-90790609D01*
X160529172Y-90790602D01*
X160383501Y-90730264D01*
X160383491Y-90730261D01*
X160330818Y-90719784D01*
X160268907Y-90687399D01*
X160234333Y-90626683D01*
X160238073Y-90556914D01*
X160278940Y-90500242D01*
X160280651Y-90498935D01*
X160302546Y-90482546D01*
X160388796Y-90367331D01*
X160439091Y-90232483D01*
X160445500Y-90172873D01*
X160445499Y-89077128D01*
X160439091Y-89017517D01*
X160424430Y-88978210D01*
X160388797Y-88882671D01*
X160388796Y-88882669D01*
X160388792Y-88882664D01*
X160315101Y-88784226D01*
X160290685Y-88718763D01*
X160305536Y-88650490D01*
X160354941Y-88601084D01*
X160390171Y-88588300D01*
X160483497Y-88569737D01*
X160603127Y-88520185D01*
X160629172Y-88509397D01*
X160629172Y-88509396D01*
X160629179Y-88509394D01*
X160760289Y-88421789D01*
X160871789Y-88310289D01*
X160959394Y-88179179D01*
X160962007Y-88172872D01*
X160973067Y-88146166D01*
X161019737Y-88033497D01*
X161050500Y-87878842D01*
X161050500Y-87721158D01*
X161050500Y-87721155D01*
X161050499Y-87721153D01*
X161019737Y-87566503D01*
X160978314Y-87466498D01*
X160959397Y-87420827D01*
X160959390Y-87420814D01*
X160871789Y-87289711D01*
X160871786Y-87289707D01*
X160760292Y-87178213D01*
X160760288Y-87178210D01*
X160629185Y-87090609D01*
X160629172Y-87090602D01*
X160486467Y-87031493D01*
X160432063Y-86987653D01*
X160417737Y-86960264D01*
X160388798Y-86882673D01*
X160388793Y-86882664D01*
X160327284Y-86800500D01*
X160302546Y-86767454D01*
X160244854Y-86724265D01*
X160202984Y-86668333D01*
X160198000Y-86598641D01*
X160231485Y-86537318D01*
X160244854Y-86525734D01*
X160302546Y-86482546D01*
X160388796Y-86367331D01*
X160439091Y-86232483D01*
X160445500Y-86172873D01*
X160445499Y-85077128D01*
X160439091Y-85017517D01*
X160424430Y-84978210D01*
X160388797Y-84882671D01*
X160388793Y-84882664D01*
X160337123Y-84813643D01*
X160302546Y-84767454D01*
X160244854Y-84724265D01*
X160202984Y-84668333D01*
X160198000Y-84598641D01*
X160231485Y-84537318D01*
X160244854Y-84525734D01*
X160302546Y-84482546D01*
X160388796Y-84367331D01*
X160439091Y-84232483D01*
X160445500Y-84172873D01*
X160445499Y-83549499D01*
X160465183Y-83482461D01*
X160517987Y-83436706D01*
X160569499Y-83425500D01*
X169463804Y-83425500D01*
X169463805Y-83425499D01*
X169585035Y-83401386D01*
X169665784Y-83367937D01*
X169699233Y-83354083D01*
X169802008Y-83285411D01*
X169889411Y-83198008D01*
X170798600Y-82288819D01*
X170859923Y-82255334D01*
X170886281Y-82252500D01*
X172072279Y-82252500D01*
X172139318Y-82272185D01*
G37*
%TD.AperFunction*%
%TD*%
M02*
