%TF.GenerationSoftware,KiCad,Pcbnew,10.0.3*%
%TF.CreationDate,2026-05-28T18:58:34+02:00*%
%TF.ProjectId,MiniVersion,4d696e69-5665-4727-9369-6f6e2e6b6963,rev?*%
%TF.SameCoordinates,Original*%
%TF.FileFunction,Copper,L2,Bot*%
%TF.FilePolarity,Positive*%
%FSLAX46Y46*%
G04 Gerber Fmt 4.6, Leading zero omitted, Abs format (unit mm)*
G04 Created by KiCad (PCBNEW 10.0.3) date 2026-05-28 18:58:34*
%MOMM*%
%LPD*%
G01*
G04 APERTURE LIST*
G04 Aperture macros list*
%AMRoundRect*
0 Rectangle with rounded corners*
0 $1 Rounding radius*
0 $2 $3 $4 $5 $6 $7 $8 $9 X,Y pos of 4 corners*
0 Add a 4 corners polygon primitive as box body*
4,1,4,$2,$3,$4,$5,$6,$7,$8,$9,$2,$3,0*
0 Add four circle primitives for the rounded corners*
1,1,$1+$1,$2,$3*
1,1,$1+$1,$4,$5*
1,1,$1+$1,$6,$7*
1,1,$1+$1,$8,$9*
0 Add four rect primitives between the rounded corners*
20,1,$1+$1,$2,$3,$4,$5,0*
20,1,$1+$1,$4,$5,$6,$7,0*
20,1,$1+$1,$6,$7,$8,$9,0*
20,1,$1+$1,$8,$9,$2,$3,0*%
G04 Aperture macros list end*
%TA.AperFunction,ComponentPad*%
%ADD10R,1.700000X1.700000*%
%TD*%
%TA.AperFunction,ComponentPad*%
%ADD11C,1.700000*%
%TD*%
%TA.AperFunction,SMDPad,CuDef*%
%ADD12R,0.640000X2.000000*%
%TD*%
%TA.AperFunction,SMDPad,CuDef*%
%ADD13R,2.400000X0.740000*%
%TD*%
%TA.AperFunction,SMDPad,CuDef*%
%ADD14RoundRect,0.225000X-0.250000X0.225000X-0.250000X-0.225000X0.250000X-0.225000X0.250000X0.225000X0*%
%TD*%
%TA.AperFunction,SMDPad,CuDef*%
%ADD15RoundRect,0.200000X-0.275000X0.200000X-0.275000X-0.200000X0.275000X-0.200000X0.275000X0.200000X0*%
%TD*%
%TA.AperFunction,SMDPad,CuDef*%
%ADD16RoundRect,0.200000X-0.200000X-0.275000X0.200000X-0.275000X0.200000X0.275000X-0.200000X0.275000X0*%
%TD*%
%TA.AperFunction,SMDPad,CuDef*%
%ADD17RoundRect,0.250000X-0.375000X-0.625000X0.375000X-0.625000X0.375000X0.625000X-0.375000X0.625000X0*%
%TD*%
%TA.AperFunction,ComponentPad*%
%ADD18C,2.000000*%
%TD*%
%TA.AperFunction,ComponentPad*%
%ADD19RoundRect,0.250001X-0.759999X0.499999X-0.759999X-0.499999X0.759999X-0.499999X0.759999X0.499999X0*%
%TD*%
%TA.AperFunction,ComponentPad*%
%ADD20O,2.020000X1.500000*%
%TD*%
%TA.AperFunction,SMDPad,CuDef*%
%ADD21RoundRect,0.225000X-0.225000X-0.250000X0.225000X-0.250000X0.225000X0.250000X-0.225000X0.250000X0*%
%TD*%
%TA.AperFunction,SMDPad,CuDef*%
%ADD22RoundRect,0.250000X0.625000X-0.375000X0.625000X0.375000X-0.625000X0.375000X-0.625000X-0.375000X0*%
%TD*%
%TA.AperFunction,SMDPad,CuDef*%
%ADD23RoundRect,0.250000X0.312500X0.625000X-0.312500X0.625000X-0.312500X-0.625000X0.312500X-0.625000X0*%
%TD*%
%TA.AperFunction,SMDPad,CuDef*%
%ADD24RoundRect,0.200000X0.200000X0.275000X-0.200000X0.275000X-0.200000X-0.275000X0.200000X-0.275000X0*%
%TD*%
%TA.AperFunction,SMDPad,CuDef*%
%ADD25R,5.600000X2.300000*%
%TD*%
%TA.AperFunction,ViaPad*%
%ADD26C,0.600000*%
%TD*%
%TA.AperFunction,Conductor*%
%ADD27C,1.000000*%
%TD*%
%TA.AperFunction,Conductor*%
%ADD28C,0.254000*%
%TD*%
%TA.AperFunction,Conductor*%
%ADD29C,0.500000*%
%TD*%
G04 APERTURE END LIST*
D10*
%TO.P,J3,1,Pin_1_1*%
%TO.N,+3V3*%
X155450000Y-79060000D03*
D11*
%TO.P,J3,2,Pin_2_2*%
%TO.N,/ESP8266/D5*%
X155450000Y-81600000D03*
%TO.P,J3,3,Pin_3_3*%
%TO.N,GND*%
X155450000Y-84140000D03*
%TD*%
D10*
%TO.P,J2,1,Pin_1_1*%
%TO.N,+3V3*%
X151795000Y-79095000D03*
D11*
%TO.P,J2,2,Pin_2_2*%
%TO.N,/Opto*%
X151795000Y-81635000D03*
%TO.P,J2,3,Pin_3_3*%
%TO.N,GND*%
X151795000Y-84175000D03*
%TD*%
D12*
%TO.P,U2,1*%
%TO.N,Net-(D2-K)*%
X141730000Y-74850000D03*
%TO.P,U2,2*%
%TO.N,Net-(D2-A)*%
X144270000Y-74850000D03*
%TO.P,U2,3*%
%TO.N,GND*%
X144270000Y-81150000D03*
%TO.P,U2,4*%
%TO.N,Net-(D3-K)*%
X141730000Y-81150000D03*
%TD*%
D13*
%TO.P,J4,1,Pin_1_1*%
%TO.N,/ESP8266/EN*%
X169950000Y-77630000D03*
%TO.P,J4,2,Pin_2_2*%
%TO.N,+3V3*%
X166050000Y-77630000D03*
%TO.P,J4,3,Pin_3_3*%
%TO.N,/ESP8266/TX*%
X169950000Y-78900000D03*
%TO.P,J4,4,Pin_4_4*%
%TO.N,GND*%
X166050000Y-78900000D03*
%TO.P,J4,5,Pin_5_5*%
%TO.N,/ESP8266/RX*%
X169950000Y-80170000D03*
%TO.P,J4,6,Pin_6_6*%
%TO.N,/ESP8266/D0*%
X166050000Y-80170000D03*
%TD*%
D14*
%TO.P,C5,1*%
%TO.N,/Opto*%
X147900000Y-83650000D03*
%TO.P,C5,2*%
%TO.N,GND*%
X147900000Y-85200000D03*
%TD*%
D15*
%TO.P,R2,1*%
%TO.N,GND*%
X146400000Y-80650000D03*
%TO.P,R2,2*%
%TO.N,/Opto*%
X146400000Y-82300000D03*
%TD*%
D14*
%TO.P,C4,1*%
%TO.N,+3V3*%
X149400000Y-71650000D03*
%TO.P,C4,2*%
%TO.N,GND*%
X149400000Y-73200000D03*
%TD*%
D16*
%TO.P,R11,1*%
%TO.N,Net-(D3-K)*%
X143250000Y-85500000D03*
%TO.P,R11,2*%
%TO.N,+3V3*%
X144900000Y-85500000D03*
%TD*%
D17*
%TO.P,D3,1,K_1*%
%TO.N,Net-(D3-K)*%
X141900000Y-83600000D03*
%TO.P,D3,2,A_2*%
%TO.N,/Opto*%
X144700000Y-83600000D03*
%TD*%
D18*
%TO.P,U3,1,GND_1*%
%TO.N,GND*%
X147325000Y-89575000D03*
%TO.P,U3,2,VCC_2*%
%TO.N,+3V3*%
X147325000Y-71575000D03*
%TO.P,U3,3,N_3*%
%TO.N,Net-(J1-Pin_3)*%
X129825000Y-71575000D03*
%TO.P,U3,4,L_4*%
%TO.N,Net-(U3-L)*%
X129825000Y-90575000D03*
%TD*%
D15*
%TO.P,R12,1*%
%TO.N,/Opto*%
X146400000Y-83600000D03*
%TO.P,R12,2*%
%TO.N,+3V3*%
X146400000Y-85250000D03*
%TD*%
D19*
%TO.P,J1,1,Pin_1_1*%
%TO.N,Net-(J1-Pin_1)*%
X123000000Y-79000000D03*
D20*
%TO.P,J1,2,Pin_2_2*%
%TO.N,Net-(J1-Pin_2)*%
X123000000Y-82000000D03*
%TO.P,J1,3,Pin_3_3*%
%TO.N,Net-(J1-Pin_3)*%
X123000000Y-85000000D03*
%TD*%
D16*
%TO.P,R6,1*%
%TO.N,GND*%
X170000000Y-89600000D03*
%TO.P,R6,2*%
%TO.N,/ESP8266/D15*%
X171650000Y-89600000D03*
%TD*%
%TO.P,R9,1*%
%TO.N,/ESP8266/D12*%
X160900000Y-87700000D03*
%TO.P,R9,2*%
%TO.N,+3V3*%
X162550000Y-87700000D03*
%TD*%
D21*
%TO.P,C3,1*%
%TO.N,+3V3*%
X160900000Y-91400000D03*
%TO.P,C3,2*%
%TO.N,GND*%
X162450000Y-91400000D03*
%TD*%
D22*
%TO.P,D2,1,K_1*%
%TO.N,Net-(D2-K)*%
X139000000Y-75000000D03*
%TO.P,D2,2,A_2*%
%TO.N,Net-(D2-A)*%
X139000000Y-72200000D03*
%TD*%
D23*
%TO.P,R1,1*%
%TO.N,Net-(D2-K)*%
X137000000Y-75000000D03*
%TO.P,R1,2*%
%TO.N,Net-(J1-Pin_1)*%
X134075000Y-75000000D03*
%TD*%
D24*
%TO.P,R5,1*%
%TO.N,/ESP8266/D0*%
X171800000Y-85600000D03*
%TO.P,R5,2*%
%TO.N,+3V3*%
X170150000Y-85600000D03*
%TD*%
D16*
%TO.P,R4,1*%
%TO.N,Net-(U4-~{RST})*%
X160700000Y-77600000D03*
%TO.P,R4,2*%
%TO.N,+3V3*%
X162350000Y-77600000D03*
%TD*%
D25*
%TO.P,F1,1*%
%TO.N,Net-(U3-L)*%
X131000000Y-87000000D03*
%TO.P,F1,2*%
%TO.N,Net-(J1-Pin_2)*%
X131000000Y-79600000D03*
%TD*%
D24*
%TO.P,R7,1*%
%TO.N,/ESP8266/D2*%
X171700000Y-87700000D03*
%TO.P,R7,2*%
%TO.N,+3V3*%
X170050000Y-87700000D03*
%TD*%
D23*
%TO.P,R8,1*%
%TO.N,Net-(D2-A)*%
X137000000Y-71000000D03*
%TO.P,R8,2*%
%TO.N,Net-(J1-Pin_3)*%
X134075000Y-71000000D03*
%TD*%
D16*
%TO.P,R3,1*%
%TO.N,/ESP8266/EN*%
X160700000Y-81700000D03*
%TO.P,R3,2*%
%TO.N,+3V3*%
X162350000Y-81700000D03*
%TD*%
D26*
%TO.N,GND*%
X149100000Y-76600000D03*
X149000000Y-87200000D03*
X168000000Y-81500000D03*
X163700000Y-80300000D03*
X170600000Y-90900000D03*
%TO.N,+3V3*%
X147900000Y-78500000D03*
X146400000Y-86000000D03*
%TO.N,/ESP8266/EN*%
X168150000Y-77800000D03*
%TO.N,Net-(U4-~{RST})*%
X160050000Y-77600000D03*
%TO.N,/ESP8266/EN*%
X160150000Y-81700000D03*
%TO.N,/ESP8266/D12*%
X160250000Y-87800000D03*
%TO.N,/ESP8266/D15*%
X172250000Y-89600000D03*
%TO.N,/ESP8266/D2*%
X172350000Y-87700000D03*
%TO.N,/ESP8266/D0*%
X172450000Y-85600000D03*
%TO.N,+3V3*%
X160150000Y-91500000D03*
%TO.N,/ESP8266/TX*%
X171950000Y-78900000D03*
%TO.N,/ESP8266/RX*%
X171850000Y-80100000D03*
%TD*%
%TO.N,+3V3*%
D27*
X147900000Y-78500000D02*
X147325000Y-77925000D01*
D28*
X146400000Y-85250000D02*
X146400000Y-86000000D01*
D27*
X162290000Y-79060000D02*
X162350000Y-79000000D01*
D29*
X162350000Y-79000000D02*
X162350000Y-77600000D01*
D27*
X155450000Y-79060000D02*
X162290000Y-79060000D01*
X147325000Y-77925000D02*
X147325000Y-71575000D01*
X148495000Y-79095000D02*
X147900000Y-78500000D01*
X151795000Y-79095000D02*
X148495000Y-79095000D01*
D28*
X149400000Y-71650000D02*
X147400000Y-71650000D01*
X147400000Y-71650000D02*
X147325000Y-71575000D01*
%TO.N,Net-(D2-A)*%
X144270000Y-72970000D02*
X144270000Y-74850000D01*
X144200000Y-72900000D02*
X144270000Y-72970000D01*
X144200000Y-72800000D02*
X144200000Y-72900000D01*
X143600000Y-72200000D02*
X144200000Y-72800000D01*
X139000000Y-72200000D02*
X143600000Y-72200000D01*
%TO.N,Net-(D2-K)*%
X139250000Y-74850000D02*
X141730000Y-74850000D01*
X139100000Y-75000000D02*
X139250000Y-74850000D01*
X139000000Y-75000000D02*
X139100000Y-75000000D01*
%TO.N,GND*%
X144770000Y-80650000D02*
X144270000Y-81150000D01*
X146400000Y-80650000D02*
X144770000Y-80650000D01*
%TO.N,+3V3*%
X145150000Y-85250000D02*
X144900000Y-85500000D01*
X146400000Y-85250000D02*
X145150000Y-85250000D01*
%TO.N,Net-(D3-K)*%
X143250000Y-84950000D02*
X141900000Y-83600000D01*
X143250000Y-85500000D02*
X143250000Y-84950000D01*
X141730000Y-83430000D02*
X141900000Y-83600000D01*
X141730000Y-81150000D02*
X141730000Y-83430000D01*
%TO.N,/Opto*%
X150965000Y-81635000D02*
X151795000Y-81635000D01*
X147900000Y-83650000D02*
X148950000Y-83650000D01*
X148950000Y-83650000D02*
X150965000Y-81635000D01*
X146450000Y-83650000D02*
X146400000Y-83600000D01*
X147900000Y-83650000D02*
X146450000Y-83650000D01*
X146400000Y-82300000D02*
X146400000Y-83600000D01*
X146400000Y-83600000D02*
X144700000Y-83600000D01*
%TO.N,/ESP8266/EN*%
X168320000Y-77630000D02*
X168150000Y-77800000D01*
X169950000Y-77630000D02*
X168320000Y-77630000D01*
%TO.N,Net-(U4-~{RST})*%
X160700000Y-77600000D02*
X160050000Y-77600000D01*
%TO.N,/ESP8266/EN*%
X160700000Y-81700000D02*
X160150000Y-81700000D01*
%TO.N,/ESP8266/D12*%
X160350000Y-87700000D02*
X160250000Y-87800000D01*
X160900000Y-87700000D02*
X160350000Y-87700000D01*
%TO.N,+3V3*%
X170050000Y-87700000D02*
X162550000Y-87700000D01*
X170150000Y-87600000D02*
X170050000Y-87700000D01*
X170150000Y-85600000D02*
X170150000Y-87600000D01*
%TO.N,/ESP8266/D0*%
X171850000Y-84300000D02*
X171800000Y-84350000D01*
X171800000Y-84350000D02*
X171800000Y-85600000D01*
X170850000Y-83300000D02*
X171850000Y-84300000D01*
X166450000Y-83300000D02*
X170850000Y-83300000D01*
X166050000Y-82900000D02*
X166450000Y-83300000D01*
X166050000Y-80170000D02*
X166050000Y-82900000D01*
%TO.N,/ESP8266/D15*%
X171650000Y-89600000D02*
X172250000Y-89600000D01*
%TO.N,/ESP8266/D2*%
X171700000Y-87700000D02*
X172350000Y-87700000D01*
%TO.N,/ESP8266/D0*%
X171800000Y-85600000D02*
X172450000Y-85600000D01*
%TO.N,+3V3*%
D29*
X160250000Y-91400000D02*
X160150000Y-91500000D01*
X160900000Y-91400000D02*
X160250000Y-91400000D01*
X162550000Y-89750000D02*
X160900000Y-91400000D01*
X162550000Y-87700000D02*
X162550000Y-89750000D01*
X162550000Y-81900000D02*
X162350000Y-81700000D01*
X162550000Y-87700000D02*
X162550000Y-81900000D01*
X162350000Y-81700000D02*
X162350000Y-79000000D01*
X162380000Y-77630000D02*
X162350000Y-77600000D01*
X166050000Y-77630000D02*
X162380000Y-77630000D01*
%TO.N,/ESP8266/TX*%
D28*
X171950000Y-78900000D02*
X169950000Y-78900000D01*
%TO.N,/ESP8266/RX*%
X171850000Y-80100000D02*
X170020000Y-80100000D01*
X170020000Y-80100000D02*
X169950000Y-80170000D01*
%TO.N,Net-(D2-K)*%
X139000000Y-75000000D02*
X137000000Y-75000000D01*
%TO.N,Net-(D2-A)*%
X137800000Y-71000000D02*
X139000000Y-72200000D01*
X137000000Y-71000000D02*
X137800000Y-71000000D01*
%TO.N,Net-(U3-L)*%
D27*
X131000000Y-89400000D02*
X129825000Y-90575000D01*
X131000000Y-87000000D02*
X131000000Y-89400000D01*
%TO.N,Net-(J1-Pin_2)*%
X128400000Y-79600000D02*
X131000000Y-79600000D01*
X123000000Y-82000000D02*
X126000000Y-82000000D01*
X126000000Y-82000000D02*
X128400000Y-79600000D01*
%TO.N,Net-(J1-Pin_3)*%
D28*
X133500000Y-71575000D02*
X129825000Y-71575000D01*
X134075000Y-71000000D02*
X133500000Y-71575000D01*
%TO.N,Net-(J1-Pin_1)*%
X123000000Y-79000000D02*
X125000000Y-79000000D01*
X125000000Y-79000000D02*
X129000000Y-75000000D01*
X129000000Y-75000000D02*
X134075000Y-75000000D01*
%TD*%
%TA.AperFunction,Conductor*%
%TO.N,GND*%
G36*
X175442539Y-68520185D02*
G01*
X175488294Y-68572989D01*
X175499500Y-68624500D01*
X175499500Y-94375500D01*
X175479815Y-94442539D01*
X175427011Y-94488294D01*
X175375500Y-94499500D01*
X138024500Y-94499500D01*
X137957461Y-94479815D01*
X137911706Y-94427011D01*
X137900500Y-94375500D01*
X137900500Y-89456947D01*
X145825000Y-89456947D01*
X145825000Y-89693052D01*
X145861934Y-89926247D01*
X145934897Y-90150802D01*
X146042087Y-90361174D01*
X146102338Y-90444104D01*
X146102340Y-90444105D01*
X146842037Y-89704408D01*
X146859075Y-89767993D01*
X146924901Y-89882007D01*
X147017993Y-89975099D01*
X147132007Y-90040925D01*
X147195590Y-90057962D01*
X146455893Y-90797658D01*
X146538828Y-90857914D01*
X146749197Y-90965102D01*
X146973752Y-91038065D01*
X146973751Y-91038065D01*
X147206948Y-91075000D01*
X147443052Y-91075000D01*
X147676247Y-91038065D01*
X147900802Y-90965102D01*
X148111163Y-90857918D01*
X148111169Y-90857914D01*
X148194104Y-90797658D01*
X148194105Y-90797658D01*
X147454408Y-90057962D01*
X147517993Y-90040925D01*
X147632007Y-89975099D01*
X147725099Y-89882007D01*
X147790925Y-89767993D01*
X147807962Y-89704409D01*
X148547658Y-90444105D01*
X148547658Y-90444104D01*
X148607914Y-90361169D01*
X148607918Y-90361163D01*
X148715102Y-90150802D01*
X148788065Y-89926247D01*
X148825000Y-89693052D01*
X148825000Y-89456947D01*
X148788065Y-89223752D01*
X148715102Y-88999197D01*
X148607914Y-88788828D01*
X148547658Y-88705894D01*
X148547658Y-88705893D01*
X147807962Y-89445590D01*
X147790925Y-89382007D01*
X147725099Y-89267993D01*
X147632007Y-89174901D01*
X147517993Y-89109075D01*
X147454409Y-89092037D01*
X148194105Y-88352340D01*
X148194104Y-88352338D01*
X148111174Y-88292087D01*
X147900802Y-88184897D01*
X147676247Y-88111934D01*
X147676248Y-88111934D01*
X147443052Y-88075000D01*
X147206948Y-88075000D01*
X146973752Y-88111934D01*
X146749197Y-88184897D01*
X146538830Y-88292084D01*
X146455894Y-88352340D01*
X147195591Y-89092037D01*
X147132007Y-89109075D01*
X147017993Y-89174901D01*
X146924901Y-89267993D01*
X146859075Y-89382007D01*
X146842037Y-89445591D01*
X146102340Y-88705894D01*
X146042084Y-88788830D01*
X145934897Y-88999197D01*
X145861934Y-89223752D01*
X145825000Y-89456947D01*
X137900500Y-89456947D01*
X137900500Y-82924983D01*
X140774500Y-82924983D01*
X140774500Y-84275001D01*
X140774501Y-84275018D01*
X140785000Y-84377796D01*
X140785001Y-84377799D01*
X140810957Y-84456127D01*
X140840186Y-84544334D01*
X140932288Y-84693656D01*
X141056344Y-84817712D01*
X141205666Y-84909814D01*
X141372203Y-84964999D01*
X141474991Y-84975500D01*
X142231249Y-84975499D01*
X142298288Y-84995183D01*
X142344043Y-85047987D01*
X142354740Y-85110720D01*
X142349500Y-85168384D01*
X142349500Y-85831616D01*
X142351423Y-85852778D01*
X142355913Y-85902192D01*
X142355913Y-85902194D01*
X142355914Y-85902196D01*
X142406522Y-86064606D01*
X142466974Y-86164606D01*
X142494530Y-86210188D01*
X142614811Y-86330469D01*
X142614813Y-86330470D01*
X142614815Y-86330472D01*
X142760394Y-86418478D01*
X142922804Y-86469086D01*
X142993384Y-86475500D01*
X142993387Y-86475500D01*
X143506613Y-86475500D01*
X143506616Y-86475500D01*
X143577196Y-86469086D01*
X143739606Y-86418478D01*
X143885185Y-86330472D01*
X143920803Y-86294854D01*
X143987319Y-86228339D01*
X144048642Y-86194854D01*
X144118334Y-86199838D01*
X144162681Y-86228339D01*
X144264811Y-86330469D01*
X144264813Y-86330470D01*
X144264815Y-86330472D01*
X144410394Y-86418478D01*
X144572804Y-86469086D01*
X144643384Y-86475500D01*
X144643387Y-86475500D01*
X145156613Y-86475500D01*
X145156616Y-86475500D01*
X145227196Y-86469086D01*
X145389606Y-86418478D01*
X145521296Y-86338868D01*
X145588847Y-86321033D01*
X145655321Y-86342550D01*
X145688545Y-86376095D01*
X145778210Y-86510288D01*
X145778213Y-86510292D01*
X145889707Y-86621786D01*
X145889711Y-86621789D01*
X146020814Y-86709390D01*
X146020827Y-86709397D01*
X146125533Y-86752767D01*
X146166503Y-86769737D01*
X146321153Y-86800499D01*
X146321156Y-86800500D01*
X146321158Y-86800500D01*
X146478844Y-86800500D01*
X146478845Y-86800499D01*
X146633497Y-86769737D01*
X146779179Y-86709394D01*
X146910289Y-86621789D01*
X147021789Y-86510289D01*
X147109394Y-86379179D01*
X147110672Y-86376095D01*
X147162694Y-86250500D01*
X147169737Y-86233497D01*
X147180399Y-86179897D01*
X147212783Y-86117986D01*
X147273499Y-86083412D01*
X147341020Y-86086382D01*
X147502393Y-86139855D01*
X147601683Y-86149999D01*
X148150000Y-86149999D01*
X148198308Y-86149999D01*
X148198322Y-86149998D01*
X148297607Y-86139855D01*
X148458481Y-86086547D01*
X148458492Y-86086542D01*
X148602728Y-85997575D01*
X148602732Y-85997572D01*
X148722572Y-85877732D01*
X148722575Y-85877728D01*
X148811542Y-85733492D01*
X148811547Y-85733481D01*
X148864855Y-85572606D01*
X148874999Y-85473322D01*
X148875000Y-85473309D01*
X148875000Y-85450000D01*
X148150000Y-85450000D01*
X148150000Y-86149999D01*
X147601683Y-86149999D01*
X147649999Y-86149998D01*
X147650000Y-86149998D01*
X147650000Y-85324000D01*
X147669685Y-85256961D01*
X147722489Y-85211206D01*
X147774000Y-85200000D01*
X147900000Y-85200000D01*
X147900000Y-85074000D01*
X147919685Y-85006961D01*
X147972489Y-84961206D01*
X148024000Y-84950000D01*
X148874999Y-84950000D01*
X148874999Y-84926692D01*
X148874998Y-84926677D01*
X148864855Y-84827392D01*
X148811547Y-84666518D01*
X148811542Y-84666507D01*
X148722575Y-84522271D01*
X148722572Y-84522267D01*
X148713339Y-84513034D01*
X148710249Y-84507375D01*
X148704930Y-84503729D01*
X148693706Y-84477080D01*
X148679854Y-84451711D01*
X148680313Y-84445279D01*
X148677811Y-84439337D01*
X148682775Y-84410857D01*
X148684838Y-84382019D01*
X148688979Y-84375270D01*
X148689810Y-84370505D01*
X148704373Y-84350184D01*
X148709767Y-84341395D01*
X148711493Y-84339518D01*
X148722968Y-84328044D01*
X148724834Y-84325018D01*
X148731713Y-84317542D01*
X148757842Y-84301829D01*
X148782717Y-84284214D01*
X148788831Y-84283194D01*
X148791590Y-84281535D01*
X148797687Y-84281716D01*
X148822966Y-84277500D01*
X149011804Y-84277500D01*
X149011805Y-84277499D01*
X149133035Y-84253386D01*
X149225478Y-84215094D01*
X149247233Y-84206083D01*
X149350008Y-84137411D01*
X149437411Y-84050008D01*
X150786519Y-82700898D01*
X150815609Y-82685014D01*
X150844233Y-82668256D01*
X150846153Y-82668335D01*
X150847840Y-82667415D01*
X150880913Y-82669780D01*
X150914043Y-82671157D01*
X150916267Y-82672308D01*
X150917531Y-82672399D01*
X150945511Y-82687139D01*
X150946306Y-82687698D01*
X151087184Y-82790051D01*
X151104327Y-82798786D01*
X151111514Y-82803838D01*
X151128022Y-82824569D01*
X151147290Y-82842766D01*
X151149447Y-82851476D01*
X151155037Y-82858496D01*
X151157716Y-82884863D01*
X151164087Y-82910587D01*
X151161192Y-82919080D01*
X151162100Y-82928008D01*
X151150100Y-82951635D01*
X151141552Y-82976722D01*
X151134062Y-82983212D01*
X151130461Y-82990304D01*
X151116337Y-82998572D01*
X151096505Y-83015760D01*
X151087446Y-83020376D01*
X151087440Y-83020380D01*
X151033282Y-83059727D01*
X151033282Y-83059728D01*
X151665591Y-83692037D01*
X151602007Y-83709075D01*
X151487993Y-83774901D01*
X151394901Y-83867993D01*
X151329075Y-83982007D01*
X151312037Y-84045591D01*
X150679728Y-83413282D01*
X150679727Y-83413282D01*
X150640380Y-83467439D01*
X150543904Y-83656782D01*
X150478242Y-83858869D01*
X150478242Y-83858872D01*
X150445000Y-84068753D01*
X150445000Y-84281246D01*
X150478242Y-84491127D01*
X150478242Y-84491130D01*
X150543904Y-84693217D01*
X150640375Y-84882550D01*
X150679728Y-84936716D01*
X151312037Y-84304408D01*
X151329075Y-84367993D01*
X151394901Y-84482007D01*
X151487993Y-84575099D01*
X151602007Y-84640925D01*
X151665590Y-84657962D01*
X151033282Y-85290269D01*
X151033282Y-85290270D01*
X151087449Y-85329624D01*
X151276782Y-85426095D01*
X151478870Y-85491757D01*
X151688754Y-85525000D01*
X151901246Y-85525000D01*
X152111127Y-85491757D01*
X152111130Y-85491757D01*
X152313217Y-85426095D01*
X152502554Y-85329622D01*
X152556716Y-85290270D01*
X152556717Y-85290270D01*
X151924408Y-84657962D01*
X151987993Y-84640925D01*
X152102007Y-84575099D01*
X152195099Y-84482007D01*
X152260925Y-84367993D01*
X152277962Y-84304409D01*
X152910270Y-84936717D01*
X152910270Y-84936716D01*
X152949622Y-84882554D01*
X153046095Y-84693217D01*
X153111757Y-84491130D01*
X153111757Y-84491127D01*
X153145000Y-84281246D01*
X153145000Y-84068754D01*
X153141757Y-84048279D01*
X153111757Y-83858872D01*
X153111757Y-83858869D01*
X153046095Y-83656782D01*
X152949624Y-83467449D01*
X152910270Y-83413282D01*
X152910269Y-83413282D01*
X152277962Y-84045590D01*
X152260925Y-83982007D01*
X152195099Y-83867993D01*
X152102007Y-83774901D01*
X151987993Y-83709075D01*
X151924409Y-83692037D01*
X152556716Y-83059728D01*
X152502547Y-83020373D01*
X152502547Y-83020372D01*
X152493500Y-83015763D01*
X152442706Y-82967788D01*
X152425912Y-82899966D01*
X152448451Y-82833832D01*
X152493508Y-82794793D01*
X152502816Y-82790051D01*
X152625523Y-82700900D01*
X152674786Y-82665109D01*
X152674788Y-82665106D01*
X152674792Y-82665104D01*
X152825104Y-82514792D01*
X152825106Y-82514788D01*
X152825109Y-82514786D01*
X152950048Y-82342820D01*
X152950047Y-82342820D01*
X152950051Y-82342816D01*
X153046557Y-82153412D01*
X153112246Y-81951243D01*
X153145500Y-81741287D01*
X153145500Y-81528713D01*
X153112246Y-81318757D01*
X153046557Y-81116588D01*
X152950051Y-80927184D01*
X152950049Y-80927181D01*
X152950048Y-80927179D01*
X152825109Y-80755213D01*
X152711569Y-80641673D01*
X152678084Y-80580350D01*
X152683068Y-80510658D01*
X152724940Y-80454725D01*
X152755915Y-80437810D01*
X152887331Y-80388796D01*
X153002546Y-80302546D01*
X153088796Y-80187331D01*
X153139091Y-80052483D01*
X153145500Y-79992873D01*
X153145499Y-78197128D01*
X153141737Y-78162135D01*
X154099500Y-78162135D01*
X154099500Y-79957870D01*
X154099501Y-79957876D01*
X154105908Y-80017483D01*
X154156202Y-80152328D01*
X154156206Y-80152335D01*
X154242452Y-80267544D01*
X154242455Y-80267547D01*
X154357664Y-80353793D01*
X154357671Y-80353797D01*
X154489082Y-80402810D01*
X154545016Y-80444681D01*
X154569433Y-80510145D01*
X154554582Y-80578418D01*
X154533431Y-80606673D01*
X154419889Y-80720215D01*
X154294951Y-80892179D01*
X154198444Y-81081585D01*
X154132753Y-81283760D01*
X154099500Y-81493713D01*
X154099500Y-81706287D01*
X154109534Y-81769644D01*
X154118473Y-81826081D01*
X154132754Y-81916243D01*
X154191946Y-82098417D01*
X154198444Y-82118414D01*
X154294951Y-82307820D01*
X154419890Y-82479786D01*
X154570213Y-82630109D01*
X154742179Y-82755048D01*
X154742181Y-82755049D01*
X154742184Y-82755051D01*
X154751493Y-82759794D01*
X154802290Y-82807766D01*
X154819087Y-82875587D01*
X154796552Y-82941722D01*
X154751505Y-82980760D01*
X154742446Y-82985376D01*
X154742440Y-82985380D01*
X154688282Y-83024727D01*
X154688282Y-83024728D01*
X155320591Y-83657037D01*
X155257007Y-83674075D01*
X155142993Y-83739901D01*
X155049901Y-83832993D01*
X154984075Y-83947007D01*
X154967037Y-84010591D01*
X154334728Y-83378282D01*
X154334727Y-83378282D01*
X154295380Y-83432439D01*
X154198904Y-83621782D01*
X154133242Y-83823869D01*
X154133242Y-83823872D01*
X154100000Y-84033753D01*
X154100000Y-84246246D01*
X154133242Y-84456127D01*
X154133242Y-84456130D01*
X154198904Y-84658217D01*
X154295375Y-84847550D01*
X154334728Y-84901716D01*
X154967037Y-84269408D01*
X154984075Y-84332993D01*
X155049901Y-84447007D01*
X155142993Y-84540099D01*
X155257007Y-84605925D01*
X155320590Y-84622962D01*
X154688282Y-85255269D01*
X154688282Y-85255270D01*
X154742449Y-85294624D01*
X154931782Y-85391095D01*
X155133870Y-85456757D01*
X155343754Y-85490000D01*
X155556246Y-85490000D01*
X155766127Y-85456757D01*
X155766130Y-85456757D01*
X155968217Y-85391095D01*
X156157554Y-85294622D01*
X156211716Y-85255270D01*
X156211717Y-85255270D01*
X155579408Y-84622962D01*
X155642993Y-84605925D01*
X155757007Y-84540099D01*
X155850099Y-84447007D01*
X155915925Y-84332993D01*
X155932962Y-84269408D01*
X156565270Y-84901717D01*
X156565270Y-84901716D01*
X156604622Y-84847554D01*
X156701095Y-84658217D01*
X156766757Y-84456130D01*
X156766757Y-84456127D01*
X156800000Y-84246246D01*
X156800000Y-84033753D01*
X156766757Y-83823872D01*
X156766757Y-83823869D01*
X156701095Y-83621782D01*
X156604624Y-83432449D01*
X156565270Y-83378282D01*
X156565269Y-83378282D01*
X155932962Y-84010590D01*
X155915925Y-83947007D01*
X155850099Y-83832993D01*
X155757007Y-83739901D01*
X155642993Y-83674075D01*
X155579409Y-83657037D01*
X156211716Y-83024728D01*
X156157547Y-82985373D01*
X156157547Y-82985372D01*
X156148500Y-82980763D01*
X156097706Y-82932788D01*
X156080912Y-82864966D01*
X156103451Y-82798832D01*
X156148508Y-82759793D01*
X156157816Y-82755051D01*
X156251290Y-82687139D01*
X156329786Y-82630109D01*
X156329788Y-82630106D01*
X156329792Y-82630104D01*
X156480104Y-82479792D01*
X156480106Y-82479788D01*
X156480109Y-82479786D01*
X156605048Y-82307820D01*
X156605047Y-82307820D01*
X156605051Y-82307816D01*
X156701557Y-82118412D01*
X156767246Y-81916243D01*
X156800500Y-81706287D01*
X156800500Y-81493713D01*
X156767246Y-81283757D01*
X156701557Y-81081588D01*
X156605051Y-80892184D01*
X156605049Y-80892181D01*
X156605048Y-80892179D01*
X156480109Y-80720213D01*
X156366569Y-80606673D01*
X156333084Y-80545350D01*
X156338068Y-80475658D01*
X156379940Y-80419725D01*
X156410915Y-80402810D01*
X156542331Y-80353796D01*
X156657546Y-80267546D01*
X156743796Y-80152331D01*
X156747960Y-80141165D01*
X156789829Y-80085234D01*
X156855293Y-80060816D01*
X156864141Y-80060500D01*
X161475500Y-80060500D01*
X161542539Y-80080185D01*
X161588294Y-80132989D01*
X161599500Y-80184500D01*
X161599500Y-80834480D01*
X161579815Y-80901519D01*
X161527011Y-80947274D01*
X161457853Y-80957218D01*
X161394297Y-80928193D01*
X161387819Y-80922161D01*
X161335188Y-80869530D01*
X161289431Y-80841869D01*
X161189606Y-80781522D01*
X161027196Y-80730914D01*
X161027194Y-80730913D01*
X161027192Y-80730913D01*
X160977778Y-80726423D01*
X160956616Y-80724500D01*
X160443384Y-80724500D01*
X160424145Y-80726248D01*
X160372807Y-80730913D01*
X160210393Y-80781522D01*
X160064815Y-80869527D01*
X160052420Y-80881922D01*
X159991096Y-80915405D01*
X159988933Y-80915855D01*
X159916508Y-80930261D01*
X159916498Y-80930264D01*
X159770827Y-80990602D01*
X159770814Y-80990609D01*
X159639711Y-81078210D01*
X159639707Y-81078213D01*
X159528213Y-81189707D01*
X159528210Y-81189711D01*
X159440609Y-81320814D01*
X159440602Y-81320827D01*
X159380264Y-81466498D01*
X159380261Y-81466510D01*
X159349500Y-81621153D01*
X159349500Y-81778846D01*
X159380261Y-81933489D01*
X159380264Y-81933501D01*
X159440602Y-82079172D01*
X159440609Y-82079185D01*
X159528210Y-82210288D01*
X159528213Y-82210292D01*
X159639707Y-82321786D01*
X159639711Y-82321789D01*
X159770814Y-82409390D01*
X159770827Y-82409397D01*
X159840213Y-82438137D01*
X159916503Y-82469737D01*
X159988933Y-82484144D01*
X160050842Y-82516526D01*
X160052368Y-82518025D01*
X160064815Y-82530472D01*
X160210394Y-82618478D01*
X160372804Y-82669086D01*
X160443384Y-82675500D01*
X160443387Y-82675500D01*
X160956613Y-82675500D01*
X160956616Y-82675500D01*
X161027196Y-82669086D01*
X161189606Y-82618478D01*
X161335185Y-82530472D01*
X161385871Y-82479786D01*
X161437319Y-82428339D01*
X161442398Y-82425565D01*
X161445621Y-82420758D01*
X161472720Y-82409008D01*
X161498642Y-82394854D01*
X161504413Y-82395266D01*
X161509725Y-82392964D01*
X161538873Y-82397731D01*
X161568334Y-82399838D01*
X161574455Y-82403550D01*
X161578678Y-82404241D01*
X161596967Y-82417202D01*
X161607996Y-82423891D01*
X161610396Y-82426053D01*
X161714815Y-82530472D01*
X161749743Y-82551586D01*
X161758496Y-82559472D01*
X161770882Y-82579588D01*
X161786837Y-82597010D01*
X161789997Y-82610633D01*
X161795129Y-82618968D01*
X161794883Y-82631698D01*
X161799500Y-82651601D01*
X161799500Y-86834480D01*
X161779815Y-86901519D01*
X161727011Y-86947274D01*
X161657853Y-86957218D01*
X161594297Y-86928193D01*
X161587819Y-86922161D01*
X161535188Y-86869530D01*
X161389606Y-86781522D01*
X161278472Y-86746892D01*
X161227196Y-86730914D01*
X161227194Y-86730913D01*
X161227192Y-86730913D01*
X161177778Y-86726423D01*
X161156616Y-86724500D01*
X160643384Y-86724500D01*
X160624145Y-86726248D01*
X160572807Y-86730913D01*
X160410393Y-86781522D01*
X160264811Y-86869530D01*
X160264810Y-86869531D01*
X160152424Y-86981918D01*
X160091101Y-87015403D01*
X160088936Y-87015854D01*
X160016506Y-87030261D01*
X160016500Y-87030263D01*
X159870827Y-87090602D01*
X159870814Y-87090609D01*
X159739711Y-87178210D01*
X159739707Y-87178213D01*
X159628213Y-87289707D01*
X159628210Y-87289711D01*
X159540609Y-87420814D01*
X159540602Y-87420827D01*
X159480264Y-87566498D01*
X159480261Y-87566510D01*
X159449500Y-87721153D01*
X159449500Y-87878846D01*
X159480261Y-88033489D01*
X159480264Y-88033501D01*
X159540602Y-88179172D01*
X159540609Y-88179185D01*
X159628210Y-88310288D01*
X159628213Y-88310292D01*
X159739707Y-88421786D01*
X159739711Y-88421789D01*
X159870814Y-88509390D01*
X159870827Y-88509397D01*
X159991274Y-88559287D01*
X160016503Y-88569737D01*
X160137455Y-88593796D01*
X160171153Y-88600499D01*
X160171156Y-88600500D01*
X160171158Y-88600500D01*
X160328844Y-88600500D01*
X160332366Y-88600153D01*
X160334196Y-88600500D01*
X160334934Y-88600500D01*
X160334934Y-88600639D01*
X160401013Y-88613169D01*
X160408653Y-88617425D01*
X160410394Y-88618478D01*
X160572804Y-88669086D01*
X160643384Y-88675500D01*
X160643387Y-88675500D01*
X161156613Y-88675500D01*
X161156616Y-88675500D01*
X161227196Y-88669086D01*
X161389606Y-88618478D01*
X161535185Y-88530472D01*
X161558111Y-88507546D01*
X161587819Y-88477839D01*
X161649142Y-88444354D01*
X161718834Y-88449338D01*
X161774767Y-88491210D01*
X161799184Y-88556674D01*
X161799500Y-88565520D01*
X161799500Y-89387769D01*
X161779815Y-89454808D01*
X161763181Y-89475450D01*
X160850449Y-90388181D01*
X160789126Y-90421666D01*
X160762769Y-90424500D01*
X160626663Y-90424500D01*
X160626644Y-90424501D01*
X160527292Y-90434650D01*
X160527289Y-90434651D01*
X160366305Y-90487996D01*
X160366294Y-90488001D01*
X160221959Y-90577029D01*
X160169480Y-90629507D01*
X160108156Y-90662991D01*
X160105993Y-90663441D01*
X160031090Y-90678340D01*
X160031088Y-90678341D01*
X159894503Y-90734917D01*
X159894493Y-90734922D01*
X159887092Y-90739867D01*
X159865666Y-90751319D01*
X159770819Y-90790606D01*
X159770818Y-90790607D01*
X159639715Y-90878207D01*
X159639707Y-90878213D01*
X159528213Y-90989707D01*
X159528210Y-90989711D01*
X159440609Y-91120814D01*
X159440602Y-91120827D01*
X159380264Y-91266498D01*
X159380261Y-91266510D01*
X159349500Y-91421153D01*
X159349500Y-91578846D01*
X159380261Y-91733489D01*
X159380264Y-91733501D01*
X159440602Y-91879172D01*
X159440609Y-91879185D01*
X159528210Y-92010288D01*
X159528213Y-92010292D01*
X159639707Y-92121786D01*
X159639711Y-92121789D01*
X159770814Y-92209390D01*
X159770827Y-92209397D01*
X159916498Y-92269735D01*
X159916503Y-92269737D01*
X160029120Y-92292138D01*
X160071153Y-92300499D01*
X160071156Y-92300500D01*
X160071158Y-92300500D01*
X160228840Y-92300500D01*
X160228842Y-92300500D01*
X160270876Y-92292138D01*
X160340464Y-92298364D01*
X160360167Y-92308218D01*
X160365563Y-92311547D01*
X160366303Y-92312003D01*
X160527292Y-92365349D01*
X160626655Y-92375500D01*
X161173344Y-92375499D01*
X161173352Y-92375498D01*
X161173355Y-92375498D01*
X161227760Y-92369940D01*
X161272708Y-92365349D01*
X161433697Y-92312003D01*
X161578044Y-92222968D01*
X161587668Y-92213343D01*
X161648987Y-92179856D01*
X161718679Y-92184835D01*
X161763034Y-92213339D01*
X161772267Y-92222572D01*
X161772271Y-92222575D01*
X161916507Y-92311542D01*
X161916518Y-92311547D01*
X162077393Y-92364855D01*
X162176683Y-92374999D01*
X162700000Y-92374999D01*
X162723308Y-92374999D01*
X162723322Y-92374998D01*
X162822607Y-92364855D01*
X162983481Y-92311547D01*
X162983492Y-92311542D01*
X163127728Y-92222575D01*
X163127732Y-92222572D01*
X163247572Y-92102732D01*
X163247575Y-92102728D01*
X163336542Y-91958492D01*
X163336547Y-91958481D01*
X163389855Y-91797606D01*
X163399999Y-91698322D01*
X163400000Y-91698309D01*
X163400000Y-91650000D01*
X162700000Y-91650000D01*
X162700000Y-92374999D01*
X162176683Y-92374999D01*
X162200000Y-92374998D01*
X162200000Y-91524000D01*
X162219685Y-91456961D01*
X162272489Y-91411206D01*
X162324000Y-91400000D01*
X162450000Y-91400000D01*
X162450000Y-91274000D01*
X162469685Y-91206961D01*
X162522489Y-91161206D01*
X162574000Y-91150000D01*
X163399999Y-91150000D01*
X163399999Y-91101692D01*
X163399998Y-91101677D01*
X163389855Y-91002392D01*
X163336547Y-90841518D01*
X163336542Y-90841507D01*
X163247575Y-90697271D01*
X163247572Y-90697267D01*
X163127732Y-90577427D01*
X163127728Y-90577424D01*
X163048571Y-90528599D01*
X163001846Y-90476651D01*
X162990625Y-90407689D01*
X163018468Y-90343607D01*
X163025976Y-90335390D01*
X163132951Y-90228416D01*
X163215084Y-90105495D01*
X163271658Y-89968913D01*
X163279084Y-89931582D01*
X169100001Y-89931582D01*
X169106408Y-90002102D01*
X169106409Y-90002107D01*
X169156981Y-90164396D01*
X169244927Y-90309877D01*
X169365122Y-90430072D01*
X169510604Y-90518019D01*
X169510603Y-90518019D01*
X169672894Y-90568590D01*
X169672893Y-90568590D01*
X169743408Y-90574998D01*
X169743426Y-90574999D01*
X169749999Y-90574998D01*
X169750000Y-90574998D01*
X169750000Y-89850000D01*
X169100001Y-89850000D01*
X169100001Y-89931582D01*
X163279084Y-89931582D01*
X163298595Y-89833497D01*
X163300500Y-89823920D01*
X163300500Y-88452977D01*
X163305032Y-88436720D01*
X163304610Y-88421315D01*
X163318387Y-88388821D01*
X163319280Y-88387344D01*
X163370811Y-88340159D01*
X163425393Y-88327500D01*
X169174607Y-88327500D01*
X169241646Y-88347185D01*
X169280723Y-88387349D01*
X169294528Y-88410185D01*
X169294531Y-88410189D01*
X169414810Y-88530468D01*
X169420715Y-88535094D01*
X169419466Y-88536688D01*
X169459669Y-88580584D01*
X169471511Y-88649443D01*
X169444245Y-88713773D01*
X169412485Y-88741295D01*
X169365125Y-88769925D01*
X169365121Y-88769928D01*
X169244927Y-88890122D01*
X169156980Y-89035604D01*
X169106409Y-89197893D01*
X169100000Y-89268427D01*
X169100000Y-89350000D01*
X169876000Y-89350000D01*
X169943039Y-89369685D01*
X169988794Y-89422489D01*
X170000000Y-89474000D01*
X170000000Y-89600000D01*
X170126000Y-89600000D01*
X170193039Y-89619685D01*
X170238794Y-89672489D01*
X170250000Y-89724000D01*
X170250000Y-90574999D01*
X170256581Y-90574999D01*
X170327102Y-90568591D01*
X170327107Y-90568590D01*
X170489396Y-90518018D01*
X170634877Y-90430072D01*
X170634878Y-90430071D01*
X170736963Y-90327985D01*
X170798286Y-90294499D01*
X170867977Y-90299483D01*
X170912326Y-90327984D01*
X171014811Y-90430469D01*
X171014813Y-90430470D01*
X171014815Y-90430472D01*
X171160394Y-90518478D01*
X171322804Y-90569086D01*
X171393384Y-90575500D01*
X171393387Y-90575500D01*
X171906613Y-90575500D01*
X171906616Y-90575500D01*
X171977196Y-90569086D01*
X172139606Y-90518478D01*
X172285185Y-90430472D01*
X172285188Y-90430469D01*
X172291094Y-90425843D01*
X172291870Y-90426834D01*
X172346472Y-90397013D01*
X172348651Y-90396560D01*
X172392160Y-90387905D01*
X172483497Y-90369737D01*
X172596166Y-90323067D01*
X172629172Y-90309397D01*
X172629172Y-90309396D01*
X172629179Y-90309394D01*
X172760289Y-90221789D01*
X172871789Y-90110289D01*
X172959394Y-89979179D01*
X173019737Y-89833497D01*
X173050500Y-89678842D01*
X173050500Y-89521158D01*
X173050500Y-89521155D01*
X173050499Y-89521153D01*
X173041120Y-89474000D01*
X173019737Y-89366503D01*
X172979095Y-89268384D01*
X172959397Y-89220827D01*
X172959390Y-89220814D01*
X172871789Y-89089711D01*
X172871786Y-89089707D01*
X172760292Y-88978213D01*
X172760288Y-88978210D01*
X172629185Y-88890609D01*
X172629172Y-88890602D01*
X172483501Y-88830264D01*
X172483491Y-88830261D01*
X172348650Y-88803439D01*
X172335950Y-88797494D01*
X172325277Y-88796336D01*
X172306159Y-88783548D01*
X172294941Y-88778297D01*
X172289814Y-88774157D01*
X172285185Y-88769528D01*
X172280793Y-88766873D01*
X172274248Y-88761588D01*
X172258952Y-88739512D01*
X172240815Y-88719709D01*
X172239356Y-88711230D01*
X172234456Y-88704157D01*
X172233523Y-88677315D01*
X172228972Y-88650850D01*
X172232329Y-88642927D01*
X172232031Y-88634329D01*
X172245757Y-88611245D01*
X172256237Y-88586520D01*
X172264950Y-88578969D01*
X172267742Y-88574275D01*
X172273938Y-88571180D01*
X172287998Y-88558997D01*
X172335185Y-88530472D01*
X172335186Y-88530470D01*
X172335189Y-88530469D01*
X172339765Y-88526885D01*
X172404678Y-88501039D01*
X172416232Y-88500500D01*
X172428844Y-88500500D01*
X172428845Y-88500499D01*
X172583497Y-88469737D01*
X172727260Y-88410189D01*
X172729172Y-88409397D01*
X172729172Y-88409396D01*
X172729179Y-88409394D01*
X172860289Y-88321789D01*
X172971789Y-88210289D01*
X173059394Y-88079179D01*
X173119737Y-87933497D01*
X173150500Y-87778842D01*
X173150500Y-87621158D01*
X173150500Y-87621155D01*
X173150499Y-87621153D01*
X173119738Y-87466510D01*
X173119737Y-87466503D01*
X173100812Y-87420814D01*
X173059397Y-87320827D01*
X173059390Y-87320814D01*
X172971789Y-87189711D01*
X172971786Y-87189707D01*
X172860292Y-87078213D01*
X172860288Y-87078210D01*
X172729185Y-86990609D01*
X172729172Y-86990602D01*
X172583501Y-86930264D01*
X172583489Y-86930261D01*
X172428845Y-86899500D01*
X172428842Y-86899500D01*
X172416232Y-86899500D01*
X172399999Y-86894980D01*
X172384650Y-86895411D01*
X172363097Y-86884705D01*
X172352147Y-86881656D01*
X172339949Y-86874292D01*
X172335185Y-86869528D01*
X172189606Y-86781522D01*
X172182724Y-86779377D01*
X172170129Y-86771774D01*
X172151356Y-86751300D01*
X172130265Y-86733224D01*
X172128072Y-86725905D01*
X172122910Y-86720275D01*
X172118186Y-86692901D01*
X172110216Y-86666293D01*
X172112328Y-86658951D01*
X172111029Y-86651423D01*
X172121854Y-86625843D01*
X172129535Y-86599147D01*
X172135282Y-86594112D01*
X172138259Y-86587078D01*
X172161197Y-86571409D01*
X172182090Y-86553106D01*
X172195640Y-86547881D01*
X172195953Y-86547668D01*
X172196213Y-86547660D01*
X172197306Y-86547239D01*
X172289606Y-86518478D01*
X172435185Y-86430472D01*
X172435189Y-86430467D01*
X172435192Y-86430466D01*
X172439765Y-86426885D01*
X172504678Y-86401039D01*
X172516232Y-86400500D01*
X172528844Y-86400500D01*
X172528845Y-86400499D01*
X172683497Y-86369737D01*
X172827262Y-86310188D01*
X172829172Y-86309397D01*
X172829172Y-86309396D01*
X172829179Y-86309394D01*
X172960289Y-86221789D01*
X173071789Y-86110289D01*
X173159394Y-85979179D01*
X173219737Y-85833497D01*
X173250500Y-85678842D01*
X173250500Y-85521158D01*
X173250500Y-85521155D01*
X173250499Y-85521153D01*
X173236346Y-85450000D01*
X173219737Y-85366503D01*
X173212694Y-85349500D01*
X173159397Y-85220827D01*
X173159390Y-85220814D01*
X173071789Y-85089711D01*
X173071786Y-85089707D01*
X172960292Y-84978213D01*
X172960288Y-84978210D01*
X172829185Y-84890609D01*
X172829172Y-84890602D01*
X172683501Y-84830264D01*
X172683491Y-84830261D01*
X172527308Y-84799194D01*
X172499177Y-84784479D01*
X172470297Y-84771290D01*
X172468440Y-84768400D01*
X172465397Y-84766809D01*
X172449684Y-84739216D01*
X172432523Y-84712512D01*
X172431862Y-84707918D01*
X172430823Y-84706093D01*
X172427500Y-84677577D01*
X172427500Y-84570194D01*
X172436939Y-84522741D01*
X172448625Y-84494528D01*
X172453386Y-84483035D01*
X172477500Y-84361804D01*
X172477500Y-84238197D01*
X172466989Y-84185354D01*
X172466989Y-84185351D01*
X172453387Y-84116972D01*
X172453386Y-84116965D01*
X172406083Y-84002767D01*
X172406081Y-84002764D01*
X172406079Y-84002760D01*
X172337412Y-83899993D01*
X172296288Y-83858869D01*
X172250008Y-83812589D01*
X171815701Y-83378282D01*
X171250011Y-82812591D01*
X171250010Y-82812590D01*
X171216274Y-82790049D01*
X171175788Y-82762997D01*
X171147233Y-82743917D01*
X171113784Y-82730062D01*
X171108268Y-82727777D01*
X171108266Y-82727776D01*
X171033035Y-82696614D01*
X171033027Y-82696612D01*
X170911807Y-82672500D01*
X170911803Y-82672500D01*
X166801500Y-82672500D01*
X166734461Y-82652815D01*
X166688706Y-82600011D01*
X166677500Y-82548500D01*
X166677500Y-81164499D01*
X166697185Y-81097460D01*
X166749989Y-81051705D01*
X166801500Y-81040499D01*
X167297871Y-81040499D01*
X167297872Y-81040499D01*
X167357483Y-81034091D01*
X167492331Y-80983796D01*
X167607546Y-80897546D01*
X167693796Y-80782331D01*
X167744091Y-80647483D01*
X167750500Y-80587873D01*
X167750499Y-79752128D01*
X167744091Y-79692517D01*
X167701235Y-79577616D01*
X167696252Y-79507927D01*
X167701236Y-79490951D01*
X167743597Y-79377376D01*
X167743598Y-79377372D01*
X167749999Y-79317844D01*
X167750000Y-79317827D01*
X167750000Y-79150000D01*
X164350000Y-79150000D01*
X164350000Y-79317844D01*
X164356401Y-79377372D01*
X164356403Y-79377379D01*
X164398763Y-79490952D01*
X164403747Y-79560644D01*
X164398763Y-79577618D01*
X164355908Y-79692517D01*
X164349501Y-79752116D01*
X164349501Y-79752123D01*
X164349500Y-79752135D01*
X164349500Y-80587870D01*
X164349501Y-80587876D01*
X164355908Y-80647483D01*
X164406202Y-80782328D01*
X164406206Y-80782335D01*
X164492452Y-80897544D01*
X164492455Y-80897547D01*
X164607664Y-80983793D01*
X164607671Y-80983797D01*
X164649774Y-80999500D01*
X164742517Y-81034091D01*
X164802127Y-81040500D01*
X165298500Y-81040499D01*
X165365539Y-81060183D01*
X165411294Y-81112987D01*
X165422500Y-81164499D01*
X165422500Y-82961807D01*
X165446612Y-83083028D01*
X165446613Y-83083032D01*
X165446614Y-83083035D01*
X165460669Y-83116965D01*
X165493917Y-83197233D01*
X165529509Y-83250500D01*
X165533336Y-83256227D01*
X165562587Y-83300006D01*
X165562591Y-83300011D01*
X166049988Y-83787408D01*
X166049992Y-83787411D01*
X166152760Y-83856079D01*
X166152773Y-83856086D01*
X166258776Y-83899993D01*
X166266965Y-83903385D01*
X166266969Y-83903385D01*
X166266970Y-83903386D01*
X166388193Y-83927500D01*
X166388196Y-83927500D01*
X166388197Y-83927500D01*
X170538719Y-83927500D01*
X170605758Y-83947185D01*
X170626400Y-83963819D01*
X171136181Y-84473600D01*
X171150884Y-84500527D01*
X171167477Y-84526346D01*
X171168368Y-84532546D01*
X171169666Y-84534923D01*
X171172500Y-84561281D01*
X171172500Y-84710480D01*
X171152815Y-84777519D01*
X171136181Y-84798161D01*
X171062681Y-84871661D01*
X171001358Y-84905146D01*
X170931666Y-84900162D01*
X170887319Y-84871661D01*
X170785188Y-84769530D01*
X170777499Y-84764882D01*
X170639606Y-84681522D01*
X170477196Y-84630914D01*
X170477194Y-84630913D01*
X170477192Y-84630913D01*
X170427778Y-84626423D01*
X170406616Y-84624500D01*
X169893384Y-84624500D01*
X169874145Y-84626248D01*
X169822807Y-84630913D01*
X169660393Y-84681522D01*
X169514811Y-84769530D01*
X169394530Y-84889811D01*
X169306522Y-85035393D01*
X169255913Y-85197807D01*
X169249500Y-85268386D01*
X169249500Y-85931613D01*
X169255913Y-86002192D01*
X169255913Y-86002194D01*
X169255914Y-86002196D01*
X169306522Y-86164606D01*
X169394047Y-86309390D01*
X169394530Y-86310188D01*
X169486181Y-86401839D01*
X169500884Y-86428766D01*
X169517477Y-86454585D01*
X169518368Y-86460785D01*
X169519666Y-86463162D01*
X169522500Y-86489520D01*
X169522500Y-86734493D01*
X169502815Y-86801532D01*
X169462652Y-86840609D01*
X169414811Y-86869530D01*
X169294531Y-86989810D01*
X169294528Y-86989814D01*
X169280723Y-87012651D01*
X169229195Y-87059838D01*
X169174607Y-87072500D01*
X163425393Y-87072500D01*
X163415055Y-87069464D01*
X163404353Y-87070702D01*
X163382115Y-87059792D01*
X163358354Y-87052815D01*
X163349645Y-87043862D01*
X163341626Y-87039928D01*
X163319261Y-87012625D01*
X163318368Y-87011147D01*
X163300500Y-86947022D01*
X163300500Y-81826081D01*
X163300499Y-81826080D01*
X163290124Y-81773918D01*
X163271659Y-81681088D01*
X163256606Y-81644749D01*
X163254430Y-81636309D01*
X163254748Y-81626699D01*
X163250500Y-81605340D01*
X163250500Y-81368386D01*
X163246178Y-81320827D01*
X163244086Y-81297804D01*
X163193478Y-81135394D01*
X163118382Y-81011171D01*
X163100500Y-80947023D01*
X163100500Y-79714609D01*
X163120185Y-79647570D01*
X163125228Y-79640640D01*
X163127136Y-79637783D01*
X163127139Y-79637781D01*
X163236631Y-79473914D01*
X163312051Y-79291836D01*
X163350500Y-79098540D01*
X163350500Y-78901460D01*
X163350500Y-78901457D01*
X163350499Y-78901455D01*
X163312052Y-78708171D01*
X163312051Y-78708164D01*
X163256293Y-78573554D01*
X163247346Y-78551953D01*
X163239877Y-78482483D01*
X163271152Y-78420004D01*
X163331241Y-78384352D01*
X163361907Y-78380500D01*
X164226000Y-78380500D01*
X164293039Y-78400185D01*
X164338794Y-78452989D01*
X164350000Y-78504500D01*
X164350000Y-78650000D01*
X167750000Y-78650000D01*
X167765109Y-78634890D01*
X167769685Y-78619309D01*
X167822489Y-78573554D01*
X167891647Y-78563610D01*
X167910434Y-78568766D01*
X167910676Y-78567969D01*
X167916492Y-78569732D01*
X167916503Y-78569737D01*
X168050496Y-78596390D01*
X168071153Y-78600499D01*
X168071156Y-78600500D01*
X168125500Y-78600500D01*
X168192539Y-78620185D01*
X168238294Y-78672989D01*
X168249500Y-78724500D01*
X168249500Y-79317870D01*
X168249501Y-79317876D01*
X168255908Y-79377483D01*
X168298496Y-79491667D01*
X168303480Y-79561359D01*
X168298496Y-79578333D01*
X168255908Y-79692516D01*
X168249501Y-79752116D01*
X168249501Y-79752123D01*
X168249500Y-79752135D01*
X168249500Y-80587870D01*
X168249501Y-80587876D01*
X168255908Y-80647483D01*
X168306202Y-80782328D01*
X168306206Y-80782335D01*
X168392452Y-80897544D01*
X168392455Y-80897547D01*
X168507664Y-80983793D01*
X168507671Y-80983797D01*
X168642517Y-81034091D01*
X168642516Y-81034091D01*
X168649444Y-81034835D01*
X168702127Y-81040500D01*
X171197872Y-81040499D01*
X171257483Y-81034091D01*
X171392331Y-80983796D01*
X171507546Y-80897546D01*
X171507546Y-80897545D01*
X171514646Y-80892231D01*
X171516767Y-80895065D01*
X171563185Y-80869674D01*
X171613825Y-80869204D01*
X171616501Y-80869736D01*
X171616503Y-80869737D01*
X171667508Y-80879882D01*
X171771155Y-80900500D01*
X171771158Y-80900500D01*
X171928844Y-80900500D01*
X171928845Y-80900499D01*
X172083497Y-80869737D01*
X172229179Y-80809394D01*
X172360289Y-80721789D01*
X172471789Y-80610289D01*
X172559394Y-80479179D01*
X172560853Y-80475658D01*
X172584020Y-80419725D01*
X172619737Y-80333497D01*
X172650500Y-80178842D01*
X172650500Y-80021158D01*
X172650500Y-80021155D01*
X172650499Y-80021153D01*
X172637912Y-79957876D01*
X172619737Y-79866503D01*
X172600199Y-79819334D01*
X172559397Y-79720827D01*
X172559390Y-79720814D01*
X172496514Y-79626714D01*
X172475636Y-79560037D01*
X172494120Y-79492656D01*
X172511928Y-79470149D01*
X172571789Y-79410289D01*
X172659394Y-79279179D01*
X172719737Y-79133497D01*
X172750500Y-78978842D01*
X172750500Y-78821158D01*
X172750500Y-78821155D01*
X172750499Y-78821153D01*
X172728024Y-78708164D01*
X172719737Y-78666503D01*
X172692398Y-78600500D01*
X172659397Y-78520827D01*
X172659390Y-78520814D01*
X172571789Y-78389711D01*
X172571786Y-78389707D01*
X172460292Y-78278213D01*
X172460288Y-78278210D01*
X172329185Y-78190609D01*
X172329172Y-78190602D01*
X172183501Y-78130264D01*
X172183489Y-78130261D01*
X172028845Y-78099500D01*
X172028842Y-78099500D01*
X171871158Y-78099500D01*
X171871153Y-78099500D01*
X171798690Y-78113914D01*
X171729098Y-78107687D01*
X171673921Y-78064824D01*
X171650677Y-77998934D01*
X171650499Y-77992331D01*
X171650499Y-77212128D01*
X171644091Y-77152517D01*
X171620664Y-77089707D01*
X171593797Y-77017671D01*
X171593793Y-77017664D01*
X171507547Y-76902455D01*
X171507544Y-76902452D01*
X171392335Y-76816206D01*
X171392328Y-76816202D01*
X171257482Y-76765908D01*
X171257483Y-76765908D01*
X171197883Y-76759501D01*
X171197881Y-76759500D01*
X171197873Y-76759500D01*
X171197864Y-76759500D01*
X168702129Y-76759500D01*
X168702123Y-76759501D01*
X168642516Y-76765908D01*
X168507671Y-76816202D01*
X168507669Y-76816204D01*
X168392456Y-76902452D01*
X168392453Y-76902454D01*
X168354840Y-76952699D01*
X168298906Y-76994570D01*
X168234940Y-76999721D01*
X168234904Y-77000097D01*
X168232823Y-76999892D01*
X168231398Y-77000007D01*
X168228852Y-76999501D01*
X168228842Y-76999500D01*
X168071158Y-76999500D01*
X168071155Y-76999500D01*
X167916510Y-77030261D01*
X167916503Y-77030263D01*
X167842696Y-77060834D01*
X167773227Y-77068301D01*
X167710748Y-77037026D01*
X167695979Y-77020584D01*
X167609561Y-76905146D01*
X167607546Y-76902454D01*
X167607544Y-76902453D01*
X167607544Y-76902452D01*
X167492335Y-76816206D01*
X167492328Y-76816202D01*
X167357482Y-76765908D01*
X167357483Y-76765908D01*
X167297883Y-76759501D01*
X167297881Y-76759500D01*
X167297873Y-76759500D01*
X167297864Y-76759500D01*
X164802129Y-76759500D01*
X164802123Y-76759501D01*
X164742516Y-76765908D01*
X164607671Y-76816202D01*
X164607668Y-76816204D01*
X164588887Y-76830264D01*
X164556156Y-76854766D01*
X164490694Y-76879184D01*
X164481846Y-76879500D01*
X163146519Y-76879500D01*
X163079480Y-76859815D01*
X163058842Y-76843185D01*
X162985185Y-76769528D01*
X162839606Y-76681522D01*
X162677196Y-76630914D01*
X162677194Y-76630913D01*
X162677192Y-76630913D01*
X162627778Y-76626423D01*
X162606616Y-76624500D01*
X162093384Y-76624500D01*
X162074145Y-76626248D01*
X162022807Y-76630913D01*
X161860393Y-76681522D01*
X161714811Y-76769530D01*
X161714810Y-76769531D01*
X161612681Y-76871661D01*
X161551358Y-76905146D01*
X161481666Y-76900162D01*
X161437319Y-76871661D01*
X161335188Y-76769530D01*
X161318596Y-76759500D01*
X161189606Y-76681522D01*
X161027196Y-76630914D01*
X161027194Y-76630913D01*
X161027192Y-76630913D01*
X160977778Y-76626423D01*
X160956616Y-76624500D01*
X160443384Y-76624500D01*
X160424145Y-76626248D01*
X160372807Y-76630913D01*
X160210393Y-76681522D01*
X160064807Y-76769533D01*
X160060235Y-76773115D01*
X159995322Y-76798961D01*
X159983768Y-76799500D01*
X159971155Y-76799500D01*
X159816510Y-76830261D01*
X159816498Y-76830264D01*
X159670827Y-76890602D01*
X159670814Y-76890609D01*
X159539711Y-76978210D01*
X159539707Y-76978213D01*
X159428213Y-77089707D01*
X159428210Y-77089711D01*
X159340609Y-77220814D01*
X159340602Y-77220827D01*
X159280264Y-77366498D01*
X159280261Y-77366510D01*
X159249500Y-77521153D01*
X159249500Y-77678846D01*
X159280261Y-77833489D01*
X159280264Y-77833501D01*
X159302858Y-77888048D01*
X159310327Y-77957518D01*
X159279051Y-78019997D01*
X159218962Y-78055648D01*
X159188297Y-78059500D01*
X156864141Y-78059500D01*
X156797102Y-78039815D01*
X156751347Y-77987011D01*
X156747969Y-77978859D01*
X156743796Y-77967669D01*
X156743793Y-77967665D01*
X156743793Y-77967664D01*
X156657547Y-77852455D01*
X156657544Y-77852452D01*
X156542335Y-77766206D01*
X156542328Y-77766202D01*
X156407482Y-77715908D01*
X156407483Y-77715908D01*
X156347883Y-77709501D01*
X156347881Y-77709500D01*
X156347873Y-77709500D01*
X156347864Y-77709500D01*
X154552129Y-77709500D01*
X154552123Y-77709501D01*
X154492516Y-77715908D01*
X154357671Y-77766202D01*
X154357664Y-77766206D01*
X154242455Y-77852452D01*
X154242452Y-77852455D01*
X154156206Y-77967664D01*
X154156202Y-77967671D01*
X154105908Y-78102517D01*
X154099501Y-78162116D01*
X154099500Y-78162135D01*
X153141737Y-78162135D01*
X153139091Y-78137517D01*
X153136385Y-78130263D01*
X153088797Y-78002671D01*
X153088793Y-78002664D01*
X153002547Y-77887455D01*
X153002544Y-77887452D01*
X152887335Y-77801206D01*
X152887328Y-77801202D01*
X152752482Y-77750908D01*
X152752483Y-77750908D01*
X152692883Y-77744501D01*
X152692881Y-77744500D01*
X152692873Y-77744500D01*
X152692864Y-77744500D01*
X150897129Y-77744500D01*
X150897123Y-77744501D01*
X150837516Y-77750908D01*
X150702671Y-77801202D01*
X150702664Y-77801206D01*
X150587455Y-77887452D01*
X150587452Y-77887455D01*
X150501206Y-78002664D01*
X150501204Y-78002668D01*
X150501204Y-78002669D01*
X150497039Y-78013834D01*
X150455171Y-78069766D01*
X150389707Y-78094184D01*
X150380859Y-78094500D01*
X148960782Y-78094500D01*
X148893743Y-78074815D01*
X148873101Y-78058181D01*
X148361819Y-77546899D01*
X148328334Y-77485576D01*
X148325500Y-77459218D01*
X148325500Y-76325000D01*
X158175000Y-76325000D01*
X174415000Y-76325000D01*
X174415000Y-69005000D01*
X158175000Y-69005000D01*
X158175000Y-76325000D01*
X148325500Y-76325000D01*
X148325500Y-73906531D01*
X148345185Y-73839492D01*
X148397989Y-73793737D01*
X148467147Y-73783793D01*
X148530703Y-73812818D01*
X148555039Y-73841435D01*
X148577426Y-73877731D01*
X148697267Y-73997572D01*
X148697271Y-73997575D01*
X148841507Y-74086542D01*
X148841518Y-74086547D01*
X149002393Y-74139855D01*
X149101683Y-74149999D01*
X149650000Y-74149999D01*
X149698308Y-74149999D01*
X149698322Y-74149998D01*
X149797607Y-74139855D01*
X149958481Y-74086547D01*
X149958492Y-74086542D01*
X150102728Y-73997575D01*
X150102732Y-73997572D01*
X150222572Y-73877732D01*
X150222575Y-73877728D01*
X150311542Y-73733492D01*
X150311547Y-73733481D01*
X150364855Y-73572606D01*
X150374999Y-73473322D01*
X150375000Y-73473309D01*
X150375000Y-73450000D01*
X149650000Y-73450000D01*
X149650000Y-74149999D01*
X149101683Y-74149999D01*
X149149999Y-74149998D01*
X149150000Y-74149998D01*
X149150000Y-73324000D01*
X149169685Y-73256961D01*
X149222489Y-73211206D01*
X149274000Y-73200000D01*
X149400000Y-73200000D01*
X149400000Y-73074000D01*
X149419685Y-73006961D01*
X149472489Y-72961206D01*
X149524000Y-72950000D01*
X150374999Y-72950000D01*
X150374999Y-72926692D01*
X150374998Y-72926677D01*
X150364855Y-72827392D01*
X150311547Y-72666518D01*
X150311542Y-72666507D01*
X150222575Y-72522271D01*
X150222572Y-72522267D01*
X150213339Y-72513034D01*
X150179854Y-72451711D01*
X150184838Y-72382019D01*
X150213343Y-72337668D01*
X150222968Y-72328044D01*
X150312003Y-72183697D01*
X150365349Y-72022708D01*
X150375500Y-71923345D01*
X150375499Y-71376656D01*
X150365349Y-71277292D01*
X150312003Y-71116303D01*
X150311999Y-71116297D01*
X150311998Y-71116294D01*
X150222970Y-70971959D01*
X150222967Y-70971955D01*
X150103044Y-70852032D01*
X150103040Y-70852029D01*
X149958705Y-70763001D01*
X149958699Y-70762998D01*
X149958697Y-70762997D01*
X149958694Y-70762996D01*
X149797709Y-70709651D01*
X149698346Y-70699500D01*
X149101662Y-70699500D01*
X149101644Y-70699501D01*
X149002292Y-70709650D01*
X149002289Y-70709651D01*
X148841305Y-70762996D01*
X148841296Y-70763000D01*
X148765448Y-70809784D01*
X148698056Y-70828224D01*
X148631392Y-70807301D01*
X148600034Y-70777131D01*
X148589765Y-70762997D01*
X148469517Y-70597490D01*
X148302510Y-70430483D01*
X148111433Y-70291657D01*
X147900996Y-70184433D01*
X147676368Y-70111446D01*
X147443097Y-70074500D01*
X147443092Y-70074500D01*
X147206908Y-70074500D01*
X147206903Y-70074500D01*
X146973631Y-70111446D01*
X146749003Y-70184433D01*
X146538566Y-70291657D01*
X146429550Y-70370862D01*
X146347490Y-70430483D01*
X146347488Y-70430485D01*
X146347487Y-70430485D01*
X146180485Y-70597487D01*
X146180485Y-70597488D01*
X146180483Y-70597490D01*
X146120862Y-70679550D01*
X146041657Y-70788566D01*
X145934433Y-70999003D01*
X145861446Y-71223631D01*
X145824500Y-71456902D01*
X145824500Y-71693097D01*
X145861446Y-71926368D01*
X145934433Y-72150996D01*
X146015356Y-72309814D01*
X146041657Y-72361433D01*
X146180483Y-72552510D01*
X146180485Y-72552512D01*
X146288181Y-72660208D01*
X146321666Y-72721531D01*
X146324500Y-72747889D01*
X146324500Y-78023542D01*
X146338614Y-78094500D01*
X146340605Y-78104507D01*
X146362949Y-78216836D01*
X146376479Y-78249500D01*
X146379875Y-78257699D01*
X146379876Y-78257702D01*
X146438364Y-78398907D01*
X146438371Y-78398920D01*
X146547860Y-78562781D01*
X146547863Y-78562785D01*
X146691537Y-78706459D01*
X146691559Y-78706479D01*
X147714735Y-79729655D01*
X147714764Y-79729686D01*
X147857214Y-79872136D01*
X147857218Y-79872139D01*
X148021079Y-79981628D01*
X148021081Y-79981629D01*
X148021086Y-79981632D01*
X148118667Y-80022051D01*
X148203164Y-80057051D01*
X148287940Y-80073914D01*
X148343177Y-80084901D01*
X148396456Y-80095500D01*
X148396459Y-80095500D01*
X148396460Y-80095500D01*
X148593540Y-80095500D01*
X150380859Y-80095500D01*
X150447898Y-80115185D01*
X150493653Y-80167989D01*
X150497030Y-80176140D01*
X150501204Y-80187331D01*
X150501205Y-80187332D01*
X150501206Y-80187335D01*
X150587452Y-80302544D01*
X150587455Y-80302547D01*
X150702664Y-80388793D01*
X150702671Y-80388797D01*
X150834082Y-80437810D01*
X150890016Y-80479681D01*
X150914433Y-80545145D01*
X150899582Y-80613418D01*
X150878431Y-80641673D01*
X150764889Y-80755215D01*
X150639951Y-80927179D01*
X150543443Y-81116586D01*
X150527348Y-81166120D01*
X150497099Y-81215480D01*
X148819477Y-82893103D01*
X148758154Y-82926588D01*
X148688462Y-82921604D01*
X148644115Y-82893103D01*
X148603044Y-82852032D01*
X148603040Y-82852029D01*
X148458705Y-82763001D01*
X148458699Y-82762998D01*
X148458697Y-82762997D01*
X148449025Y-82759792D01*
X148297709Y-82709651D01*
X148198346Y-82699500D01*
X147601662Y-82699500D01*
X147601644Y-82699501D01*
X147509986Y-82708865D01*
X147441293Y-82696095D01*
X147390409Y-82648214D01*
X147373489Y-82580424D01*
X147373894Y-82574284D01*
X147375500Y-82556616D01*
X147375500Y-82043384D01*
X147369086Y-81972804D01*
X147318478Y-81810394D01*
X147230472Y-81664815D01*
X147230470Y-81664813D01*
X147230469Y-81664811D01*
X147127984Y-81562326D01*
X147094499Y-81501003D01*
X147099483Y-81431311D01*
X147127985Y-81386963D01*
X147230071Y-81284878D01*
X147230072Y-81284877D01*
X147318019Y-81139395D01*
X147368590Y-80977106D01*
X147375000Y-80906572D01*
X147375000Y-80900000D01*
X145425001Y-80900000D01*
X145425001Y-80906582D01*
X145431408Y-80977102D01*
X145431409Y-80977107D01*
X145481981Y-81139396D01*
X145569927Y-81284877D01*
X145672015Y-81386965D01*
X145705500Y-81448288D01*
X145700516Y-81517980D01*
X145672015Y-81562327D01*
X145569531Y-81664810D01*
X145569530Y-81664811D01*
X145481522Y-81810393D01*
X145430913Y-81972807D01*
X145424500Y-82043386D01*
X145424500Y-82128462D01*
X145418130Y-82150152D01*
X145416344Y-82172691D01*
X145408475Y-82183034D01*
X145404815Y-82195501D01*
X145387730Y-82210304D01*
X145374042Y-82228299D01*
X145361831Y-82232746D01*
X145352011Y-82241256D01*
X145329635Y-82244473D01*
X145308392Y-82252211D01*
X145291215Y-82249997D01*
X145282853Y-82251200D01*
X145273208Y-82249421D01*
X145267271Y-82248081D01*
X145227797Y-82235001D01*
X145193991Y-82231547D01*
X145186708Y-82229904D01*
X145162431Y-82216403D01*
X145136703Y-82205905D01*
X145132315Y-82199656D01*
X145125645Y-82195947D01*
X145112519Y-82171462D01*
X145096553Y-82148723D01*
X145094877Y-82138553D01*
X145092634Y-82134368D01*
X145093138Y-82127998D01*
X145090000Y-82108945D01*
X145090000Y-81400000D01*
X143450000Y-81400000D01*
X143450000Y-82197844D01*
X143456401Y-82257372D01*
X143456403Y-82257379D01*
X143506645Y-82392086D01*
X143506647Y-82392088D01*
X143592809Y-82507186D01*
X143592808Y-82507186D01*
X143598709Y-82511603D01*
X143640580Y-82567536D01*
X143645565Y-82637228D01*
X143642105Y-82649875D01*
X143640186Y-82655665D01*
X143640186Y-82655666D01*
X143625197Y-82700900D01*
X143585001Y-82822203D01*
X143585000Y-82822204D01*
X143574500Y-82924983D01*
X143574500Y-84087719D01*
X143554815Y-84154758D01*
X143502011Y-84200513D01*
X143432853Y-84210457D01*
X143369297Y-84181432D01*
X143362819Y-84175400D01*
X143061818Y-83874399D01*
X143028333Y-83813076D01*
X143025499Y-83786718D01*
X143025499Y-82924998D01*
X143025498Y-82924981D01*
X143014999Y-82822203D01*
X143014998Y-82822200D01*
X142999057Y-82774094D01*
X142959814Y-82655666D01*
X142867712Y-82506344D01*
X142743656Y-82382288D01*
X142743655Y-82382287D01*
X142622923Y-82307820D01*
X142609402Y-82299480D01*
X142562678Y-82247533D01*
X142550499Y-82193946D01*
X142550499Y-80102155D01*
X143450000Y-80102155D01*
X143450000Y-80900000D01*
X144020000Y-80900000D01*
X144520000Y-80900000D01*
X145090000Y-80900000D01*
X145090000Y-80393427D01*
X145425000Y-80393427D01*
X145425000Y-80400000D01*
X146150000Y-80400000D01*
X146650000Y-80400000D01*
X147374999Y-80400000D01*
X147374999Y-80393417D01*
X147368591Y-80322897D01*
X147368590Y-80322892D01*
X147318018Y-80160603D01*
X147230072Y-80015122D01*
X147109877Y-79894927D01*
X146964395Y-79806980D01*
X146964396Y-79806980D01*
X146802105Y-79756409D01*
X146802106Y-79756409D01*
X146731572Y-79750000D01*
X146650000Y-79750000D01*
X146650000Y-80400000D01*
X146150000Y-80400000D01*
X146150000Y-79750000D01*
X146149999Y-79749999D01*
X146068417Y-79750000D01*
X145997897Y-79756408D01*
X145997892Y-79756409D01*
X145835603Y-79806981D01*
X145690122Y-79894927D01*
X145569927Y-80015122D01*
X145481980Y-80160604D01*
X145431409Y-80322893D01*
X145425000Y-80393427D01*
X145090000Y-80393427D01*
X145090000Y-80102172D01*
X145089999Y-80102155D01*
X145083598Y-80042627D01*
X145083596Y-80042620D01*
X145033354Y-79907913D01*
X145033350Y-79907906D01*
X144947190Y-79792812D01*
X144947187Y-79792809D01*
X144832093Y-79706649D01*
X144832086Y-79706645D01*
X144697379Y-79656403D01*
X144697372Y-79656401D01*
X144637844Y-79650000D01*
X144520000Y-79650000D01*
X144520000Y-80900000D01*
X144020000Y-80900000D01*
X144020000Y-79650000D01*
X143902155Y-79650000D01*
X143842627Y-79656401D01*
X143842620Y-79656403D01*
X143707913Y-79706645D01*
X143707906Y-79706649D01*
X143592812Y-79792809D01*
X143592809Y-79792812D01*
X143506649Y-79907906D01*
X143506645Y-79907913D01*
X143456403Y-80042620D01*
X143456401Y-80042627D01*
X143450000Y-80102155D01*
X142550499Y-80102155D01*
X142550499Y-80102128D01*
X142544091Y-80042517D01*
X142536123Y-80021155D01*
X142493797Y-79907671D01*
X142493793Y-79907664D01*
X142407547Y-79792455D01*
X142407544Y-79792452D01*
X142292335Y-79706206D01*
X142292328Y-79706202D01*
X142157486Y-79655910D01*
X142157485Y-79655909D01*
X142157483Y-79655909D01*
X142097873Y-79649500D01*
X142097863Y-79649500D01*
X141362129Y-79649500D01*
X141362123Y-79649501D01*
X141302516Y-79655908D01*
X141167671Y-79706202D01*
X141167664Y-79706206D01*
X141052455Y-79792452D01*
X141052452Y-79792455D01*
X140966206Y-79907664D01*
X140966202Y-79907671D01*
X140915908Y-80042517D01*
X140909501Y-80102116D01*
X140909501Y-80102123D01*
X140909500Y-80102135D01*
X140909500Y-82197870D01*
X140909501Y-82197876D01*
X140915908Y-82257483D01*
X140960114Y-82376003D01*
X140965098Y-82445695D01*
X140935591Y-82499738D01*
X140936772Y-82500672D01*
X140932293Y-82506336D01*
X140840187Y-82655663D01*
X140840185Y-82655668D01*
X140822297Y-82709651D01*
X140785001Y-82822203D01*
X140785001Y-82822204D01*
X140785000Y-82822204D01*
X140774500Y-82924983D01*
X137900500Y-82924983D01*
X137900500Y-76180116D01*
X137920185Y-76113077D01*
X137972989Y-76067322D01*
X138042147Y-76057378D01*
X138063488Y-76062406D01*
X138222203Y-76114999D01*
X138324991Y-76125500D01*
X139675008Y-76125499D01*
X139777797Y-76114999D01*
X139944334Y-76059814D01*
X140093656Y-75967712D01*
X140217712Y-75843656D01*
X140309814Y-75694334D01*
X140353501Y-75562496D01*
X140393274Y-75505051D01*
X140457790Y-75478228D01*
X140471207Y-75477500D01*
X140785501Y-75477500D01*
X140852540Y-75497185D01*
X140898295Y-75549989D01*
X140909501Y-75601500D01*
X140909501Y-75897876D01*
X140915908Y-75957483D01*
X140966202Y-76092328D01*
X140966206Y-76092335D01*
X141052452Y-76207544D01*
X141052455Y-76207547D01*
X141167664Y-76293793D01*
X141167671Y-76293797D01*
X141212618Y-76310561D01*
X141302517Y-76344091D01*
X141362127Y-76350500D01*
X142097872Y-76350499D01*
X142157483Y-76344091D01*
X142292331Y-76293796D01*
X142407546Y-76207546D01*
X142493796Y-76092331D01*
X142544091Y-75957483D01*
X142550500Y-75897873D01*
X142550499Y-73802128D01*
X142544091Y-73742517D01*
X142493796Y-73607669D01*
X142493795Y-73607668D01*
X142493793Y-73607664D01*
X142407547Y-73492455D01*
X142407544Y-73492452D01*
X142292335Y-73406206D01*
X142292328Y-73406202D01*
X142157486Y-73355910D01*
X142157485Y-73355909D01*
X142157483Y-73355909D01*
X142097873Y-73349500D01*
X142097863Y-73349500D01*
X141362129Y-73349500D01*
X141362123Y-73349501D01*
X141302516Y-73355908D01*
X141167671Y-73406202D01*
X141167664Y-73406206D01*
X141052455Y-73492452D01*
X141052452Y-73492455D01*
X140966206Y-73607664D01*
X140966202Y-73607671D01*
X140915908Y-73742517D01*
X140911633Y-73782288D01*
X140909501Y-73802123D01*
X140909500Y-73802135D01*
X140909500Y-74098500D01*
X140889815Y-74165539D01*
X140837011Y-74211294D01*
X140785500Y-74222500D01*
X140327724Y-74222500D01*
X140260685Y-74202815D01*
X140222187Y-74163599D01*
X140217712Y-74156344D01*
X140093657Y-74032289D01*
X140093656Y-74032288D01*
X139944334Y-73940186D01*
X139777797Y-73885001D01*
X139777795Y-73885000D01*
X139675010Y-73874500D01*
X138324998Y-73874500D01*
X138324981Y-73874501D01*
X138222203Y-73885000D01*
X138222200Y-73885001D01*
X138096489Y-73926658D01*
X138063503Y-73937589D01*
X137993676Y-73939991D01*
X137933634Y-73904259D01*
X137902441Y-73841739D01*
X137900500Y-73819883D01*
X137900500Y-73380116D01*
X137920185Y-73313077D01*
X137972989Y-73267322D01*
X138042147Y-73257378D01*
X138063488Y-73262406D01*
X138222203Y-73314999D01*
X138324991Y-73325500D01*
X139675008Y-73325499D01*
X139777797Y-73314999D01*
X139944334Y-73259814D01*
X140093656Y-73167712D01*
X140217712Y-73043656D01*
X140309814Y-72894334D01*
X140309814Y-72894332D01*
X140313605Y-72888187D01*
X140315932Y-72889622D01*
X140353771Y-72846653D01*
X140419976Y-72827500D01*
X143288719Y-72827500D01*
X143355758Y-72847185D01*
X143376400Y-72863819D01*
X143579878Y-73067297D01*
X143584508Y-73074226D01*
X143588747Y-73077169D01*
X143606756Y-73107521D01*
X143625610Y-73153035D01*
X143633060Y-73171022D01*
X143642500Y-73218475D01*
X143642500Y-73392919D01*
X143622815Y-73459958D01*
X143598560Y-73486012D01*
X143598728Y-73486180D01*
X143594025Y-73490883D01*
X143592817Y-73492181D01*
X143592460Y-73492447D01*
X143592451Y-73492457D01*
X143506206Y-73607664D01*
X143506202Y-73607671D01*
X143455908Y-73742517D01*
X143451633Y-73782288D01*
X143449501Y-73802123D01*
X143449500Y-73802135D01*
X143449500Y-75897870D01*
X143449501Y-75897876D01*
X143455908Y-75957483D01*
X143506202Y-76092328D01*
X143506206Y-76092335D01*
X143592452Y-76207544D01*
X143592455Y-76207547D01*
X143707664Y-76293793D01*
X143707671Y-76293797D01*
X143752618Y-76310561D01*
X143842517Y-76344091D01*
X143902127Y-76350500D01*
X144637872Y-76350499D01*
X144697483Y-76344091D01*
X144832331Y-76293796D01*
X144947546Y-76207546D01*
X145033796Y-76092331D01*
X145084091Y-75957483D01*
X145090500Y-75897873D01*
X145090499Y-73802128D01*
X145084091Y-73742517D01*
X145033796Y-73607669D01*
X145033795Y-73607668D01*
X145033793Y-73607664D01*
X144947548Y-73492457D01*
X144947546Y-73492454D01*
X144947543Y-73492452D01*
X144947539Y-73492447D01*
X144947183Y-73492181D01*
X144946916Y-73491824D01*
X144941272Y-73486180D01*
X144942083Y-73485368D01*
X144905315Y-73436245D01*
X144897500Y-73392919D01*
X144897500Y-72908196D01*
X144897499Y-72908192D01*
X144873387Y-72786971D01*
X144873386Y-72786965D01*
X144839937Y-72706215D01*
X144826083Y-72672767D01*
X144818273Y-72661079D01*
X144814407Y-72652955D01*
X144812896Y-72643510D01*
X144804755Y-72623854D01*
X144803386Y-72616970D01*
X144803385Y-72616969D01*
X144803385Y-72616965D01*
X144776688Y-72552512D01*
X144756086Y-72502772D01*
X144756079Y-72502760D01*
X144687412Y-72399993D01*
X144647475Y-72360056D01*
X144600008Y-72312589D01*
X144310127Y-72022708D01*
X144000011Y-71712591D01*
X143998817Y-71711793D01*
X143998817Y-71711792D01*
X143897230Y-71643915D01*
X143857600Y-71627500D01*
X143783035Y-71596614D01*
X143783027Y-71596612D01*
X143661807Y-71572500D01*
X143661803Y-71572500D01*
X140419976Y-71572500D01*
X140352937Y-71552815D01*
X140315889Y-71510403D01*
X140313605Y-71511813D01*
X140309814Y-71505666D01*
X140217712Y-71356344D01*
X140093656Y-71232288D01*
X139944334Y-71140186D01*
X139777797Y-71085001D01*
X139777795Y-71085000D01*
X139675016Y-71074500D01*
X139675009Y-71074500D01*
X138813281Y-71074500D01*
X138746242Y-71054815D01*
X138725600Y-71038181D01*
X138200011Y-70512591D01*
X138200007Y-70512588D01*
X138118108Y-70457864D01*
X138073303Y-70404251D01*
X138062999Y-70354762D01*
X138062999Y-70324998D01*
X138062998Y-70324981D01*
X138052499Y-70222203D01*
X138052498Y-70222200D01*
X138015798Y-70111447D01*
X137997314Y-70055666D01*
X137918961Y-69928634D01*
X137900500Y-69863538D01*
X137900500Y-68624500D01*
X137920185Y-68557461D01*
X137972989Y-68511706D01*
X138024500Y-68500500D01*
X175375500Y-68500500D01*
X175442539Y-68520185D01*
G37*
%TD.AperFunction*%
%TD*%
M02*
