%TF.GenerationSoftware,KiCad,Pcbnew,10.0.3*%
%TF.CreationDate,2026-07-07T21:47:42+02:00*%
%TF.ProjectId,MiniVersion,4d696e69-5665-4727-9369-6f6e2e6b6963,rev?*%
%TF.SameCoordinates,Original*%
%TF.FileFunction,Legend,Bot*%
%TF.FilePolarity,Positive*%
%FSLAX46Y46*%
G04 Gerber Fmt 4.6, Leading zero omitted, Abs format (unit mm)*
G04 Created by KiCad (PCBNEW 10.0.3) date 2026-07-07 21:47:42*
%MOMM*%
%LPD*%
G01*
G04 APERTURE LIST*
%ADD10C,0.150000*%
%ADD11C,0.120000*%
G04 APERTURE END LIST*
D10*
X170991666Y-91484819D02*
X171324999Y-91008628D01*
X171563094Y-91484819D02*
X171563094Y-90484819D01*
X171563094Y-90484819D02*
X171182142Y-90484819D01*
X171182142Y-90484819D02*
X171086904Y-90532438D01*
X171086904Y-90532438D02*
X171039285Y-90580057D01*
X171039285Y-90580057D02*
X170991666Y-90675295D01*
X170991666Y-90675295D02*
X170991666Y-90818152D01*
X170991666Y-90818152D02*
X171039285Y-90913390D01*
X171039285Y-90913390D02*
X171086904Y-90961009D01*
X171086904Y-90961009D02*
X171182142Y-91008628D01*
X171182142Y-91008628D02*
X171563094Y-91008628D01*
X170134523Y-90484819D02*
X170324999Y-90484819D01*
X170324999Y-90484819D02*
X170420237Y-90532438D01*
X170420237Y-90532438D02*
X170467856Y-90580057D01*
X170467856Y-90580057D02*
X170563094Y-90722914D01*
X170563094Y-90722914D02*
X170610713Y-90913390D01*
X170610713Y-90913390D02*
X170610713Y-91294342D01*
X170610713Y-91294342D02*
X170563094Y-91389580D01*
X170563094Y-91389580D02*
X170515475Y-91437200D01*
X170515475Y-91437200D02*
X170420237Y-91484819D01*
X170420237Y-91484819D02*
X170229761Y-91484819D01*
X170229761Y-91484819D02*
X170134523Y-91437200D01*
X170134523Y-91437200D02*
X170086904Y-91389580D01*
X170086904Y-91389580D02*
X170039285Y-91294342D01*
X170039285Y-91294342D02*
X170039285Y-91056247D01*
X170039285Y-91056247D02*
X170086904Y-90961009D01*
X170086904Y-90961009D02*
X170134523Y-90913390D01*
X170134523Y-90913390D02*
X170229761Y-90865771D01*
X170229761Y-90865771D02*
X170420237Y-90865771D01*
X170420237Y-90865771D02*
X170515475Y-90913390D01*
X170515475Y-90913390D02*
X170563094Y-90961009D01*
X170563094Y-90961009D02*
X170610713Y-91056247D01*
X161891666Y-89584819D02*
X162224999Y-89108628D01*
X162463094Y-89584819D02*
X162463094Y-88584819D01*
X162463094Y-88584819D02*
X162082142Y-88584819D01*
X162082142Y-88584819D02*
X161986904Y-88632438D01*
X161986904Y-88632438D02*
X161939285Y-88680057D01*
X161939285Y-88680057D02*
X161891666Y-88775295D01*
X161891666Y-88775295D02*
X161891666Y-88918152D01*
X161891666Y-88918152D02*
X161939285Y-89013390D01*
X161939285Y-89013390D02*
X161986904Y-89061009D01*
X161986904Y-89061009D02*
X162082142Y-89108628D01*
X162082142Y-89108628D02*
X162463094Y-89108628D01*
X161415475Y-89584819D02*
X161224999Y-89584819D01*
X161224999Y-89584819D02*
X161129761Y-89537200D01*
X161129761Y-89537200D02*
X161082142Y-89489580D01*
X161082142Y-89489580D02*
X160986904Y-89346723D01*
X160986904Y-89346723D02*
X160939285Y-89156247D01*
X160939285Y-89156247D02*
X160939285Y-88775295D01*
X160939285Y-88775295D02*
X160986904Y-88680057D01*
X160986904Y-88680057D02*
X161034523Y-88632438D01*
X161034523Y-88632438D02*
X161129761Y-88584819D01*
X161129761Y-88584819D02*
X161320237Y-88584819D01*
X161320237Y-88584819D02*
X161415475Y-88632438D01*
X161415475Y-88632438D02*
X161463094Y-88680057D01*
X161463094Y-88680057D02*
X161510713Y-88775295D01*
X161510713Y-88775295D02*
X161510713Y-89013390D01*
X161510713Y-89013390D02*
X161463094Y-89108628D01*
X161463094Y-89108628D02*
X161415475Y-89156247D01*
X161415475Y-89156247D02*
X161320237Y-89203866D01*
X161320237Y-89203866D02*
X161129761Y-89203866D01*
X161129761Y-89203866D02*
X161034523Y-89156247D01*
X161034523Y-89156247D02*
X160986904Y-89108628D01*
X160986904Y-89108628D02*
X160939285Y-89013390D01*
X161841666Y-93189580D02*
X161889285Y-93237200D01*
X161889285Y-93237200D02*
X162032142Y-93284819D01*
X162032142Y-93284819D02*
X162127380Y-93284819D01*
X162127380Y-93284819D02*
X162270237Y-93237200D01*
X162270237Y-93237200D02*
X162365475Y-93141961D01*
X162365475Y-93141961D02*
X162413094Y-93046723D01*
X162413094Y-93046723D02*
X162460713Y-92856247D01*
X162460713Y-92856247D02*
X162460713Y-92713390D01*
X162460713Y-92713390D02*
X162413094Y-92522914D01*
X162413094Y-92522914D02*
X162365475Y-92427676D01*
X162365475Y-92427676D02*
X162270237Y-92332438D01*
X162270237Y-92332438D02*
X162127380Y-92284819D01*
X162127380Y-92284819D02*
X162032142Y-92284819D01*
X162032142Y-92284819D02*
X161889285Y-92332438D01*
X161889285Y-92332438D02*
X161841666Y-92380057D01*
X161508332Y-92284819D02*
X160889285Y-92284819D01*
X160889285Y-92284819D02*
X161222618Y-92665771D01*
X161222618Y-92665771D02*
X161079761Y-92665771D01*
X161079761Y-92665771D02*
X160984523Y-92713390D01*
X160984523Y-92713390D02*
X160936904Y-92761009D01*
X160936904Y-92761009D02*
X160889285Y-92856247D01*
X160889285Y-92856247D02*
X160889285Y-93094342D01*
X160889285Y-93094342D02*
X160936904Y-93189580D01*
X160936904Y-93189580D02*
X160984523Y-93237200D01*
X160984523Y-93237200D02*
X161079761Y-93284819D01*
X161079761Y-93284819D02*
X161365475Y-93284819D01*
X161365475Y-93284819D02*
X161460713Y-93237200D01*
X161460713Y-93237200D02*
X161508332Y-93189580D01*
X141284819Y-72861905D02*
X140284819Y-72861905D01*
X140284819Y-72861905D02*
X140284819Y-73100000D01*
X140284819Y-73100000D02*
X140332438Y-73242857D01*
X140332438Y-73242857D02*
X140427676Y-73338095D01*
X140427676Y-73338095D02*
X140522914Y-73385714D01*
X140522914Y-73385714D02*
X140713390Y-73433333D01*
X140713390Y-73433333D02*
X140856247Y-73433333D01*
X140856247Y-73433333D02*
X141046723Y-73385714D01*
X141046723Y-73385714D02*
X141141961Y-73338095D01*
X141141961Y-73338095D02*
X141237200Y-73242857D01*
X141237200Y-73242857D02*
X141284819Y-73100000D01*
X141284819Y-73100000D02*
X141284819Y-72861905D01*
X140380057Y-73814286D02*
X140332438Y-73861905D01*
X140332438Y-73861905D02*
X140284819Y-73957143D01*
X140284819Y-73957143D02*
X140284819Y-74195238D01*
X140284819Y-74195238D02*
X140332438Y-74290476D01*
X140332438Y-74290476D02*
X140380057Y-74338095D01*
X140380057Y-74338095D02*
X140475295Y-74385714D01*
X140475295Y-74385714D02*
X140570533Y-74385714D01*
X140570533Y-74385714D02*
X140713390Y-74338095D01*
X140713390Y-74338095D02*
X141284819Y-73766667D01*
X141284819Y-73766667D02*
X141284819Y-74385714D01*
X146829580Y-84258333D02*
X146877200Y-84210714D01*
X146877200Y-84210714D02*
X146924819Y-84067857D01*
X146924819Y-84067857D02*
X146924819Y-83972619D01*
X146924819Y-83972619D02*
X146877200Y-83829762D01*
X146877200Y-83829762D02*
X146781961Y-83734524D01*
X146781961Y-83734524D02*
X146686723Y-83686905D01*
X146686723Y-83686905D02*
X146496247Y-83639286D01*
X146496247Y-83639286D02*
X146353390Y-83639286D01*
X146353390Y-83639286D02*
X146162914Y-83686905D01*
X146162914Y-83686905D02*
X146067676Y-83734524D01*
X146067676Y-83734524D02*
X145972438Y-83829762D01*
X145972438Y-83829762D02*
X145924819Y-83972619D01*
X145924819Y-83972619D02*
X145924819Y-84067857D01*
X145924819Y-84067857D02*
X145972438Y-84210714D01*
X145972438Y-84210714D02*
X146020057Y-84258333D01*
X145924819Y-85163095D02*
X145924819Y-84686905D01*
X145924819Y-84686905D02*
X146401009Y-84639286D01*
X146401009Y-84639286D02*
X146353390Y-84686905D01*
X146353390Y-84686905D02*
X146305771Y-84782143D01*
X146305771Y-84782143D02*
X146305771Y-85020238D01*
X146305771Y-85020238D02*
X146353390Y-85115476D01*
X146353390Y-85115476D02*
X146401009Y-85163095D01*
X146401009Y-85163095D02*
X146496247Y-85210714D01*
X146496247Y-85210714D02*
X146734342Y-85210714D01*
X146734342Y-85210714D02*
X146829580Y-85163095D01*
X146829580Y-85163095D02*
X146877200Y-85115476D01*
X146877200Y-85115476D02*
X146924819Y-85020238D01*
X146924819Y-85020238D02*
X146924819Y-84782143D01*
X146924819Y-84782143D02*
X146877200Y-84686905D01*
X146877200Y-84686905D02*
X146829580Y-84639286D01*
X168333333Y-75339819D02*
X168333333Y-76054104D01*
X168333333Y-76054104D02*
X168380952Y-76196961D01*
X168380952Y-76196961D02*
X168476190Y-76292200D01*
X168476190Y-76292200D02*
X168619047Y-76339819D01*
X168619047Y-76339819D02*
X168714285Y-76339819D01*
X167428571Y-75673152D02*
X167428571Y-76339819D01*
X167666666Y-75292200D02*
X167904761Y-76006485D01*
X167904761Y-76006485D02*
X167285714Y-76006485D01*
X145424819Y-81308333D02*
X144948628Y-80975000D01*
X145424819Y-80736905D02*
X144424819Y-80736905D01*
X144424819Y-80736905D02*
X144424819Y-81117857D01*
X144424819Y-81117857D02*
X144472438Y-81213095D01*
X144472438Y-81213095D02*
X144520057Y-81260714D01*
X144520057Y-81260714D02*
X144615295Y-81308333D01*
X144615295Y-81308333D02*
X144758152Y-81308333D01*
X144758152Y-81308333D02*
X144853390Y-81260714D01*
X144853390Y-81260714D02*
X144901009Y-81213095D01*
X144901009Y-81213095D02*
X144948628Y-81117857D01*
X144948628Y-81117857D02*
X144948628Y-80736905D01*
X144520057Y-81689286D02*
X144472438Y-81736905D01*
X144472438Y-81736905D02*
X144424819Y-81832143D01*
X144424819Y-81832143D02*
X144424819Y-82070238D01*
X144424819Y-82070238D02*
X144472438Y-82165476D01*
X144472438Y-82165476D02*
X144520057Y-82213095D01*
X144520057Y-82213095D02*
X144615295Y-82260714D01*
X144615295Y-82260714D02*
X144710533Y-82260714D01*
X144710533Y-82260714D02*
X144853390Y-82213095D01*
X144853390Y-82213095D02*
X145424819Y-81641667D01*
X145424819Y-81641667D02*
X145424819Y-82260714D01*
X148329580Y-72258333D02*
X148377200Y-72210714D01*
X148377200Y-72210714D02*
X148424819Y-72067857D01*
X148424819Y-72067857D02*
X148424819Y-71972619D01*
X148424819Y-71972619D02*
X148377200Y-71829762D01*
X148377200Y-71829762D02*
X148281961Y-71734524D01*
X148281961Y-71734524D02*
X148186723Y-71686905D01*
X148186723Y-71686905D02*
X147996247Y-71639286D01*
X147996247Y-71639286D02*
X147853390Y-71639286D01*
X147853390Y-71639286D02*
X147662914Y-71686905D01*
X147662914Y-71686905D02*
X147567676Y-71734524D01*
X147567676Y-71734524D02*
X147472438Y-71829762D01*
X147472438Y-71829762D02*
X147424819Y-71972619D01*
X147424819Y-71972619D02*
X147424819Y-72067857D01*
X147424819Y-72067857D02*
X147472438Y-72210714D01*
X147472438Y-72210714D02*
X147520057Y-72258333D01*
X147758152Y-73115476D02*
X148424819Y-73115476D01*
X147377200Y-72877381D02*
X148091485Y-72639286D01*
X148091485Y-72639286D02*
X148091485Y-73258333D01*
X135704166Y-73624819D02*
X136037499Y-73148628D01*
X136275594Y-73624819D02*
X136275594Y-72624819D01*
X136275594Y-72624819D02*
X135894642Y-72624819D01*
X135894642Y-72624819D02*
X135799404Y-72672438D01*
X135799404Y-72672438D02*
X135751785Y-72720057D01*
X135751785Y-72720057D02*
X135704166Y-72815295D01*
X135704166Y-72815295D02*
X135704166Y-72958152D01*
X135704166Y-72958152D02*
X135751785Y-73053390D01*
X135751785Y-73053390D02*
X135799404Y-73101009D01*
X135799404Y-73101009D02*
X135894642Y-73148628D01*
X135894642Y-73148628D02*
X136275594Y-73148628D01*
X134751785Y-73624819D02*
X135323213Y-73624819D01*
X135037499Y-73624819D02*
X135037499Y-72624819D01*
X135037499Y-72624819D02*
X135132737Y-72767676D01*
X135132737Y-72767676D02*
X135227975Y-72862914D01*
X135227975Y-72862914D02*
X135323213Y-72910533D01*
X144717857Y-87384819D02*
X145051190Y-86908628D01*
X145289285Y-87384819D02*
X145289285Y-86384819D01*
X145289285Y-86384819D02*
X144908333Y-86384819D01*
X144908333Y-86384819D02*
X144813095Y-86432438D01*
X144813095Y-86432438D02*
X144765476Y-86480057D01*
X144765476Y-86480057D02*
X144717857Y-86575295D01*
X144717857Y-86575295D02*
X144717857Y-86718152D01*
X144717857Y-86718152D02*
X144765476Y-86813390D01*
X144765476Y-86813390D02*
X144813095Y-86861009D01*
X144813095Y-86861009D02*
X144908333Y-86908628D01*
X144908333Y-86908628D02*
X145289285Y-86908628D01*
X143765476Y-87384819D02*
X144336904Y-87384819D01*
X144051190Y-87384819D02*
X144051190Y-86384819D01*
X144051190Y-86384819D02*
X144146428Y-86527676D01*
X144146428Y-86527676D02*
X144241666Y-86622914D01*
X144241666Y-86622914D02*
X144336904Y-86670533D01*
X142813095Y-87384819D02*
X143384523Y-87384819D01*
X143098809Y-87384819D02*
X143098809Y-86384819D01*
X143098809Y-86384819D02*
X143194047Y-86527676D01*
X143194047Y-86527676D02*
X143289285Y-86622914D01*
X143289285Y-86622914D02*
X143384523Y-86670533D01*
X171141666Y-84624819D02*
X171474999Y-84148628D01*
X171713094Y-84624819D02*
X171713094Y-83624819D01*
X171713094Y-83624819D02*
X171332142Y-83624819D01*
X171332142Y-83624819D02*
X171236904Y-83672438D01*
X171236904Y-83672438D02*
X171189285Y-83720057D01*
X171189285Y-83720057D02*
X171141666Y-83815295D01*
X171141666Y-83815295D02*
X171141666Y-83958152D01*
X171141666Y-83958152D02*
X171189285Y-84053390D01*
X171189285Y-84053390D02*
X171236904Y-84101009D01*
X171236904Y-84101009D02*
X171332142Y-84148628D01*
X171332142Y-84148628D02*
X171713094Y-84148628D01*
X170236904Y-83624819D02*
X170713094Y-83624819D01*
X170713094Y-83624819D02*
X170760713Y-84101009D01*
X170760713Y-84101009D02*
X170713094Y-84053390D01*
X170713094Y-84053390D02*
X170617856Y-84005771D01*
X170617856Y-84005771D02*
X170379761Y-84005771D01*
X170379761Y-84005771D02*
X170284523Y-84053390D01*
X170284523Y-84053390D02*
X170236904Y-84101009D01*
X170236904Y-84101009D02*
X170189285Y-84196247D01*
X170189285Y-84196247D02*
X170189285Y-84434342D01*
X170189285Y-84434342D02*
X170236904Y-84529580D01*
X170236904Y-84529580D02*
X170284523Y-84577200D01*
X170284523Y-84577200D02*
X170379761Y-84624819D01*
X170379761Y-84624819D02*
X170617856Y-84624819D01*
X170617856Y-84624819D02*
X170713094Y-84577200D01*
X170713094Y-84577200D02*
X170760713Y-84529580D01*
X161691666Y-79484819D02*
X162024999Y-79008628D01*
X162263094Y-79484819D02*
X162263094Y-78484819D01*
X162263094Y-78484819D02*
X161882142Y-78484819D01*
X161882142Y-78484819D02*
X161786904Y-78532438D01*
X161786904Y-78532438D02*
X161739285Y-78580057D01*
X161739285Y-78580057D02*
X161691666Y-78675295D01*
X161691666Y-78675295D02*
X161691666Y-78818152D01*
X161691666Y-78818152D02*
X161739285Y-78913390D01*
X161739285Y-78913390D02*
X161786904Y-78961009D01*
X161786904Y-78961009D02*
X161882142Y-79008628D01*
X161882142Y-79008628D02*
X162263094Y-79008628D01*
X160834523Y-78818152D02*
X160834523Y-79484819D01*
X161072618Y-78437200D02*
X161310713Y-79151485D01*
X161310713Y-79151485D02*
X160691666Y-79151485D01*
X135061009Y-82966666D02*
X135061009Y-82633333D01*
X135584819Y-82633333D02*
X134584819Y-82633333D01*
X134584819Y-82633333D02*
X134584819Y-83109523D01*
X135584819Y-84014285D02*
X135584819Y-83442857D01*
X135584819Y-83728571D02*
X134584819Y-83728571D01*
X134584819Y-83728571D02*
X134727676Y-83633333D01*
X134727676Y-83633333D02*
X134822914Y-83538095D01*
X134822914Y-83538095D02*
X134870533Y-83442857D01*
X171041666Y-86724819D02*
X171374999Y-86248628D01*
X171613094Y-86724819D02*
X171613094Y-85724819D01*
X171613094Y-85724819D02*
X171232142Y-85724819D01*
X171232142Y-85724819D02*
X171136904Y-85772438D01*
X171136904Y-85772438D02*
X171089285Y-85820057D01*
X171089285Y-85820057D02*
X171041666Y-85915295D01*
X171041666Y-85915295D02*
X171041666Y-86058152D01*
X171041666Y-86058152D02*
X171089285Y-86153390D01*
X171089285Y-86153390D02*
X171136904Y-86201009D01*
X171136904Y-86201009D02*
X171232142Y-86248628D01*
X171232142Y-86248628D02*
X171613094Y-86248628D01*
X170708332Y-85724819D02*
X170041666Y-85724819D01*
X170041666Y-85724819D02*
X170470237Y-86724819D01*
X135704166Y-69624819D02*
X136037499Y-69148628D01*
X136275594Y-69624819D02*
X136275594Y-68624819D01*
X136275594Y-68624819D02*
X135894642Y-68624819D01*
X135894642Y-68624819D02*
X135799404Y-68672438D01*
X135799404Y-68672438D02*
X135751785Y-68720057D01*
X135751785Y-68720057D02*
X135704166Y-68815295D01*
X135704166Y-68815295D02*
X135704166Y-68958152D01*
X135704166Y-68958152D02*
X135751785Y-69053390D01*
X135751785Y-69053390D02*
X135799404Y-69101009D01*
X135799404Y-69101009D02*
X135894642Y-69148628D01*
X135894642Y-69148628D02*
X136275594Y-69148628D01*
X135132737Y-69053390D02*
X135227975Y-69005771D01*
X135227975Y-69005771D02*
X135275594Y-68958152D01*
X135275594Y-68958152D02*
X135323213Y-68862914D01*
X135323213Y-68862914D02*
X135323213Y-68815295D01*
X135323213Y-68815295D02*
X135275594Y-68720057D01*
X135275594Y-68720057D02*
X135227975Y-68672438D01*
X135227975Y-68672438D02*
X135132737Y-68624819D01*
X135132737Y-68624819D02*
X134942261Y-68624819D01*
X134942261Y-68624819D02*
X134847023Y-68672438D01*
X134847023Y-68672438D02*
X134799404Y-68720057D01*
X134799404Y-68720057D02*
X134751785Y-68815295D01*
X134751785Y-68815295D02*
X134751785Y-68862914D01*
X134751785Y-68862914D02*
X134799404Y-68958152D01*
X134799404Y-68958152D02*
X134847023Y-69005771D01*
X134847023Y-69005771D02*
X134942261Y-69053390D01*
X134942261Y-69053390D02*
X135132737Y-69053390D01*
X135132737Y-69053390D02*
X135227975Y-69101009D01*
X135227975Y-69101009D02*
X135275594Y-69148628D01*
X135275594Y-69148628D02*
X135323213Y-69243866D01*
X135323213Y-69243866D02*
X135323213Y-69434342D01*
X135323213Y-69434342D02*
X135275594Y-69529580D01*
X135275594Y-69529580D02*
X135227975Y-69577200D01*
X135227975Y-69577200D02*
X135132737Y-69624819D01*
X135132737Y-69624819D02*
X134942261Y-69624819D01*
X134942261Y-69624819D02*
X134847023Y-69577200D01*
X134847023Y-69577200D02*
X134799404Y-69529580D01*
X134799404Y-69529580D02*
X134751785Y-69434342D01*
X134751785Y-69434342D02*
X134751785Y-69243866D01*
X134751785Y-69243866D02*
X134799404Y-69148628D01*
X134799404Y-69148628D02*
X134847023Y-69101009D01*
X134847023Y-69101009D02*
X134942261Y-69053390D01*
X144038094Y-85884819D02*
X144038094Y-84884819D01*
X144038094Y-84884819D02*
X143799999Y-84884819D01*
X143799999Y-84884819D02*
X143657142Y-84932438D01*
X143657142Y-84932438D02*
X143561904Y-85027676D01*
X143561904Y-85027676D02*
X143514285Y-85122914D01*
X143514285Y-85122914D02*
X143466666Y-85313390D01*
X143466666Y-85313390D02*
X143466666Y-85456247D01*
X143466666Y-85456247D02*
X143514285Y-85646723D01*
X143514285Y-85646723D02*
X143561904Y-85741961D01*
X143561904Y-85741961D02*
X143657142Y-85837200D01*
X143657142Y-85837200D02*
X143799999Y-85884819D01*
X143799999Y-85884819D02*
X144038094Y-85884819D01*
X143133332Y-84884819D02*
X142514285Y-84884819D01*
X142514285Y-84884819D02*
X142847618Y-85265771D01*
X142847618Y-85265771D02*
X142704761Y-85265771D01*
X142704761Y-85265771D02*
X142609523Y-85313390D01*
X142609523Y-85313390D02*
X142561904Y-85361009D01*
X142561904Y-85361009D02*
X142514285Y-85456247D01*
X142514285Y-85456247D02*
X142514285Y-85694342D01*
X142514285Y-85694342D02*
X142561904Y-85789580D01*
X142561904Y-85789580D02*
X142609523Y-85837200D01*
X142609523Y-85837200D02*
X142704761Y-85884819D01*
X142704761Y-85884819D02*
X142990475Y-85884819D01*
X142990475Y-85884819D02*
X143085713Y-85837200D01*
X143085713Y-85837200D02*
X143133332Y-85789580D01*
X161691666Y-83584819D02*
X162024999Y-83108628D01*
X162263094Y-83584819D02*
X162263094Y-82584819D01*
X162263094Y-82584819D02*
X161882142Y-82584819D01*
X161882142Y-82584819D02*
X161786904Y-82632438D01*
X161786904Y-82632438D02*
X161739285Y-82680057D01*
X161739285Y-82680057D02*
X161691666Y-82775295D01*
X161691666Y-82775295D02*
X161691666Y-82918152D01*
X161691666Y-82918152D02*
X161739285Y-83013390D01*
X161739285Y-83013390D02*
X161786904Y-83061009D01*
X161786904Y-83061009D02*
X161882142Y-83108628D01*
X161882142Y-83108628D02*
X162263094Y-83108628D01*
X161358332Y-82584819D02*
X160739285Y-82584819D01*
X160739285Y-82584819D02*
X161072618Y-82965771D01*
X161072618Y-82965771D02*
X160929761Y-82965771D01*
X160929761Y-82965771D02*
X160834523Y-83013390D01*
X160834523Y-83013390D02*
X160786904Y-83061009D01*
X160786904Y-83061009D02*
X160739285Y-83156247D01*
X160739285Y-83156247D02*
X160739285Y-83394342D01*
X160739285Y-83394342D02*
X160786904Y-83489580D01*
X160786904Y-83489580D02*
X160834523Y-83537200D01*
X160834523Y-83537200D02*
X160929761Y-83584819D01*
X160929761Y-83584819D02*
X161215475Y-83584819D01*
X161215475Y-83584819D02*
X161310713Y-83537200D01*
X161310713Y-83537200D02*
X161358332Y-83489580D01*
X145424819Y-83782142D02*
X144948628Y-83448809D01*
X145424819Y-83210714D02*
X144424819Y-83210714D01*
X144424819Y-83210714D02*
X144424819Y-83591666D01*
X144424819Y-83591666D02*
X144472438Y-83686904D01*
X144472438Y-83686904D02*
X144520057Y-83734523D01*
X144520057Y-83734523D02*
X144615295Y-83782142D01*
X144615295Y-83782142D02*
X144758152Y-83782142D01*
X144758152Y-83782142D02*
X144853390Y-83734523D01*
X144853390Y-83734523D02*
X144901009Y-83686904D01*
X144901009Y-83686904D02*
X144948628Y-83591666D01*
X144948628Y-83591666D02*
X144948628Y-83210714D01*
X145424819Y-84734523D02*
X145424819Y-84163095D01*
X145424819Y-84448809D02*
X144424819Y-84448809D01*
X144424819Y-84448809D02*
X144567676Y-84353571D01*
X144567676Y-84353571D02*
X144662914Y-84258333D01*
X144662914Y-84258333D02*
X144710533Y-84163095D01*
X144520057Y-85115476D02*
X144472438Y-85163095D01*
X144472438Y-85163095D02*
X144424819Y-85258333D01*
X144424819Y-85258333D02*
X144424819Y-85496428D01*
X144424819Y-85496428D02*
X144472438Y-85591666D01*
X144472438Y-85591666D02*
X144520057Y-85639285D01*
X144520057Y-85639285D02*
X144615295Y-85686904D01*
X144615295Y-85686904D02*
X144710533Y-85686904D01*
X144710533Y-85686904D02*
X144853390Y-85639285D01*
X144853390Y-85639285D02*
X145424819Y-85067857D01*
X145424819Y-85067857D02*
X145424819Y-85686904D01*
X139154819Y-77238095D02*
X139964342Y-77238095D01*
X139964342Y-77238095D02*
X140059580Y-77285714D01*
X140059580Y-77285714D02*
X140107200Y-77333333D01*
X140107200Y-77333333D02*
X140154819Y-77428571D01*
X140154819Y-77428571D02*
X140154819Y-77619047D01*
X140154819Y-77619047D02*
X140107200Y-77714285D01*
X140107200Y-77714285D02*
X140059580Y-77761904D01*
X140059580Y-77761904D02*
X139964342Y-77809523D01*
X139964342Y-77809523D02*
X139154819Y-77809523D01*
X139250057Y-78238095D02*
X139202438Y-78285714D01*
X139202438Y-78285714D02*
X139154819Y-78380952D01*
X139154819Y-78380952D02*
X139154819Y-78619047D01*
X139154819Y-78619047D02*
X139202438Y-78714285D01*
X139202438Y-78714285D02*
X139250057Y-78761904D01*
X139250057Y-78761904D02*
X139345295Y-78809523D01*
X139345295Y-78809523D02*
X139440533Y-78809523D01*
X139440533Y-78809523D02*
X139583390Y-78761904D01*
X139583390Y-78761904D02*
X140154819Y-78190476D01*
X140154819Y-78190476D02*
X140154819Y-78809523D01*
%TO.C,R6*%
D11*
X170587742Y-89077500D02*
X171062258Y-89077500D01*
X170587742Y-90122500D02*
X171062258Y-90122500D01*
%TO.C,R9*%
X161487742Y-87177500D02*
X161962258Y-87177500D01*
X161487742Y-88222500D02*
X161962258Y-88222500D01*
%TO.C,C3*%
X161534420Y-90890000D02*
X161815580Y-90890000D01*
X161534420Y-91910000D02*
X161815580Y-91910000D01*
%TO.C,D2*%
X137865000Y-75885000D02*
X137865000Y-72000000D01*
X140135000Y-72000000D02*
X140135000Y-75885000D01*
X140135000Y-75885000D02*
X137865000Y-75885000D01*
%TO.C,C5*%
X147390000Y-84284420D02*
X147390000Y-84565580D01*
X148410000Y-84284420D02*
X148410000Y-84565580D01*
%TO.C,J4*%
X166185000Y-76885000D02*
X166185000Y-76950000D01*
X166185000Y-80850000D02*
X166185000Y-80915000D01*
X169815000Y-76885000D02*
X166185000Y-76885000D01*
X169815000Y-76885000D02*
X169815000Y-76950000D01*
X169815000Y-80850000D02*
X169815000Y-80915000D01*
X169815000Y-80915000D02*
X166185000Y-80915000D01*
X171090000Y-76950000D02*
X169815000Y-76950000D01*
%TO.C,R2*%
X145877500Y-81237742D02*
X145877500Y-81712258D01*
X146922500Y-81237742D02*
X146922500Y-81712258D01*
%TO.C,C4*%
X148890000Y-72284420D02*
X148890000Y-72565580D01*
X149910000Y-72284420D02*
X149910000Y-72565580D01*
%TO.C,R1*%
X136264564Y-74090000D02*
X134810436Y-74090000D01*
X136264564Y-75910000D02*
X134810436Y-75910000D01*
%TO.C,R11*%
X143837742Y-84977500D02*
X144312258Y-84977500D01*
X143837742Y-86022500D02*
X144312258Y-86022500D01*
%TO.C,R5*%
X171212258Y-85077500D02*
X170737742Y-85077500D01*
X171212258Y-86122500D02*
X170737742Y-86122500D01*
%TO.C,R4*%
X161287742Y-77077500D02*
X161762258Y-77077500D01*
X161287742Y-78122500D02*
X161762258Y-78122500D01*
%TO.C,F1*%
X127950000Y-79740000D02*
X127950000Y-86860000D01*
X134050000Y-79740000D02*
X134050000Y-86860000D01*
%TO.C,R7*%
X171112258Y-87177500D02*
X170637742Y-87177500D01*
X171112258Y-88222500D02*
X170637742Y-88222500D01*
%TO.C,R8*%
X136264564Y-70090000D02*
X134810436Y-70090000D01*
X136264564Y-71910000D02*
X134810436Y-71910000D01*
%TO.C,D3*%
X141015000Y-82465000D02*
X144900000Y-82465000D01*
X141015000Y-84735000D02*
X141015000Y-82465000D01*
X144900000Y-84735000D02*
X141015000Y-84735000D01*
%TO.C,R3*%
X161287742Y-81177500D02*
X161762258Y-81177500D01*
X161287742Y-82222500D02*
X161762258Y-82222500D01*
%TO.C,R12*%
X145877500Y-84187742D02*
X145877500Y-84662258D01*
X146922500Y-84187742D02*
X146922500Y-84662258D01*
%TO.C,U2*%
X140400000Y-75600000D02*
X140700000Y-75600000D01*
X140400000Y-80400000D02*
X140400000Y-75600000D01*
X140700000Y-73900000D02*
X140700000Y-75600000D01*
X140700000Y-80400000D02*
X140400000Y-80400000D01*
X144100000Y-75600000D02*
X144400000Y-75600000D01*
X144400000Y-75600000D02*
X144400000Y-80400000D01*
X144400000Y-80400000D02*
X144100000Y-80400000D01*
%TD*%
M02*
