G04 #@! TF.GenerationSoftware,KiCad,Pcbnew,10.0.3*
G04 #@! TF.CreationDate,2026-05-25T14:53:54+02:00*
G04 #@! TF.ProjectId,loftrelayRound,6c6f6674-7265-46c6-9179-526f756e642e,rev?*
G04 #@! TF.SameCoordinates,Original*
G04 #@! TF.FileFunction,Legend,Top*
G04 #@! TF.FilePolarity,Positive*
%FSLAX46Y46*%
G04 Gerber Fmt 4.6, Leading zero omitted, Abs format (unit mm)*
G04 Created by KiCad (PCBNEW 10.0.3) date 2026-05-25 14:53:54*
%MOMM*%
%LPD*%
G01*
G04 APERTURE LIST*
%ADD10C,0.300000*%
%ADD11C,0.150000*%
%ADD12C,0.120000*%
G04 APERTURE END LIST*
D10*
X191323185Y-123105998D02*
X191251757Y-123034570D01*
X191251757Y-123034570D02*
X191180328Y-122891713D01*
X191180328Y-122891713D02*
X191180328Y-122534570D01*
X191180328Y-122534570D02*
X191251757Y-122391713D01*
X191251757Y-122391713D02*
X191323185Y-122320284D01*
X191323185Y-122320284D02*
X191466042Y-122248855D01*
X191466042Y-122248855D02*
X191608900Y-122248855D01*
X191608900Y-122248855D02*
X191823185Y-122320284D01*
X191823185Y-122320284D02*
X192680328Y-123177427D01*
X192680328Y-123177427D02*
X192680328Y-122248855D01*
X192608900Y-121534570D02*
X192680328Y-121534570D01*
X192680328Y-121534570D02*
X192823185Y-121605999D01*
X192823185Y-121605999D02*
X192894614Y-121677427D01*
X191180328Y-121034570D02*
X191180328Y-120034570D01*
X191180328Y-120034570D02*
X192680328Y-120677427D01*
X191180328Y-118820285D02*
X191180328Y-119105999D01*
X191180328Y-119105999D02*
X191251757Y-119248856D01*
X191251757Y-119248856D02*
X191323185Y-119320285D01*
X191323185Y-119320285D02*
X191537471Y-119463142D01*
X191537471Y-119463142D02*
X191823185Y-119534570D01*
X191823185Y-119534570D02*
X192394614Y-119534570D01*
X192394614Y-119534570D02*
X192537471Y-119463142D01*
X192537471Y-119463142D02*
X192608900Y-119391713D01*
X192608900Y-119391713D02*
X192680328Y-119248856D01*
X192680328Y-119248856D02*
X192680328Y-118963142D01*
X192680328Y-118963142D02*
X192608900Y-118820285D01*
X192608900Y-118820285D02*
X192537471Y-118748856D01*
X192537471Y-118748856D02*
X192394614Y-118677427D01*
X192394614Y-118677427D02*
X192037471Y-118677427D01*
X192037471Y-118677427D02*
X191894614Y-118748856D01*
X191894614Y-118748856D02*
X191823185Y-118820285D01*
X191823185Y-118820285D02*
X191751757Y-118963142D01*
X191751757Y-118963142D02*
X191751757Y-119248856D01*
X191751757Y-119248856D02*
X191823185Y-119391713D01*
X191823185Y-119391713D02*
X191894614Y-119463142D01*
X191894614Y-119463142D02*
X192037471Y-119534570D01*
X191180328Y-117748856D02*
X191180328Y-117605999D01*
X191180328Y-117605999D02*
X191251757Y-117463142D01*
X191251757Y-117463142D02*
X191323185Y-117391714D01*
X191323185Y-117391714D02*
X191466042Y-117320285D01*
X191466042Y-117320285D02*
X191751757Y-117248856D01*
X191751757Y-117248856D02*
X192108900Y-117248856D01*
X192108900Y-117248856D02*
X192394614Y-117320285D01*
X192394614Y-117320285D02*
X192537471Y-117391714D01*
X192537471Y-117391714D02*
X192608900Y-117463142D01*
X192608900Y-117463142D02*
X192680328Y-117605999D01*
X192680328Y-117605999D02*
X192680328Y-117748856D01*
X192680328Y-117748856D02*
X192608900Y-117891714D01*
X192608900Y-117891714D02*
X192537471Y-117963142D01*
X192537471Y-117963142D02*
X192394614Y-118034571D01*
X192394614Y-118034571D02*
X192108900Y-118105999D01*
X192108900Y-118105999D02*
X191751757Y-118105999D01*
X191751757Y-118105999D02*
X191466042Y-118034571D01*
X191466042Y-118034571D02*
X191323185Y-117963142D01*
X191323185Y-117963142D02*
X191251757Y-117891714D01*
X191251757Y-117891714D02*
X191180328Y-117748856D01*
X191180328Y-116320285D02*
X191180328Y-116177428D01*
X191180328Y-116177428D02*
X191251757Y-116034571D01*
X191251757Y-116034571D02*
X191323185Y-115963143D01*
X191323185Y-115963143D02*
X191466042Y-115891714D01*
X191466042Y-115891714D02*
X191751757Y-115820285D01*
X191751757Y-115820285D02*
X192108900Y-115820285D01*
X192108900Y-115820285D02*
X192394614Y-115891714D01*
X192394614Y-115891714D02*
X192537471Y-115963143D01*
X192537471Y-115963143D02*
X192608900Y-116034571D01*
X192608900Y-116034571D02*
X192680328Y-116177428D01*
X192680328Y-116177428D02*
X192680328Y-116320285D01*
X192680328Y-116320285D02*
X192608900Y-116463143D01*
X192608900Y-116463143D02*
X192537471Y-116534571D01*
X192537471Y-116534571D02*
X192394614Y-116606000D01*
X192394614Y-116606000D02*
X192108900Y-116677428D01*
X192108900Y-116677428D02*
X191751757Y-116677428D01*
X191751757Y-116677428D02*
X191466042Y-116606000D01*
X191466042Y-116606000D02*
X191323185Y-116534571D01*
X191323185Y-116534571D02*
X191251757Y-116463143D01*
X191251757Y-116463143D02*
X191180328Y-116320285D01*
X192680328Y-114034572D02*
X191680328Y-114034572D01*
X191180328Y-114034572D02*
X191251757Y-114106000D01*
X191251757Y-114106000D02*
X191323185Y-114034572D01*
X191323185Y-114034572D02*
X191251757Y-113963143D01*
X191251757Y-113963143D02*
X191180328Y-114034572D01*
X191180328Y-114034572D02*
X191323185Y-114034572D01*
X191680328Y-113320286D02*
X192680328Y-113320286D01*
X191823185Y-113320286D02*
X191751757Y-113248857D01*
X191751757Y-113248857D02*
X191680328Y-113106000D01*
X191680328Y-113106000D02*
X191680328Y-112891714D01*
X191680328Y-112891714D02*
X191751757Y-112748857D01*
X191751757Y-112748857D02*
X191894614Y-112677429D01*
X191894614Y-112677429D02*
X192680328Y-112677429D01*
X148590000Y-152908000D02*
X194388420Y-152908000D01*
X148590000Y-82804000D02*
X194388420Y-82804000D01*
X193802000Y-152908000D02*
X193802000Y-82804000D01*
X193802000Y-152908000D02*
X193215579Y-151781496D01*
X193802000Y-152908000D02*
X194388421Y-151781496D01*
X193802000Y-82804000D02*
X194388421Y-83930504D01*
X193802000Y-82804000D02*
X193215579Y-83930504D01*
D11*
X161983333Y-137689580D02*
X161935714Y-137737200D01*
X161935714Y-137737200D02*
X161792857Y-137784819D01*
X161792857Y-137784819D02*
X161697619Y-137784819D01*
X161697619Y-137784819D02*
X161554762Y-137737200D01*
X161554762Y-137737200D02*
X161459524Y-137641961D01*
X161459524Y-137641961D02*
X161411905Y-137546723D01*
X161411905Y-137546723D02*
X161364286Y-137356247D01*
X161364286Y-137356247D02*
X161364286Y-137213390D01*
X161364286Y-137213390D02*
X161411905Y-137022914D01*
X161411905Y-137022914D02*
X161459524Y-136927676D01*
X161459524Y-136927676D02*
X161554762Y-136832438D01*
X161554762Y-136832438D02*
X161697619Y-136784819D01*
X161697619Y-136784819D02*
X161792857Y-136784819D01*
X161792857Y-136784819D02*
X161935714Y-136832438D01*
X161935714Y-136832438D02*
X161983333Y-136880057D01*
X162364286Y-136880057D02*
X162411905Y-136832438D01*
X162411905Y-136832438D02*
X162507143Y-136784819D01*
X162507143Y-136784819D02*
X162745238Y-136784819D01*
X162745238Y-136784819D02*
X162840476Y-136832438D01*
X162840476Y-136832438D02*
X162888095Y-136880057D01*
X162888095Y-136880057D02*
X162935714Y-136975295D01*
X162935714Y-136975295D02*
X162935714Y-137070533D01*
X162935714Y-137070533D02*
X162888095Y-137213390D01*
X162888095Y-137213390D02*
X162316667Y-137784819D01*
X162316667Y-137784819D02*
X162935714Y-137784819D01*
X156789580Y-126941666D02*
X156837200Y-126989285D01*
X156837200Y-126989285D02*
X156884819Y-127132142D01*
X156884819Y-127132142D02*
X156884819Y-127227380D01*
X156884819Y-127227380D02*
X156837200Y-127370237D01*
X156837200Y-127370237D02*
X156741961Y-127465475D01*
X156741961Y-127465475D02*
X156646723Y-127513094D01*
X156646723Y-127513094D02*
X156456247Y-127560713D01*
X156456247Y-127560713D02*
X156313390Y-127560713D01*
X156313390Y-127560713D02*
X156122914Y-127513094D01*
X156122914Y-127513094D02*
X156027676Y-127465475D01*
X156027676Y-127465475D02*
X155932438Y-127370237D01*
X155932438Y-127370237D02*
X155884819Y-127227380D01*
X155884819Y-127227380D02*
X155884819Y-127132142D01*
X155884819Y-127132142D02*
X155932438Y-126989285D01*
X155932438Y-126989285D02*
X155980057Y-126941666D01*
X155884819Y-126608332D02*
X155884819Y-125989285D01*
X155884819Y-125989285D02*
X156265771Y-126322618D01*
X156265771Y-126322618D02*
X156265771Y-126179761D01*
X156265771Y-126179761D02*
X156313390Y-126084523D01*
X156313390Y-126084523D02*
X156361009Y-126036904D01*
X156361009Y-126036904D02*
X156456247Y-125989285D01*
X156456247Y-125989285D02*
X156694342Y-125989285D01*
X156694342Y-125989285D02*
X156789580Y-126036904D01*
X156789580Y-126036904D02*
X156837200Y-126084523D01*
X156837200Y-126084523D02*
X156884819Y-126179761D01*
X156884819Y-126179761D02*
X156884819Y-126465475D01*
X156884819Y-126465475D02*
X156837200Y-126560713D01*
X156837200Y-126560713D02*
X156789580Y-126608332D01*
X169589580Y-133716666D02*
X169637200Y-133764285D01*
X169637200Y-133764285D02*
X169684819Y-133907142D01*
X169684819Y-133907142D02*
X169684819Y-134002380D01*
X169684819Y-134002380D02*
X169637200Y-134145237D01*
X169637200Y-134145237D02*
X169541961Y-134240475D01*
X169541961Y-134240475D02*
X169446723Y-134288094D01*
X169446723Y-134288094D02*
X169256247Y-134335713D01*
X169256247Y-134335713D02*
X169113390Y-134335713D01*
X169113390Y-134335713D02*
X168922914Y-134288094D01*
X168922914Y-134288094D02*
X168827676Y-134240475D01*
X168827676Y-134240475D02*
X168732438Y-134145237D01*
X168732438Y-134145237D02*
X168684819Y-134002380D01*
X168684819Y-134002380D02*
X168684819Y-133907142D01*
X168684819Y-133907142D02*
X168732438Y-133764285D01*
X168732438Y-133764285D02*
X168780057Y-133716666D01*
X169018152Y-132859523D02*
X169684819Y-132859523D01*
X168637200Y-133097618D02*
X169351485Y-133335713D01*
X169351485Y-133335713D02*
X169351485Y-132716666D01*
X154308333Y-117984819D02*
X153975000Y-117508628D01*
X153736905Y-117984819D02*
X153736905Y-116984819D01*
X153736905Y-116984819D02*
X154117857Y-116984819D01*
X154117857Y-116984819D02*
X154213095Y-117032438D01*
X154213095Y-117032438D02*
X154260714Y-117080057D01*
X154260714Y-117080057D02*
X154308333Y-117175295D01*
X154308333Y-117175295D02*
X154308333Y-117318152D01*
X154308333Y-117318152D02*
X154260714Y-117413390D01*
X154260714Y-117413390D02*
X154213095Y-117461009D01*
X154213095Y-117461009D02*
X154117857Y-117508628D01*
X154117857Y-117508628D02*
X153736905Y-117508628D01*
X154641667Y-116984819D02*
X155260714Y-116984819D01*
X155260714Y-116984819D02*
X154927381Y-117365771D01*
X154927381Y-117365771D02*
X155070238Y-117365771D01*
X155070238Y-117365771D02*
X155165476Y-117413390D01*
X155165476Y-117413390D02*
X155213095Y-117461009D01*
X155213095Y-117461009D02*
X155260714Y-117556247D01*
X155260714Y-117556247D02*
X155260714Y-117794342D01*
X155260714Y-117794342D02*
X155213095Y-117889580D01*
X155213095Y-117889580D02*
X155165476Y-117937200D01*
X155165476Y-117937200D02*
X155070238Y-117984819D01*
X155070238Y-117984819D02*
X154784524Y-117984819D01*
X154784524Y-117984819D02*
X154689286Y-117937200D01*
X154689286Y-117937200D02*
X154641667Y-117889580D01*
X154258333Y-113984819D02*
X153925000Y-113508628D01*
X153686905Y-113984819D02*
X153686905Y-112984819D01*
X153686905Y-112984819D02*
X154067857Y-112984819D01*
X154067857Y-112984819D02*
X154163095Y-113032438D01*
X154163095Y-113032438D02*
X154210714Y-113080057D01*
X154210714Y-113080057D02*
X154258333Y-113175295D01*
X154258333Y-113175295D02*
X154258333Y-113318152D01*
X154258333Y-113318152D02*
X154210714Y-113413390D01*
X154210714Y-113413390D02*
X154163095Y-113461009D01*
X154163095Y-113461009D02*
X154067857Y-113508628D01*
X154067857Y-113508628D02*
X153686905Y-113508628D01*
X155115476Y-113318152D02*
X155115476Y-113984819D01*
X154877381Y-112937200D02*
X154639286Y-113651485D01*
X154639286Y-113651485D02*
X155258333Y-113651485D01*
X176951333Y-118824819D02*
X176618000Y-118348628D01*
X176379905Y-118824819D02*
X176379905Y-117824819D01*
X176379905Y-117824819D02*
X176760857Y-117824819D01*
X176760857Y-117824819D02*
X176856095Y-117872438D01*
X176856095Y-117872438D02*
X176903714Y-117920057D01*
X176903714Y-117920057D02*
X176951333Y-118015295D01*
X176951333Y-118015295D02*
X176951333Y-118158152D01*
X176951333Y-118158152D02*
X176903714Y-118253390D01*
X176903714Y-118253390D02*
X176856095Y-118301009D01*
X176856095Y-118301009D02*
X176760857Y-118348628D01*
X176760857Y-118348628D02*
X176379905Y-118348628D01*
X177856095Y-117824819D02*
X177379905Y-117824819D01*
X177379905Y-117824819D02*
X177332286Y-118301009D01*
X177332286Y-118301009D02*
X177379905Y-118253390D01*
X177379905Y-118253390D02*
X177475143Y-118205771D01*
X177475143Y-118205771D02*
X177713238Y-118205771D01*
X177713238Y-118205771D02*
X177808476Y-118253390D01*
X177808476Y-118253390D02*
X177856095Y-118301009D01*
X177856095Y-118301009D02*
X177903714Y-118396247D01*
X177903714Y-118396247D02*
X177903714Y-118634342D01*
X177903714Y-118634342D02*
X177856095Y-118729580D01*
X177856095Y-118729580D02*
X177808476Y-118777200D01*
X177808476Y-118777200D02*
X177713238Y-118824819D01*
X177713238Y-118824819D02*
X177475143Y-118824819D01*
X177475143Y-118824819D02*
X177379905Y-118777200D01*
X177379905Y-118777200D02*
X177332286Y-118729580D01*
X174538819Y-125468666D02*
X174062628Y-125801999D01*
X174538819Y-126040094D02*
X173538819Y-126040094D01*
X173538819Y-126040094D02*
X173538819Y-125659142D01*
X173538819Y-125659142D02*
X173586438Y-125563904D01*
X173586438Y-125563904D02*
X173634057Y-125516285D01*
X173634057Y-125516285D02*
X173729295Y-125468666D01*
X173729295Y-125468666D02*
X173872152Y-125468666D01*
X173872152Y-125468666D02*
X173967390Y-125516285D01*
X173967390Y-125516285D02*
X174015009Y-125563904D01*
X174015009Y-125563904D02*
X174062628Y-125659142D01*
X174062628Y-125659142D02*
X174062628Y-126040094D01*
X173538819Y-124611523D02*
X173538819Y-124801999D01*
X173538819Y-124801999D02*
X173586438Y-124897237D01*
X173586438Y-124897237D02*
X173634057Y-124944856D01*
X173634057Y-124944856D02*
X173776914Y-125040094D01*
X173776914Y-125040094D02*
X173967390Y-125087713D01*
X173967390Y-125087713D02*
X174348342Y-125087713D01*
X174348342Y-125087713D02*
X174443580Y-125040094D01*
X174443580Y-125040094D02*
X174491200Y-124992475D01*
X174491200Y-124992475D02*
X174538819Y-124897237D01*
X174538819Y-124897237D02*
X174538819Y-124706761D01*
X174538819Y-124706761D02*
X174491200Y-124611523D01*
X174491200Y-124611523D02*
X174443580Y-124563904D01*
X174443580Y-124563904D02*
X174348342Y-124516285D01*
X174348342Y-124516285D02*
X174110247Y-124516285D01*
X174110247Y-124516285D02*
X174015009Y-124563904D01*
X174015009Y-124563904D02*
X173967390Y-124611523D01*
X173967390Y-124611523D02*
X173919771Y-124706761D01*
X173919771Y-124706761D02*
X173919771Y-124897237D01*
X173919771Y-124897237D02*
X173967390Y-124992475D01*
X173967390Y-124992475D02*
X174015009Y-125040094D01*
X174015009Y-125040094D02*
X174110247Y-125087713D01*
X176951333Y-120690819D02*
X176618000Y-120214628D01*
X176379905Y-120690819D02*
X176379905Y-119690819D01*
X176379905Y-119690819D02*
X176760857Y-119690819D01*
X176760857Y-119690819D02*
X176856095Y-119738438D01*
X176856095Y-119738438D02*
X176903714Y-119786057D01*
X176903714Y-119786057D02*
X176951333Y-119881295D01*
X176951333Y-119881295D02*
X176951333Y-120024152D01*
X176951333Y-120024152D02*
X176903714Y-120119390D01*
X176903714Y-120119390D02*
X176856095Y-120167009D01*
X176856095Y-120167009D02*
X176760857Y-120214628D01*
X176760857Y-120214628D02*
X176379905Y-120214628D01*
X177284667Y-119690819D02*
X177951333Y-119690819D01*
X177951333Y-119690819D02*
X177522762Y-120690819D01*
X153778095Y-109764819D02*
X153778095Y-110574342D01*
X153778095Y-110574342D02*
X153825714Y-110669580D01*
X153825714Y-110669580D02*
X153873333Y-110717200D01*
X153873333Y-110717200D02*
X153968571Y-110764819D01*
X153968571Y-110764819D02*
X154159047Y-110764819D01*
X154159047Y-110764819D02*
X154254285Y-110717200D01*
X154254285Y-110717200D02*
X154301904Y-110669580D01*
X154301904Y-110669580D02*
X154349523Y-110574342D01*
X154349523Y-110574342D02*
X154349523Y-109764819D01*
X155254285Y-110098152D02*
X155254285Y-110764819D01*
X155016190Y-109717200D02*
X154778095Y-110431485D01*
X154778095Y-110431485D02*
X155397142Y-110431485D01*
X157900057Y-132532738D02*
X157852438Y-132627976D01*
X157852438Y-132627976D02*
X157757200Y-132723214D01*
X157757200Y-132723214D02*
X157614342Y-132866071D01*
X157614342Y-132866071D02*
X157566723Y-132961309D01*
X157566723Y-132961309D02*
X157566723Y-133056547D01*
X157804819Y-133008928D02*
X157757200Y-133104166D01*
X157757200Y-133104166D02*
X157661961Y-133199404D01*
X157661961Y-133199404D02*
X157471485Y-133247023D01*
X157471485Y-133247023D02*
X157138152Y-133247023D01*
X157138152Y-133247023D02*
X156947676Y-133199404D01*
X156947676Y-133199404D02*
X156852438Y-133104166D01*
X156852438Y-133104166D02*
X156804819Y-133008928D01*
X156804819Y-133008928D02*
X156804819Y-132818452D01*
X156804819Y-132818452D02*
X156852438Y-132723214D01*
X156852438Y-132723214D02*
X156947676Y-132627976D01*
X156947676Y-132627976D02*
X157138152Y-132580357D01*
X157138152Y-132580357D02*
X157471485Y-132580357D01*
X157471485Y-132580357D02*
X157661961Y-132627976D01*
X157661961Y-132627976D02*
X157757200Y-132723214D01*
X157757200Y-132723214D02*
X157804819Y-132818452D01*
X157804819Y-132818452D02*
X157804819Y-133008928D01*
X157804819Y-131627976D02*
X157804819Y-132199404D01*
X157804819Y-131913690D02*
X156804819Y-131913690D01*
X156804819Y-131913690D02*
X156947676Y-132008928D01*
X156947676Y-132008928D02*
X157042914Y-132104166D01*
X157042914Y-132104166D02*
X157090533Y-132199404D01*
X137081905Y-143669819D02*
X137081905Y-142669819D01*
X137653333Y-143669819D02*
X137224762Y-143098390D01*
X137653333Y-142669819D02*
X137081905Y-143241247D01*
X138605714Y-143669819D02*
X138034286Y-143669819D01*
X138320000Y-143669819D02*
X138320000Y-142669819D01*
X138320000Y-142669819D02*
X138224762Y-142812676D01*
X138224762Y-142812676D02*
X138129524Y-142907914D01*
X138129524Y-142907914D02*
X138034286Y-142955533D01*
X172894666Y-129712819D02*
X172894666Y-130427104D01*
X172894666Y-130427104D02*
X172847047Y-130569961D01*
X172847047Y-130569961D02*
X172751809Y-130665200D01*
X172751809Y-130665200D02*
X172608952Y-130712819D01*
X172608952Y-130712819D02*
X172513714Y-130712819D01*
X173275619Y-129712819D02*
X173894666Y-129712819D01*
X173894666Y-129712819D02*
X173561333Y-130093771D01*
X173561333Y-130093771D02*
X173704190Y-130093771D01*
X173704190Y-130093771D02*
X173799428Y-130141390D01*
X173799428Y-130141390D02*
X173847047Y-130189009D01*
X173847047Y-130189009D02*
X173894666Y-130284247D01*
X173894666Y-130284247D02*
X173894666Y-130522342D01*
X173894666Y-130522342D02*
X173847047Y-130617580D01*
X173847047Y-130617580D02*
X173799428Y-130665200D01*
X173799428Y-130665200D02*
X173704190Y-130712819D01*
X173704190Y-130712819D02*
X173418476Y-130712819D01*
X173418476Y-130712819D02*
X173323238Y-130665200D01*
X173323238Y-130665200D02*
X173275619Y-130617580D01*
X154733333Y-121554819D02*
X154400000Y-121078628D01*
X154161905Y-121554819D02*
X154161905Y-120554819D01*
X154161905Y-120554819D02*
X154542857Y-120554819D01*
X154542857Y-120554819D02*
X154638095Y-120602438D01*
X154638095Y-120602438D02*
X154685714Y-120650057D01*
X154685714Y-120650057D02*
X154733333Y-120745295D01*
X154733333Y-120745295D02*
X154733333Y-120888152D01*
X154733333Y-120888152D02*
X154685714Y-120983390D01*
X154685714Y-120983390D02*
X154638095Y-121031009D01*
X154638095Y-121031009D02*
X154542857Y-121078628D01*
X154542857Y-121078628D02*
X154161905Y-121078628D01*
X155209524Y-121554819D02*
X155400000Y-121554819D01*
X155400000Y-121554819D02*
X155495238Y-121507200D01*
X155495238Y-121507200D02*
X155542857Y-121459580D01*
X155542857Y-121459580D02*
X155638095Y-121316723D01*
X155638095Y-121316723D02*
X155685714Y-121126247D01*
X155685714Y-121126247D02*
X155685714Y-120745295D01*
X155685714Y-120745295D02*
X155638095Y-120650057D01*
X155638095Y-120650057D02*
X155590476Y-120602438D01*
X155590476Y-120602438D02*
X155495238Y-120554819D01*
X155495238Y-120554819D02*
X155304762Y-120554819D01*
X155304762Y-120554819D02*
X155209524Y-120602438D01*
X155209524Y-120602438D02*
X155161905Y-120650057D01*
X155161905Y-120650057D02*
X155114286Y-120745295D01*
X155114286Y-120745295D02*
X155114286Y-120983390D01*
X155114286Y-120983390D02*
X155161905Y-121078628D01*
X155161905Y-121078628D02*
X155209524Y-121126247D01*
X155209524Y-121126247D02*
X155304762Y-121173866D01*
X155304762Y-121173866D02*
X155495238Y-121173866D01*
X155495238Y-121173866D02*
X155590476Y-121126247D01*
X155590476Y-121126247D02*
X155638095Y-121078628D01*
X155638095Y-121078628D02*
X155685714Y-120983390D01*
X153632142Y-125884819D02*
X153298809Y-125408628D01*
X153060714Y-125884819D02*
X153060714Y-124884819D01*
X153060714Y-124884819D02*
X153441666Y-124884819D01*
X153441666Y-124884819D02*
X153536904Y-124932438D01*
X153536904Y-124932438D02*
X153584523Y-124980057D01*
X153584523Y-124980057D02*
X153632142Y-125075295D01*
X153632142Y-125075295D02*
X153632142Y-125218152D01*
X153632142Y-125218152D02*
X153584523Y-125313390D01*
X153584523Y-125313390D02*
X153536904Y-125361009D01*
X153536904Y-125361009D02*
X153441666Y-125408628D01*
X153441666Y-125408628D02*
X153060714Y-125408628D01*
X154584523Y-125884819D02*
X154013095Y-125884819D01*
X154298809Y-125884819D02*
X154298809Y-124884819D01*
X154298809Y-124884819D02*
X154203571Y-125027676D01*
X154203571Y-125027676D02*
X154108333Y-125122914D01*
X154108333Y-125122914D02*
X154013095Y-125170533D01*
X155203571Y-124884819D02*
X155298809Y-124884819D01*
X155298809Y-124884819D02*
X155394047Y-124932438D01*
X155394047Y-124932438D02*
X155441666Y-124980057D01*
X155441666Y-124980057D02*
X155489285Y-125075295D01*
X155489285Y-125075295D02*
X155536904Y-125265771D01*
X155536904Y-125265771D02*
X155536904Y-125503866D01*
X155536904Y-125503866D02*
X155489285Y-125694342D01*
X155489285Y-125694342D02*
X155441666Y-125789580D01*
X155441666Y-125789580D02*
X155394047Y-125837200D01*
X155394047Y-125837200D02*
X155298809Y-125884819D01*
X155298809Y-125884819D02*
X155203571Y-125884819D01*
X155203571Y-125884819D02*
X155108333Y-125837200D01*
X155108333Y-125837200D02*
X155060714Y-125789580D01*
X155060714Y-125789580D02*
X155013095Y-125694342D01*
X155013095Y-125694342D02*
X154965476Y-125503866D01*
X154965476Y-125503866D02*
X154965476Y-125265771D01*
X154965476Y-125265771D02*
X155013095Y-125075295D01*
X155013095Y-125075295D02*
X155060714Y-124980057D01*
X155060714Y-124980057D02*
X155108333Y-124932438D01*
X155108333Y-124932438D02*
X155203571Y-124884819D01*
X127664820Y-123889284D02*
X126664820Y-123889284D01*
X126664820Y-123889284D02*
X126664820Y-123508332D01*
X126664820Y-123508332D02*
X126712439Y-123413094D01*
X126712439Y-123413094D02*
X126760058Y-123365475D01*
X126760058Y-123365475D02*
X126855296Y-123317856D01*
X126855296Y-123317856D02*
X126998153Y-123317856D01*
X126998153Y-123317856D02*
X127093391Y-123365475D01*
X127093391Y-123365475D02*
X127141010Y-123413094D01*
X127141010Y-123413094D02*
X127188629Y-123508332D01*
X127188629Y-123508332D02*
X127188629Y-123889284D01*
X127617201Y-122936903D02*
X127664820Y-122794046D01*
X127664820Y-122794046D02*
X127664820Y-122555951D01*
X127664820Y-122555951D02*
X127617201Y-122460713D01*
X127617201Y-122460713D02*
X127569581Y-122413094D01*
X127569581Y-122413094D02*
X127474343Y-122365475D01*
X127474343Y-122365475D02*
X127379105Y-122365475D01*
X127379105Y-122365475D02*
X127283867Y-122413094D01*
X127283867Y-122413094D02*
X127236248Y-122460713D01*
X127236248Y-122460713D02*
X127188629Y-122555951D01*
X127188629Y-122555951D02*
X127141010Y-122746427D01*
X127141010Y-122746427D02*
X127093391Y-122841665D01*
X127093391Y-122841665D02*
X127045772Y-122889284D01*
X127045772Y-122889284D02*
X126950534Y-122936903D01*
X126950534Y-122936903D02*
X126855296Y-122936903D01*
X126855296Y-122936903D02*
X126760058Y-122889284D01*
X126760058Y-122889284D02*
X126712439Y-122841665D01*
X126712439Y-122841665D02*
X126664820Y-122746427D01*
X126664820Y-122746427D02*
X126664820Y-122508332D01*
X126664820Y-122508332D02*
X126712439Y-122365475D01*
X127664820Y-121413094D02*
X127664820Y-121984522D01*
X127664820Y-121698808D02*
X126664820Y-121698808D01*
X126664820Y-121698808D02*
X126807677Y-121794046D01*
X126807677Y-121794046D02*
X126902915Y-121889284D01*
X126902915Y-121889284D02*
X126950534Y-121984522D01*
X152894819Y-136866094D02*
X151894819Y-136866094D01*
X151894819Y-136866094D02*
X151894819Y-136627999D01*
X151894819Y-136627999D02*
X151942438Y-136485142D01*
X151942438Y-136485142D02*
X152037676Y-136389904D01*
X152037676Y-136389904D02*
X152132914Y-136342285D01*
X152132914Y-136342285D02*
X152323390Y-136294666D01*
X152323390Y-136294666D02*
X152466247Y-136294666D01*
X152466247Y-136294666D02*
X152656723Y-136342285D01*
X152656723Y-136342285D02*
X152751961Y-136389904D01*
X152751961Y-136389904D02*
X152847200Y-136485142D01*
X152847200Y-136485142D02*
X152894819Y-136627999D01*
X152894819Y-136627999D02*
X152894819Y-136866094D01*
X152894819Y-135342285D02*
X152894819Y-135913713D01*
X152894819Y-135627999D02*
X151894819Y-135627999D01*
X151894819Y-135627999D02*
X152037676Y-135723237D01*
X152037676Y-135723237D02*
X152132914Y-135818475D01*
X152132914Y-135818475D02*
X152180533Y-135913713D01*
X178400666Y-105709819D02*
X178400666Y-106424104D01*
X178400666Y-106424104D02*
X178353047Y-106566961D01*
X178353047Y-106566961D02*
X178257809Y-106662200D01*
X178257809Y-106662200D02*
X178114952Y-106709819D01*
X178114952Y-106709819D02*
X178019714Y-106709819D01*
X179305428Y-106043152D02*
X179305428Y-106709819D01*
X179067333Y-105662200D02*
X178829238Y-106376485D01*
X178829238Y-106376485D02*
X179448285Y-106376485D01*
X126124819Y-111333333D02*
X126839104Y-111333333D01*
X126839104Y-111333333D02*
X126981961Y-111380952D01*
X126981961Y-111380952D02*
X127077200Y-111476190D01*
X127077200Y-111476190D02*
X127124819Y-111619047D01*
X127124819Y-111619047D02*
X127124819Y-111714285D01*
X127124819Y-110333333D02*
X127124819Y-110904761D01*
X127124819Y-110619047D02*
X126124819Y-110619047D01*
X126124819Y-110619047D02*
X126267676Y-110714285D01*
X126267676Y-110714285D02*
X126362914Y-110809523D01*
X126362914Y-110809523D02*
X126410533Y-110904761D01*
X126124819Y-126833333D02*
X126839104Y-126833333D01*
X126839104Y-126833333D02*
X126981961Y-126880952D01*
X126981961Y-126880952D02*
X127077200Y-126976190D01*
X127077200Y-126976190D02*
X127124819Y-127119047D01*
X127124819Y-127119047D02*
X127124819Y-127214285D01*
X126220057Y-126404761D02*
X126172438Y-126357142D01*
X126172438Y-126357142D02*
X126124819Y-126261904D01*
X126124819Y-126261904D02*
X126124819Y-126023809D01*
X126124819Y-126023809D02*
X126172438Y-125928571D01*
X126172438Y-125928571D02*
X126220057Y-125880952D01*
X126220057Y-125880952D02*
X126315295Y-125833333D01*
X126315295Y-125833333D02*
X126410533Y-125833333D01*
X126410533Y-125833333D02*
X126553390Y-125880952D01*
X126553390Y-125880952D02*
X127124819Y-126452380D01*
X127124819Y-126452380D02*
X127124819Y-125833333D01*
X164038095Y-129704819D02*
X164038095Y-130514342D01*
X164038095Y-130514342D02*
X164085714Y-130609580D01*
X164085714Y-130609580D02*
X164133333Y-130657200D01*
X164133333Y-130657200D02*
X164228571Y-130704819D01*
X164228571Y-130704819D02*
X164419047Y-130704819D01*
X164419047Y-130704819D02*
X164514285Y-130657200D01*
X164514285Y-130657200D02*
X164561904Y-130609580D01*
X164561904Y-130609580D02*
X164609523Y-130514342D01*
X164609523Y-130514342D02*
X164609523Y-129704819D01*
X165609523Y-130704819D02*
X165038095Y-130704819D01*
X165323809Y-130704819D02*
X165323809Y-129704819D01*
X165323809Y-129704819D02*
X165228571Y-129847676D01*
X165228571Y-129847676D02*
X165133333Y-129942914D01*
X165133333Y-129942914D02*
X165038095Y-129990533D01*
X165826905Y-141269819D02*
X165826905Y-140269819D01*
X165826905Y-140269819D02*
X166065000Y-140269819D01*
X166065000Y-140269819D02*
X166207857Y-140317438D01*
X166207857Y-140317438D02*
X166303095Y-140412676D01*
X166303095Y-140412676D02*
X166350714Y-140507914D01*
X166350714Y-140507914D02*
X166398333Y-140698390D01*
X166398333Y-140698390D02*
X166398333Y-140841247D01*
X166398333Y-140841247D02*
X166350714Y-141031723D01*
X166350714Y-141031723D02*
X166303095Y-141126961D01*
X166303095Y-141126961D02*
X166207857Y-141222200D01*
X166207857Y-141222200D02*
X166065000Y-141269819D01*
X166065000Y-141269819D02*
X165826905Y-141269819D01*
X167255476Y-140603152D02*
X167255476Y-141269819D01*
X167017381Y-140222200D02*
X166779286Y-140936485D01*
X166779286Y-140936485D02*
X167398333Y-140936485D01*
X169182142Y-141524819D02*
X168848809Y-141048628D01*
X168610714Y-141524819D02*
X168610714Y-140524819D01*
X168610714Y-140524819D02*
X168991666Y-140524819D01*
X168991666Y-140524819D02*
X169086904Y-140572438D01*
X169086904Y-140572438D02*
X169134523Y-140620057D01*
X169134523Y-140620057D02*
X169182142Y-140715295D01*
X169182142Y-140715295D02*
X169182142Y-140858152D01*
X169182142Y-140858152D02*
X169134523Y-140953390D01*
X169134523Y-140953390D02*
X169086904Y-141001009D01*
X169086904Y-141001009D02*
X168991666Y-141048628D01*
X168991666Y-141048628D02*
X168610714Y-141048628D01*
X170134523Y-141524819D02*
X169563095Y-141524819D01*
X169848809Y-141524819D02*
X169848809Y-140524819D01*
X169848809Y-140524819D02*
X169753571Y-140667676D01*
X169753571Y-140667676D02*
X169658333Y-140762914D01*
X169658333Y-140762914D02*
X169563095Y-140810533D01*
X170467857Y-140524819D02*
X171086904Y-140524819D01*
X171086904Y-140524819D02*
X170753571Y-140905771D01*
X170753571Y-140905771D02*
X170896428Y-140905771D01*
X170896428Y-140905771D02*
X170991666Y-140953390D01*
X170991666Y-140953390D02*
X171039285Y-141001009D01*
X171039285Y-141001009D02*
X171086904Y-141096247D01*
X171086904Y-141096247D02*
X171086904Y-141334342D01*
X171086904Y-141334342D02*
X171039285Y-141429580D01*
X171039285Y-141429580D02*
X170991666Y-141477200D01*
X170991666Y-141477200D02*
X170896428Y-141524819D01*
X170896428Y-141524819D02*
X170610714Y-141524819D01*
X170610714Y-141524819D02*
X170515476Y-141477200D01*
X170515476Y-141477200D02*
X170467857Y-141429580D01*
X166642261Y-137800057D02*
X166547023Y-137752438D01*
X166547023Y-137752438D02*
X166451785Y-137657200D01*
X166451785Y-137657200D02*
X166308928Y-137514342D01*
X166308928Y-137514342D02*
X166213690Y-137466723D01*
X166213690Y-137466723D02*
X166118452Y-137466723D01*
X166166071Y-137704819D02*
X166070833Y-137657200D01*
X166070833Y-137657200D02*
X165975595Y-137561961D01*
X165975595Y-137561961D02*
X165927976Y-137371485D01*
X165927976Y-137371485D02*
X165927976Y-137038152D01*
X165927976Y-137038152D02*
X165975595Y-136847676D01*
X165975595Y-136847676D02*
X166070833Y-136752438D01*
X166070833Y-136752438D02*
X166166071Y-136704819D01*
X166166071Y-136704819D02*
X166356547Y-136704819D01*
X166356547Y-136704819D02*
X166451785Y-136752438D01*
X166451785Y-136752438D02*
X166547023Y-136847676D01*
X166547023Y-136847676D02*
X166594642Y-137038152D01*
X166594642Y-137038152D02*
X166594642Y-137371485D01*
X166594642Y-137371485D02*
X166547023Y-137561961D01*
X166547023Y-137561961D02*
X166451785Y-137657200D01*
X166451785Y-137657200D02*
X166356547Y-137704819D01*
X166356547Y-137704819D02*
X166166071Y-137704819D01*
X166975595Y-136800057D02*
X167023214Y-136752438D01*
X167023214Y-136752438D02*
X167118452Y-136704819D01*
X167118452Y-136704819D02*
X167356547Y-136704819D01*
X167356547Y-136704819D02*
X167451785Y-136752438D01*
X167451785Y-136752438D02*
X167499404Y-136800057D01*
X167499404Y-136800057D02*
X167547023Y-136895295D01*
X167547023Y-136895295D02*
X167547023Y-136990533D01*
X167547023Y-136990533D02*
X167499404Y-137133390D01*
X167499404Y-137133390D02*
X166927976Y-137704819D01*
X166927976Y-137704819D02*
X167547023Y-137704819D01*
D12*
X162290580Y-135390000D02*
X162009420Y-135390000D01*
X162290580Y-136410000D02*
X162009420Y-136410000D01*
X154490000Y-126634420D02*
X154490000Y-126915580D01*
X155510000Y-126634420D02*
X155510000Y-126915580D01*
X167290000Y-133409420D02*
X167290000Y-133690580D01*
X168310000Y-133409420D02*
X168310000Y-133690580D01*
X154712258Y-115577500D02*
X154237742Y-115577500D01*
X154712258Y-116622500D02*
X154237742Y-116622500D01*
X154662258Y-111577500D02*
X154187742Y-111577500D01*
X154662258Y-112622500D02*
X154187742Y-112622500D01*
X176880742Y-119277500D02*
X177355258Y-119277500D01*
X176880742Y-120322500D02*
X177355258Y-120322500D01*
X174991500Y-125539258D02*
X174991500Y-125064742D01*
X176036500Y-125539258D02*
X176036500Y-125064742D01*
X176880742Y-121143500D02*
X177355258Y-121143500D01*
X176880742Y-122188500D02*
X177355258Y-122188500D01*
X156980000Y-103450000D02*
X173220000Y-103450000D01*
X156980000Y-111070000D02*
X156370000Y-111070000D01*
X156980000Y-111070000D02*
X156980000Y-103450000D01*
X156980000Y-127690000D02*
X156980000Y-127070000D01*
X159100000Y-127690000D02*
X156980000Y-127690000D01*
X173220000Y-103450000D02*
X173220000Y-111070000D01*
X173220000Y-127070000D02*
X173220000Y-127690000D01*
X173220000Y-127690000D02*
X171100000Y-127690000D01*
X153390000Y-132437500D02*
X153390000Y-131787500D01*
X153390000Y-132437500D02*
X153390000Y-133087500D01*
X156510000Y-132437500D02*
X156510000Y-131787500D01*
X156510000Y-132437500D02*
X156510000Y-133087500D01*
X156460000Y-131275000D02*
X156790000Y-131035000D01*
X156790000Y-131515000D01*
X156460000Y-131275000D01*
G36*
X156790000Y-131515000D02*
G01*
X156460000Y-131275000D01*
X156790000Y-131035000D01*
X156790000Y-131515000D01*
G37*
X127860000Y-131025000D02*
X127860000Y-142025000D01*
X129540000Y-133985000D02*
X129540000Y-135255000D01*
X132080000Y-136525000D02*
X129290000Y-137925000D01*
X137160000Y-133985000D02*
X137160000Y-136525000D01*
X137160000Y-136525000D02*
X132080000Y-136525000D01*
X144270000Y-135005000D02*
X144780000Y-135005000D01*
X144270000Y-137545000D02*
X144270000Y-135005000D01*
X144780000Y-132715000D02*
X144780000Y-135005000D01*
X144780000Y-135005000D02*
X145290000Y-135005000D01*
X144780000Y-137545000D02*
X144270000Y-137545000D01*
X144780000Y-137545000D02*
X144780000Y-140335000D01*
X144780000Y-140335000D02*
X146050000Y-140335000D01*
X145290000Y-135005000D02*
X145290000Y-137545000D01*
X145290000Y-135765000D02*
X144270000Y-136775000D01*
X145290000Y-137545000D02*
X144780000Y-137545000D01*
X146050000Y-132715000D02*
X144780000Y-132715000D01*
X149000000Y-131025000D02*
X127860000Y-131025000D01*
X149000000Y-131025000D02*
X149000000Y-142025000D01*
X149000000Y-142025000D02*
X127860000Y-142025000D01*
X132210000Y-136525000D02*
G75*
G02*
X131950000Y-136525000I-130000J0D01*
G01*
X131950000Y-136525000D02*
G75*
G02*
X132210000Y-136525000I130000J0D01*
G01*
X170628000Y-131258000D02*
X173228000Y-131258000D01*
X170628000Y-138998000D02*
X170628000Y-131258000D01*
X173228000Y-131258000D02*
X173228000Y-133858000D01*
X173228000Y-133858000D02*
X175828000Y-133858000D01*
X175828000Y-131258000D02*
X174558000Y-131258000D01*
X175828000Y-132588000D02*
X175828000Y-131258000D01*
X175828000Y-133858000D02*
X175828000Y-138998000D01*
X175828000Y-138998000D02*
X170628000Y-138998000D01*
X154512258Y-121977500D02*
X154037742Y-121977500D01*
X154512258Y-123022500D02*
X154037742Y-123022500D01*
X154512258Y-123477500D02*
X154037742Y-123477500D01*
X154512258Y-124522500D02*
X154037742Y-124522500D01*
X128060001Y-123874999D02*
X128060001Y-117874999D01*
X128390001Y-90904999D02*
X150830001Y-90904999D01*
X128390001Y-124844999D02*
X128390001Y-90904999D01*
X150830001Y-124844999D02*
X128390001Y-124844999D01*
X150830001Y-124844999D02*
X150830001Y-90904999D01*
X153360000Y-135368000D02*
X153360000Y-137528000D01*
X153360000Y-135368000D02*
X154290000Y-135368000D01*
X156520000Y-135368000D02*
X155590000Y-135368000D01*
X156520000Y-135368000D02*
X156520000Y-136828000D01*
X175644000Y-107320000D02*
X176969000Y-107320000D01*
X176969000Y-107255000D02*
X176969000Y-107320000D01*
X176969000Y-107255000D02*
X180499000Y-107255000D01*
X176969000Y-111120000D02*
X176969000Y-111185000D01*
X176969000Y-111185000D02*
X180499000Y-111185000D01*
X180499000Y-107255000D02*
X180499000Y-107320000D01*
X180499000Y-111120000D02*
X180499000Y-111185000D01*
X120990000Y-104565000D02*
X120990000Y-117435000D01*
X120990000Y-117435000D02*
X124065000Y-117435000D01*
X124065000Y-104565000D02*
X120990000Y-104565000D01*
X125080000Y-105985000D02*
X125080000Y-116015000D01*
X125080000Y-116015000D02*
X125580000Y-116015000D01*
X125580000Y-105985000D02*
X125080000Y-105985000D01*
X125580000Y-106005000D02*
X125580000Y-105985000D01*
X125580000Y-116015000D02*
X125580000Y-115995000D01*
X120990000Y-121565000D02*
X120990000Y-131435000D01*
X120990000Y-131435000D02*
X124065000Y-131435000D01*
X124065000Y-121565000D02*
X120990000Y-121565000D01*
X125080000Y-122985000D02*
X125080000Y-130015000D01*
X125080000Y-130015000D02*
X125580000Y-130015000D01*
X125580000Y-122985000D02*
X125080000Y-122985000D01*
X125580000Y-123005000D02*
X125580000Y-122985000D01*
X125580000Y-130015000D02*
X125580000Y-129995000D01*
X163900000Y-134760000D02*
X165700000Y-134760000D01*
X165700000Y-131540000D02*
X163250000Y-131540000D01*
X164880000Y-141505000D02*
X164880000Y-143425000D01*
X164880000Y-143425000D02*
X167565000Y-143425000D01*
X167565000Y-141505000D02*
X164880000Y-141505000D01*
X169587742Y-141977500D02*
X170062258Y-141977500D01*
X169587742Y-143022500D02*
X170062258Y-143022500D01*
X166737500Y-138090000D02*
X166087500Y-138090000D01*
X166737500Y-138090000D02*
X167387500Y-138090000D01*
X166737500Y-141210000D02*
X166087500Y-141210000D01*
X166737500Y-141210000D02*
X167387500Y-141210000D01*
X165575000Y-138140000D02*
X165335000Y-137810000D01*
X165815000Y-137810000D01*
X165575000Y-138140000D01*
G36*
X165575000Y-138140000D02*
G01*
X165335000Y-137810000D01*
X165815000Y-137810000D01*
X165575000Y-138140000D01*
G37*
M02*
