G04 #@! TF.GenerationSoftware,KiCad,Pcbnew,10.0.3*
G04 #@! TF.CreationDate,2026-05-25T14:53:53+02:00*
G04 #@! TF.ProjectId,loftrelayRound,6c6f6674-7265-46c6-9179-526f756e642e,rev?*
G04 #@! TF.SameCoordinates,Original*
G04 #@! TF.FileFunction,Copper,L1,Top*
G04 #@! TF.FilePolarity,Positive*
%FSLAX46Y46*%
G04 Gerber Fmt 4.6, Leading zero omitted, Abs format (unit mm)*
G04 Created by KiCad (PCBNEW 10.0.3) date 2026-05-25 14:53:53*
%MOMM*%
%LPD*%
G01*
G04 APERTURE LIST*
G04 Aperture macros list*
%AMRoundRect*
0 Rectangle with rounded corners*
0 $1 Rounding radius*
0 $2 $3 $4 $5 $6 $7 $8 $9 X,Y pos of 4 corners*
0 Add a 4 corners polygon primitive as box body*
4,1,4,$2,$3,$4,$5,$6,$7,$8,$9,$2,$3,0*
0 Add four circle primitives for the rounded corners*
1,1,$1+$1,$2,$3*
1,1,$1+$1,$4,$5*
1,1,$1+$1,$6,$7*
1,1,$1+$1,$8,$9*
0 Add four rect primitives between the rounded corners*
20,1,$1+$1,$2,$3,$4,$5,0*
20,1,$1+$1,$4,$5,$6,$7,0*
20,1,$1+$1,$6,$7,$8,$9,0*
20,1,$1+$1,$8,$9,$2,$3,0*%
G04 Aperture macros list end*
G04 #@! TA.AperFunction,SMDPad,CuDef*
%ADD10RoundRect,0.225000X0.225000X0.250000X-0.225000X0.250000X-0.225000X-0.250000X0.225000X-0.250000X0*%
G04 #@! TD*
G04 #@! TA.AperFunction,SMDPad,CuDef*
%ADD11RoundRect,0.225000X-0.250000X0.225000X-0.250000X-0.225000X0.250000X-0.225000X0.250000X0.225000X0*%
G04 #@! TD*
G04 #@! TA.AperFunction,SMDPad,CuDef*
%ADD12RoundRect,0.200000X0.200000X0.275000X-0.200000X0.275000X-0.200000X-0.275000X0.200000X-0.275000X0*%
G04 #@! TD*
G04 #@! TA.AperFunction,SMDPad,CuDef*
%ADD13RoundRect,0.200000X-0.200000X-0.275000X0.200000X-0.275000X0.200000X0.275000X-0.200000X0.275000X0*%
G04 #@! TD*
G04 #@! TA.AperFunction,SMDPad,CuDef*
%ADD14RoundRect,0.200000X0.275000X-0.200000X0.275000X0.200000X-0.275000X0.200000X-0.275000X-0.200000X0*%
G04 #@! TD*
G04 #@! TA.AperFunction,SMDPad,CuDef*
%ADD15R,2.500000X1.000000*%
G04 #@! TD*
G04 #@! TA.AperFunction,SMDPad,CuDef*
%ADD16R,1.000000X1.800000*%
G04 #@! TD*
G04 #@! TA.AperFunction,SMDPad,CuDef*
%ADD17RoundRect,0.150000X-0.150000X0.587500X-0.150000X-0.587500X0.150000X-0.587500X0.150000X0.587500X0*%
G04 #@! TD*
G04 #@! TA.AperFunction,ComponentPad*
%ADD18R,2.300000X2.300000*%
G04 #@! TD*
G04 #@! TA.AperFunction,ComponentPad*
%ADD19C,2.300000*%
G04 #@! TD*
G04 #@! TA.AperFunction,ComponentPad*
%ADD20R,1.700000X1.700000*%
G04 #@! TD*
G04 #@! TA.AperFunction,ComponentPad*
%ADD21O,1.700000X1.700000*%
G04 #@! TD*
G04 #@! TA.AperFunction,ComponentPad*
%ADD22R,2.000000X2.300000*%
G04 #@! TD*
G04 #@! TA.AperFunction,SMDPad,CuDef*
%ADD23R,0.800000X0.900000*%
G04 #@! TD*
G04 #@! TA.AperFunction,SMDPad,CuDef*
%ADD24R,2.400000X0.740000*%
G04 #@! TD*
G04 #@! TA.AperFunction,ComponentPad*
%ADD25RoundRect,0.250001X-0.759999X0.499999X-0.759999X-0.499999X0.759999X-0.499999X0.759999X0.499999X0*%
G04 #@! TD*
G04 #@! TA.AperFunction,ComponentPad*
%ADD26O,2.020000X1.500000*%
G04 #@! TD*
G04 #@! TA.AperFunction,SMDPad,CuDef*
%ADD27R,1.060000X0.650000*%
G04 #@! TD*
G04 #@! TA.AperFunction,SMDPad,CuDef*
%ADD28RoundRect,0.243750X-0.243750X-0.456250X0.243750X-0.456250X0.243750X0.456250X-0.243750X0.456250X0*%
G04 #@! TD*
G04 #@! TA.AperFunction,SMDPad,CuDef*
%ADD29RoundRect,0.150000X-0.587500X-0.150000X0.587500X-0.150000X0.587500X0.150000X-0.587500X0.150000X0*%
G04 #@! TD*
G04 #@! TA.AperFunction,ViaPad*
%ADD30C,0.800000*%
G04 #@! TD*
G04 #@! TA.AperFunction,Conductor*
%ADD31C,1.270000*%
G04 #@! TD*
G04 #@! TA.AperFunction,Conductor*
%ADD32C,0.508000*%
G04 #@! TD*
G04 #@! TA.AperFunction,Conductor*
%ADD33C,0.254000*%
G04 #@! TD*
G04 #@! TA.AperFunction,Conductor*
%ADD34C,0.250000*%
G04 #@! TD*
G04 APERTURE END LIST*
D10*
X162925000Y-135900000D03*
X161375000Y-135900000D03*
D11*
X155000000Y-126000000D03*
X155000000Y-127550000D03*
X167800000Y-132775000D03*
X167800000Y-134325000D03*
D12*
X155300000Y-116100000D03*
X153650000Y-116100000D03*
X155250000Y-112100000D03*
X153600000Y-112100000D03*
D13*
X176293000Y-119800000D03*
X177943000Y-119800000D03*
D14*
X175514000Y-126127000D03*
X175514000Y-124477000D03*
D13*
X176293000Y-121666000D03*
X177943000Y-121666000D03*
D15*
X157500000Y-112070000D03*
X157500000Y-114070000D03*
X157500000Y-116070000D03*
X157500000Y-118070000D03*
X157500000Y-120070000D03*
X157500000Y-122070000D03*
X157500000Y-124070000D03*
X157500000Y-126070000D03*
D16*
X160100000Y-127570000D03*
X162100000Y-127570000D03*
X164100000Y-127570000D03*
X166100000Y-127570000D03*
X168100000Y-127570000D03*
X170100000Y-127570000D03*
D15*
X172700000Y-126070000D03*
X172700000Y-124070000D03*
X172700000Y-122070000D03*
X172700000Y-120070000D03*
X172700000Y-118070000D03*
X172700000Y-116070000D03*
X172700000Y-114070000D03*
X172700000Y-112070000D03*
D17*
X155900000Y-131500000D03*
X154000000Y-131500000D03*
X154950000Y-133375000D03*
D18*
X147320000Y-132715000D03*
D19*
X137160000Y-132715000D03*
X129540000Y-132715000D03*
X147320000Y-140335000D03*
D20*
X174498000Y-132588000D03*
D21*
X171958000Y-132588000D03*
X174498000Y-135128000D03*
X171958000Y-135128000D03*
X174498000Y-137668000D03*
X171958000Y-137668000D03*
D12*
X155100000Y-122500000D03*
X153450000Y-122500000D03*
X155100000Y-124000000D03*
X153450000Y-124000000D03*
D22*
X132010001Y-121874999D03*
D19*
X147210001Y-121874999D03*
X132010001Y-93874999D03*
X139610001Y-93874999D03*
D23*
X153990000Y-137128000D03*
X155890000Y-137128000D03*
X154940000Y-135128000D03*
D24*
X176784000Y-107950000D03*
X180684000Y-107950000D03*
X176784000Y-109220000D03*
X180684000Y-109220000D03*
X176784000Y-110490000D03*
X180684000Y-110490000D03*
D25*
X123000000Y-108000000D03*
D26*
X123000000Y-111000000D03*
X123000000Y-114000000D03*
D25*
X123000000Y-125000000D03*
D26*
X123000000Y-128000000D03*
D27*
X163700000Y-132200000D03*
X163700000Y-133150000D03*
X163700000Y-134100000D03*
X165900000Y-134100000D03*
X165900000Y-132200000D03*
D28*
X165627500Y-142465000D03*
X167502500Y-142465000D03*
D13*
X169000000Y-142500000D03*
X170650000Y-142500000D03*
D29*
X165800000Y-138700000D03*
X165800000Y-140600000D03*
X167675000Y-139650000D03*
D30*
X152000000Y-128000000D03*
X152000000Y-127000000D03*
X152000000Y-126000000D03*
X152000000Y-125000000D03*
X152000000Y-124000000D03*
X152000000Y-123000000D03*
X152000000Y-122000000D03*
X152000000Y-121000000D03*
X152000000Y-120000000D03*
X152000000Y-119000000D03*
X152000000Y-118000000D03*
X152000000Y-117000000D03*
X166000000Y-113000000D03*
X165000000Y-113000000D03*
X164000000Y-113000000D03*
X163000000Y-113000000D03*
X162000000Y-113000000D03*
X161000000Y-113000000D03*
X174000000Y-128000000D03*
X174000000Y-129000000D03*
X176000000Y-135000000D03*
X161000000Y-121000000D03*
X160000000Y-120000000D03*
X170000000Y-119000000D03*
X170000000Y-120000000D03*
X170000000Y-121000000D03*
X170000000Y-122000000D03*
X162000000Y-125000000D03*
X153000000Y-147000000D03*
X152400000Y-137668000D03*
X175910453Y-128609793D03*
X164800000Y-133200000D03*
X152654000Y-128016000D03*
X178054000Y-106426000D03*
X167800000Y-135200000D03*
X182118000Y-112014000D03*
X165200000Y-136100000D03*
X160700000Y-132588000D03*
X160600000Y-135900000D03*
X170500000Y-141600000D03*
X178308000Y-123444000D03*
X153650000Y-114700000D03*
X179578000Y-106680000D03*
X166800000Y-130302000D03*
X169926000Y-124206000D03*
X156464000Y-130556000D03*
X159400000Y-114200000D03*
X170600000Y-116000000D03*
X160274000Y-118110000D03*
X160274000Y-122174000D03*
X160274000Y-123952000D03*
D31*
X155890000Y-143810000D02*
X155500000Y-144200000D01*
X163400000Y-139500000D02*
X163400000Y-135900000D01*
D32*
X162977798Y-132200000D02*
X162600000Y-132577798D01*
D31*
X158700000Y-144200000D02*
X163400000Y-139500000D01*
D33*
X156178000Y-137128000D02*
X155890000Y-137128000D01*
D31*
X147320000Y-128080000D02*
X150200000Y-125200000D01*
X139610001Y-93874999D02*
X142274999Y-93874999D01*
X145400000Y-144200000D02*
X155500000Y-144200000D01*
D33*
X153990000Y-137128000D02*
X156178000Y-137128000D01*
D32*
X163400000Y-134400000D02*
X163700000Y-134100000D01*
X150300000Y-118500000D02*
X150300000Y-125100000D01*
X150300000Y-125100000D02*
X150200000Y-125200000D01*
D31*
X147320000Y-133980000D02*
X144200000Y-137100000D01*
D32*
X162800000Y-134100000D02*
X163700000Y-134100000D01*
D31*
X144200000Y-143000000D02*
X145400000Y-144200000D01*
X147320000Y-132715000D02*
X147320000Y-128080000D01*
X155890000Y-137128000D02*
X155890000Y-143810000D01*
D32*
X163400000Y-135900000D02*
X163400000Y-134400000D01*
X162600000Y-132577798D02*
X162600000Y-133900000D01*
D31*
X155500000Y-144200000D02*
X158700000Y-144200000D01*
X144200000Y-137100000D02*
X144200000Y-143000000D01*
D32*
X163700000Y-132200000D02*
X162977798Y-132200000D01*
X162600000Y-133900000D02*
X162800000Y-134100000D01*
D31*
X142274999Y-93874999D02*
X150300000Y-101900000D01*
X147320000Y-132715000D02*
X147320000Y-133980000D01*
X150300000Y-101900000D02*
X150300000Y-118500000D01*
D34*
X161375000Y-135900000D02*
X160600000Y-135900000D01*
X163700000Y-133150000D02*
X164750000Y-133150000D01*
X164750000Y-133150000D02*
X164800000Y-133200000D01*
X167800000Y-134325000D02*
X167800000Y-135200000D01*
D32*
X153450000Y-122500000D02*
X153450000Y-122150000D01*
X166800000Y-130302000D02*
X166098000Y-130302000D01*
X155000000Y-126000000D02*
X154200000Y-126000000D01*
X180684000Y-107786000D02*
X179578000Y-106680000D01*
X153400000Y-125200000D02*
X153450000Y-125150000D01*
D34*
X170650000Y-142500000D02*
X170650000Y-141750000D01*
D32*
X167800000Y-132300000D02*
X166000000Y-132300000D01*
X153650000Y-112150000D02*
X153600000Y-112100000D01*
X180684000Y-107950000D02*
X180684000Y-107786000D01*
X165900000Y-130500000D02*
X166098000Y-130302000D01*
X153450000Y-124000000D02*
X153450000Y-122500000D01*
D34*
X170650000Y-141750000D02*
X170500000Y-141600000D01*
D32*
X174498000Y-131230000D02*
X174498000Y-132588000D01*
D33*
X177943000Y-121666000D02*
X177943000Y-119800000D01*
D32*
X165900000Y-132200000D02*
X165900000Y-130500000D01*
X166098000Y-130302000D02*
X159102000Y-130302000D01*
X166000000Y-132300000D02*
X165900000Y-132200000D01*
X155070000Y-126070000D02*
X155000000Y-126000000D01*
X168910000Y-130302000D02*
X166800000Y-130302000D01*
X178308000Y-123444000D02*
X178308000Y-121826000D01*
X168910000Y-130302000D02*
X173570000Y-130302000D01*
X159102000Y-130302000D02*
X157500000Y-128700000D01*
X153650000Y-121950000D02*
X153650000Y-116100000D01*
X173570000Y-130302000D02*
X174498000Y-131230000D01*
X154200000Y-126000000D02*
X153400000Y-125200000D01*
X153650000Y-116100000D02*
X153650000Y-114700000D01*
X153450000Y-122150000D02*
X153650000Y-121950000D01*
X153650000Y-114700000D02*
X153650000Y-112150000D01*
X157500000Y-128700000D02*
X157500000Y-126070000D01*
X153450000Y-125150000D02*
X153450000Y-124000000D01*
X157500000Y-126070000D02*
X155070000Y-126070000D01*
D33*
X175330000Y-107950000D02*
X174244000Y-109036000D01*
X176784000Y-107950000D02*
X175330000Y-107950000D01*
X173736000Y-110998000D02*
X171196000Y-110998000D01*
X166124000Y-116070000D02*
X157500000Y-116070000D01*
X174244000Y-110490000D02*
X173736000Y-110998000D01*
D34*
X157470000Y-116100000D02*
X157500000Y-116070000D01*
X155300000Y-116100000D02*
X157470000Y-116100000D01*
D33*
X174244000Y-109036000D02*
X174244000Y-110490000D01*
X171196000Y-110998000D02*
X166124000Y-116070000D01*
D34*
X155250000Y-112100000D02*
X157470000Y-112100000D01*
X157470000Y-112100000D02*
X157500000Y-112070000D01*
D33*
X176845001Y-113498999D02*
X176845001Y-118722999D01*
X180684000Y-110490000D02*
X179854000Y-110490000D01*
D32*
X175768000Y-119800000D02*
X176293000Y-119800000D01*
X175498000Y-120070000D02*
X175768000Y-119800000D01*
D33*
X176845001Y-118722999D02*
X175768000Y-119800000D01*
D32*
X172700000Y-120070000D02*
X175498000Y-120070000D01*
D33*
X172882000Y-119888000D02*
X172700000Y-120070000D01*
X175868000Y-119888000D02*
X175768000Y-119888000D01*
X179854000Y-110490000D02*
X176845001Y-113498999D01*
D34*
X175514000Y-124477000D02*
X173107000Y-124477000D01*
D32*
X155956000Y-131572000D02*
X155956000Y-131064000D01*
X155956000Y-131064000D02*
X156464000Y-130556000D01*
D34*
X173107000Y-124477000D02*
X172700000Y-124070000D01*
D32*
X169926000Y-124206000D02*
X172564000Y-124206000D01*
X172564000Y-124206000D02*
X172700000Y-124070000D01*
X170926000Y-138700000D02*
X165800000Y-138700000D01*
X171958000Y-137668000D02*
X170926000Y-138700000D01*
X177453999Y-123853921D02*
X177453999Y-122826999D01*
X177546000Y-136549922D02*
X177546000Y-123945922D01*
X173262001Y-138972001D02*
X175123921Y-138972001D01*
X175123921Y-138972001D02*
X177546000Y-136549922D01*
X171958000Y-137668000D02*
X173262001Y-138972001D01*
X173104000Y-121666000D02*
X172700000Y-122070000D01*
X177546000Y-123945922D02*
X177453999Y-123853921D01*
X176293000Y-121666000D02*
X173104000Y-121666000D01*
X177453999Y-122826999D02*
X176293000Y-121666000D01*
D34*
X157630000Y-114200000D02*
X157500000Y-114070000D01*
X172630000Y-116000000D02*
X172700000Y-116070000D01*
X159400000Y-114200000D02*
X157630000Y-114200000D01*
X170600000Y-116000000D02*
X172630000Y-116000000D01*
D32*
X160274000Y-118110000D02*
X157540000Y-118110000D01*
X157540000Y-118110000D02*
X157500000Y-118070000D01*
X157604000Y-122174000D02*
X157500000Y-122070000D01*
D34*
X157070000Y-122500000D02*
X157500000Y-122070000D01*
X155100000Y-122500000D02*
X157070000Y-122500000D01*
D32*
X160274000Y-122174000D02*
X157604000Y-122174000D01*
X160274000Y-123952000D02*
X157618000Y-123952000D01*
D34*
X157430000Y-124000000D02*
X157500000Y-124070000D01*
D32*
X157618000Y-123952000D02*
X157500000Y-124070000D01*
D34*
X155100000Y-124000000D02*
X157430000Y-124000000D01*
D33*
X173450000Y-114070000D02*
X174752000Y-112768000D01*
X174752000Y-111692000D02*
X175954000Y-110490000D01*
X175954000Y-110490000D02*
X176784000Y-110490000D01*
X172700000Y-114070000D02*
X173450000Y-114070000D01*
X174752000Y-112768000D02*
X174752000Y-111692000D01*
X172700000Y-112070000D02*
X173172000Y-112070000D01*
X173990000Y-111506000D02*
X174752000Y-110744000D01*
X174752000Y-110744000D02*
X174752000Y-109728000D01*
X173736000Y-111506000D02*
X173990000Y-111506000D01*
X173172000Y-112070000D02*
X173736000Y-111506000D01*
X174752000Y-109728000D02*
X175260000Y-109220000D01*
X175260000Y-109220000D02*
X176784000Y-109220000D01*
X155006000Y-135062000D02*
X154940000Y-135128000D01*
X155006000Y-133572000D02*
X155006000Y-135062000D01*
D32*
X147320000Y-140335000D02*
X147320000Y-137668000D01*
X149860000Y-135128000D02*
X154940000Y-135128000D01*
X147320000Y-137668000D02*
X149860000Y-135128000D01*
D34*
X167675000Y-140417500D02*
X165627500Y-142465000D01*
X167675000Y-139650000D02*
X167675000Y-140417500D01*
X169000000Y-142500000D02*
X167537500Y-142500000D01*
X167537500Y-142500000D02*
X167502500Y-142465000D01*
G04 #@! TA.AperFunction,Conductor*
G36*
X177233202Y-138045223D02*
G01*
X177290038Y-138087770D01*
X177314849Y-138154290D01*
X177299758Y-138223664D01*
X177291589Y-138236671D01*
X176957067Y-138703495D01*
X176954611Y-138706807D01*
X176259893Y-139612182D01*
X176257329Y-139615412D01*
X175533386Y-140497539D01*
X175530719Y-140500683D01*
X174778276Y-141358679D01*
X174775507Y-141361734D01*
X173995385Y-142194662D01*
X173992517Y-142197624D01*
X173185624Y-143004517D01*
X173182662Y-143007385D01*
X172349734Y-143787507D01*
X172346679Y-143790276D01*
X171488683Y-144542719D01*
X171485539Y-144545386D01*
X170603412Y-145269329D01*
X170600182Y-145271893D01*
X169694807Y-145966611D01*
X169691495Y-145969067D01*
X168763891Y-146633779D01*
X168760501Y-146636125D01*
X167811645Y-147270130D01*
X167808180Y-147272364D01*
X166839090Y-147874983D01*
X166835553Y-147877103D01*
X165847264Y-148447692D01*
X165843660Y-148449695D01*
X164837223Y-148987647D01*
X164833555Y-148989531D01*
X163810069Y-149494257D01*
X163806342Y-149496020D01*
X162766876Y-149966997D01*
X162763093Y-149968637D01*
X161708776Y-150405350D01*
X161704942Y-150406865D01*
X160636896Y-150808849D01*
X160633013Y-150810238D01*
X159552429Y-151177047D01*
X159548504Y-151178309D01*
X158456429Y-151509585D01*
X158452464Y-151510717D01*
X157350185Y-151806073D01*
X157346185Y-151807075D01*
X156234788Y-152066215D01*
X156230758Y-152067085D01*
X155111522Y-152289715D01*
X155107466Y-152290453D01*
X153981525Y-152476347D01*
X153977446Y-152476952D01*
X152846024Y-152625907D01*
X152841928Y-152626378D01*
X152567647Y-152653393D01*
X152555297Y-152654000D01*
X151255421Y-152654000D01*
X151187300Y-152633998D01*
X151140807Y-152580342D01*
X151129422Y-152528581D01*
X151126097Y-151807075D01*
X151096894Y-145470079D01*
X151116582Y-145401868D01*
X151170023Y-145355129D01*
X151222893Y-145343500D01*
X158789994Y-145343500D01*
X158789996Y-145343500D01*
X158967770Y-145315344D01*
X159105337Y-145270645D01*
X159138952Y-145259723D01*
X159299325Y-145178009D01*
X159299326Y-145178008D01*
X159444941Y-145072213D01*
X164272213Y-140244940D01*
X164301614Y-140204473D01*
X164378009Y-140099325D01*
X164459723Y-139938952D01*
X164486643Y-139856100D01*
X164515344Y-139767770D01*
X164543500Y-139589995D01*
X164543500Y-139416451D01*
X164563502Y-139348330D01*
X164617158Y-139301837D01*
X164687432Y-139291733D01*
X164752012Y-139321227D01*
X164758595Y-139327356D01*
X164805689Y-139374450D01*
X164805696Y-139374455D01*
X164948894Y-139459143D01*
X164948897Y-139459143D01*
X164948899Y-139459145D01*
X165108669Y-139505562D01*
X165145988Y-139508499D01*
X165145989Y-139508500D01*
X165145998Y-139508500D01*
X166303000Y-139508500D01*
X166371121Y-139528502D01*
X166417614Y-139582158D01*
X166429000Y-139634500D01*
X166429000Y-139866511D01*
X166431937Y-139903828D01*
X166431937Y-139903829D01*
X166478356Y-140063605D01*
X166563044Y-140206803D01*
X166563049Y-140206810D01*
X166686298Y-140330059D01*
X166684086Y-140332270D01*
X166717141Y-140378022D01*
X166721005Y-140448913D01*
X166687451Y-140509143D01*
X165976999Y-141219595D01*
X165914687Y-141253621D01*
X165887904Y-141256500D01*
X165333625Y-141256500D01*
X165230600Y-141267025D01*
X165230597Y-141267025D01*
X165230596Y-141267026D01*
X165147885Y-141294433D01*
X165063670Y-141322339D01*
X164914001Y-141414656D01*
X164913995Y-141414661D01*
X164789661Y-141538995D01*
X164789656Y-141539001D01*
X164697339Y-141688670D01*
X164642025Y-141855600D01*
X164631500Y-141958616D01*
X164631500Y-142971374D01*
X164642025Y-143074399D01*
X164642026Y-143074404D01*
X164685977Y-143207041D01*
X164697339Y-143241329D01*
X164789656Y-143390998D01*
X164789661Y-143391004D01*
X164913995Y-143515338D01*
X164914001Y-143515343D01*
X164914002Y-143515344D01*
X165063671Y-143607661D01*
X165230596Y-143662974D01*
X165333625Y-143673500D01*
X165921374Y-143673499D01*
X166024404Y-143662974D01*
X166191329Y-143607661D01*
X166340998Y-143515344D01*
X166465344Y-143390998D01*
X166465348Y-143390990D01*
X166466162Y-143389963D01*
X166466908Y-143389434D01*
X166470534Y-143385809D01*
X166471153Y-143386428D01*
X166524102Y-143348933D01*
X166595027Y-143345741D01*
X166656418Y-143381401D01*
X166663838Y-143389963D01*
X166664661Y-143391004D01*
X166788995Y-143515338D01*
X166789001Y-143515343D01*
X166789002Y-143515344D01*
X166938671Y-143607661D01*
X167105596Y-143662974D01*
X167208625Y-143673500D01*
X167796374Y-143673499D01*
X167899404Y-143662974D01*
X168066329Y-143607661D01*
X168215998Y-143515344D01*
X168311659Y-143419682D01*
X168373969Y-143385659D01*
X168444785Y-143390723D01*
X168465935Y-143400949D01*
X168507087Y-143425827D01*
X168671351Y-143477013D01*
X168742735Y-143483500D01*
X169257264Y-143483499D01*
X169328649Y-143477013D01*
X169492913Y-143425827D01*
X169640155Y-143336816D01*
X169640160Y-143336811D01*
X169735905Y-143241067D01*
X169798217Y-143207041D01*
X169869032Y-143212106D01*
X169914095Y-143241067D01*
X170009839Y-143336811D01*
X170009844Y-143336815D01*
X170009845Y-143336816D01*
X170157087Y-143425827D01*
X170321351Y-143477013D01*
X170392735Y-143483500D01*
X170907264Y-143483499D01*
X170978649Y-143477013D01*
X171142913Y-143425827D01*
X171290155Y-143336816D01*
X171411816Y-143215155D01*
X171500827Y-143067913D01*
X171552013Y-142903649D01*
X171558500Y-142832265D01*
X171558499Y-142167736D01*
X171552013Y-142096351D01*
X171515925Y-141980539D01*
X171500829Y-141932093D01*
X171500827Y-141932088D01*
X171500827Y-141932087D01*
X171420333Y-141798935D01*
X171402210Y-141730291D01*
X171404584Y-141709167D01*
X171408499Y-141689486D01*
X171408500Y-141689477D01*
X171408500Y-141510522D01*
X171408499Y-141510518D01*
X171389431Y-141414656D01*
X171373587Y-141335000D01*
X171305102Y-141169664D01*
X171205678Y-141020865D01*
X171079135Y-140894322D01*
X170930336Y-140794898D01*
X170813429Y-140746473D01*
X170765003Y-140726414D01*
X170765001Y-140726413D01*
X170765000Y-140726413D01*
X170676645Y-140708838D01*
X170589481Y-140691500D01*
X170589479Y-140691500D01*
X170410521Y-140691500D01*
X170410518Y-140691500D01*
X170279771Y-140717507D01*
X170235000Y-140726413D01*
X170234999Y-140726413D01*
X170234996Y-140726414D01*
X170069662Y-140794899D01*
X169920869Y-140894319D01*
X169920862Y-140894324D01*
X169794324Y-141020862D01*
X169794322Y-141020865D01*
X169694898Y-141169664D01*
X169680575Y-141204243D01*
X169626415Y-141334996D01*
X169626413Y-141335000D01*
X169615654Y-141389086D01*
X169601151Y-141461999D01*
X169568243Y-141524909D01*
X169506548Y-141560040D01*
X169440087Y-141557712D01*
X169395531Y-141543828D01*
X169328649Y-141522987D01*
X169328647Y-141522986D01*
X169328645Y-141522986D01*
X169278667Y-141518444D01*
X169257265Y-141516500D01*
X169257262Y-141516500D01*
X168742738Y-141516500D01*
X168671353Y-141522986D01*
X168671352Y-141522986D01*
X168507090Y-141574171D01*
X168500139Y-141577300D01*
X168499470Y-141575814D01*
X168439516Y-141591633D01*
X168371974Y-141569756D01*
X168344159Y-141543828D01*
X168340346Y-141539005D01*
X168340344Y-141539002D01*
X168340340Y-141538998D01*
X168340337Y-141538994D01*
X168216004Y-141414661D01*
X168215998Y-141414656D01*
X168066329Y-141322339D01*
X168066325Y-141322337D01*
X168066326Y-141322337D01*
X167959594Y-141286970D01*
X167901222Y-141246556D01*
X167873967Y-141181000D01*
X167886480Y-141111115D01*
X167910128Y-141078275D01*
X168167071Y-140821333D01*
X168236400Y-140717575D01*
X168284155Y-140602285D01*
X168295159Y-140546962D01*
X168328065Y-140484056D01*
X168383582Y-140450550D01*
X168526101Y-140409145D01*
X168526103Y-140409143D01*
X168526105Y-140409143D01*
X168656089Y-140332270D01*
X168669307Y-140324453D01*
X168786953Y-140206807D01*
X168871645Y-140063601D01*
X168918062Y-139903831D01*
X168920999Y-139866511D01*
X168921000Y-139866511D01*
X168921000Y-139588500D01*
X168941002Y-139520379D01*
X168994658Y-139473886D01*
X169047000Y-139462500D01*
X171001100Y-139462500D01*
X171148413Y-139433197D01*
X171287179Y-139375718D01*
X171325781Y-139349925D01*
X171412065Y-139292273D01*
X171656128Y-139048208D01*
X171718441Y-139014184D01*
X171764933Y-139012855D01*
X171851084Y-139026500D01*
X171851087Y-139026500D01*
X172064912Y-139026500D01*
X172064916Y-139026500D01*
X172151068Y-139012854D01*
X172221474Y-139021953D01*
X172259867Y-139048205D01*
X172775936Y-139564274D01*
X172900822Y-139647719D01*
X173039588Y-139705198D01*
X173186901Y-139734501D01*
X175199021Y-139734501D01*
X175346334Y-139705198D01*
X175485100Y-139647719D01*
X175609986Y-139564274D01*
X177100077Y-138074182D01*
X177162387Y-138040159D01*
X177233202Y-138045223D01*
G37*
G04 #@! TD.AperFunction*
G04 #@! TA.AperFunction,Conductor*
G36*
X154105166Y-135899161D02*
G01*
X154135256Y-135905480D01*
X154140925Y-135909660D01*
X154143790Y-135910502D01*
X154150353Y-135916613D01*
X154164120Y-135926765D01*
X154170862Y-135933411D01*
X154176739Y-135941261D01*
X154185417Y-135947757D01*
X154191512Y-135953765D01*
X154204760Y-135977618D01*
X154221117Y-135999467D01*
X154221740Y-136008188D01*
X154225985Y-136015830D01*
X154224234Y-136043058D01*
X154226182Y-136070283D01*
X154221991Y-136077956D01*
X154221431Y-136086681D01*
X154205233Y-136108646D01*
X154192156Y-136132595D01*
X154184483Y-136136784D01*
X154179295Y-136143821D01*
X154153796Y-136153541D01*
X154129844Y-136166621D01*
X154121122Y-136165997D01*
X154112955Y-136169111D01*
X154103061Y-136169500D01*
X153541350Y-136169500D01*
X153480803Y-136176009D01*
X153480795Y-136176011D01*
X153343797Y-136227110D01*
X153343792Y-136227112D01*
X153226738Y-136314738D01*
X153139112Y-136431792D01*
X153139110Y-136431797D01*
X153088011Y-136568795D01*
X153088009Y-136568803D01*
X153081500Y-136629350D01*
X153081500Y-137626649D01*
X153088009Y-137687196D01*
X153088011Y-137687204D01*
X153139110Y-137824202D01*
X153139112Y-137824207D01*
X153226738Y-137941261D01*
X153343792Y-138028887D01*
X153343794Y-138028888D01*
X153343796Y-138028889D01*
X153374012Y-138040159D01*
X153480795Y-138079988D01*
X153480803Y-138079990D01*
X153541350Y-138086499D01*
X153541355Y-138086499D01*
X153541362Y-138086500D01*
X153541368Y-138086500D01*
X154438632Y-138086500D01*
X154438638Y-138086500D01*
X154438645Y-138086499D01*
X154438649Y-138086499D01*
X154499196Y-138079990D01*
X154499199Y-138079989D01*
X154499201Y-138079989D01*
X154576467Y-138051170D01*
X154647282Y-138046104D01*
X154709595Y-138080129D01*
X154743620Y-138142441D01*
X154746500Y-138169225D01*
X154746500Y-142930500D01*
X154726498Y-142998621D01*
X154672842Y-143045114D01*
X154620500Y-143056500D01*
X151211193Y-143056500D01*
X151143072Y-143036498D01*
X151096579Y-142982842D01*
X151085194Y-142931081D01*
X151071071Y-139866511D01*
X151053332Y-136017080D01*
X151073020Y-135948868D01*
X151126461Y-135902129D01*
X151179331Y-135890500D01*
X154075669Y-135890500D01*
X154105166Y-135899161D01*
G37*
G04 #@! TD.AperFunction*
G04 #@! TA.AperFunction,Conductor*
G36*
X149418698Y-82861251D02*
G01*
X150559317Y-82898591D01*
X150563409Y-82898793D01*
X151702160Y-82973431D01*
X151706232Y-82973765D01*
X152841940Y-83085622D01*
X152846013Y-83086090D01*
X153977476Y-83235051D01*
X153981496Y-83235647D01*
X155107466Y-83421546D01*
X155111521Y-83422283D01*
X155467653Y-83493123D01*
X156230758Y-83644914D01*
X156234788Y-83645784D01*
X156521072Y-83712535D01*
X157346223Y-83904933D01*
X157350133Y-83905913D01*
X158372536Y-84179865D01*
X158433157Y-84216816D01*
X158464178Y-84280676D01*
X158455750Y-84351171D01*
X158410547Y-84405918D01*
X158342921Y-84427535D01*
X158332184Y-84427333D01*
X156718000Y-84327999D01*
X156718000Y-84328000D01*
X156972000Y-110744000D01*
X170247077Y-110744000D01*
X170315198Y-110764002D01*
X170361691Y-110817658D01*
X170371795Y-110887932D01*
X170342301Y-110952512D01*
X170336172Y-110959095D01*
X165897672Y-115397595D01*
X165835360Y-115431621D01*
X165808577Y-115434500D01*
X159329663Y-115434500D01*
X159315382Y-115430306D01*
X159300520Y-115431083D01*
X159282004Y-115420506D01*
X159261542Y-115414498D01*
X159250695Y-115402621D01*
X159238873Y-115395868D01*
X159226347Y-115375960D01*
X159217936Y-115366750D01*
X159214331Y-115359836D01*
X159200889Y-115323796D01*
X159183272Y-115300262D01*
X159178542Y-115291190D01*
X159173565Y-115265993D01*
X159164590Y-115241929D01*
X159166803Y-115231753D01*
X159164786Y-115221539D01*
X159174221Y-115197653D01*
X159179681Y-115172555D01*
X159187044Y-115165191D01*
X159190870Y-115155507D01*
X159211723Y-115140512D01*
X159229883Y-115122353D01*
X159240056Y-115120139D01*
X159248512Y-115114060D01*
X159274162Y-115112720D01*
X159299258Y-115107261D01*
X159304351Y-115107947D01*
X159304357Y-115107893D01*
X159310520Y-115108499D01*
X159310521Y-115108500D01*
X159310522Y-115108500D01*
X159489478Y-115108500D01*
X159489479Y-115108500D01*
X159665000Y-115073587D01*
X159830336Y-115005102D01*
X159979135Y-114905678D01*
X160105678Y-114779135D01*
X160205102Y-114630336D01*
X160273587Y-114465000D01*
X160308500Y-114289479D01*
X160308500Y-114110521D01*
X160273587Y-113935000D01*
X160205102Y-113769664D01*
X160105678Y-113620865D01*
X159979135Y-113494322D01*
X159830336Y-113394898D01*
X159713429Y-113346473D01*
X159665003Y-113326414D01*
X159665001Y-113326413D01*
X159665000Y-113326413D01*
X159576645Y-113308838D01*
X159489481Y-113291500D01*
X159489479Y-113291500D01*
X159310521Y-113291500D01*
X159310518Y-113291500D01*
X159271920Y-113299177D01*
X159201206Y-113292847D01*
X159158622Y-113265067D01*
X159152035Y-113258535D01*
X159113261Y-113206739D01*
X159058338Y-113165624D01*
X159052132Y-113159470D01*
X159039040Y-113135732D01*
X159022796Y-113114033D01*
X159022158Y-113105122D01*
X159017845Y-113097301D01*
X159019664Y-113070256D01*
X159017731Y-113043217D01*
X159022012Y-113035376D01*
X159022612Y-113026465D01*
X159038763Y-113004698D01*
X159051756Y-112980905D01*
X159064818Y-112969586D01*
X159064919Y-112969451D01*
X159065018Y-112969413D01*
X159065343Y-112969132D01*
X159113261Y-112933261D01*
X159200887Y-112816207D01*
X159200887Y-112816206D01*
X159200889Y-112816204D01*
X159251989Y-112679201D01*
X159253204Y-112667906D01*
X159258499Y-112618649D01*
X159258500Y-112618632D01*
X159258500Y-111521367D01*
X159258499Y-111521350D01*
X159251990Y-111460803D01*
X159251988Y-111460795D01*
X159217563Y-111368500D01*
X159200889Y-111323796D01*
X159200888Y-111323794D01*
X159200887Y-111323792D01*
X159113261Y-111206738D01*
X158996207Y-111119112D01*
X158996202Y-111119110D01*
X158859204Y-111068011D01*
X158859196Y-111068009D01*
X158798649Y-111061500D01*
X158798638Y-111061500D01*
X156201362Y-111061500D01*
X156201350Y-111061500D01*
X156140803Y-111068009D01*
X156140795Y-111068011D01*
X156003797Y-111119110D01*
X156003792Y-111119113D01*
X155914551Y-111185918D01*
X155848030Y-111210729D01*
X155778656Y-111195637D01*
X155773859Y-111192879D01*
X155742915Y-111174173D01*
X155742913Y-111174172D01*
X155578646Y-111122986D01*
X155526723Y-111118268D01*
X155507265Y-111116500D01*
X155507262Y-111116500D01*
X154992738Y-111116500D01*
X154921353Y-111122986D01*
X154921352Y-111122986D01*
X154757093Y-111174170D01*
X154757088Y-111174172D01*
X154609844Y-111263184D01*
X154609839Y-111263188D01*
X154514095Y-111358933D01*
X154451783Y-111392959D01*
X154380968Y-111387894D01*
X154335905Y-111358933D01*
X154240160Y-111263188D01*
X154240155Y-111263184D01*
X154153384Y-111210729D01*
X154092913Y-111174173D01*
X154092912Y-111174172D01*
X154092911Y-111174172D01*
X154092906Y-111174170D01*
X153928646Y-111122986D01*
X153876723Y-111118268D01*
X153857265Y-111116500D01*
X153857262Y-111116500D01*
X153342738Y-111116500D01*
X153271353Y-111122986D01*
X153271352Y-111122986D01*
X153107093Y-111174170D01*
X153107088Y-111174172D01*
X152959844Y-111263184D01*
X152959839Y-111263188D01*
X152838188Y-111384839D01*
X152838184Y-111384844D01*
X152749172Y-111532088D01*
X152749170Y-111532093D01*
X152697986Y-111696353D01*
X152691500Y-111767737D01*
X152691500Y-112432261D01*
X152697986Y-112503646D01*
X152697986Y-112503647D01*
X152749170Y-112667906D01*
X152749172Y-112667911D01*
X152749173Y-112667913D01*
X152838184Y-112815155D01*
X152850594Y-112827565D01*
X152884620Y-112889874D01*
X152887500Y-112916661D01*
X152887500Y-114167684D01*
X152867498Y-114235805D01*
X152866274Y-114237671D01*
X152844898Y-114269664D01*
X152830716Y-114303902D01*
X152776414Y-114434996D01*
X152741500Y-114610518D01*
X152741500Y-114610521D01*
X152741500Y-114789479D01*
X152770099Y-114933259D01*
X152776414Y-114965003D01*
X152787042Y-114990660D01*
X152843273Y-115126414D01*
X152844899Y-115130338D01*
X152866264Y-115162312D01*
X152872006Y-115180651D01*
X152882396Y-115196817D01*
X152886918Y-115228272D01*
X152887480Y-115230065D01*
X152887500Y-115232315D01*
X152887500Y-115350852D01*
X152869328Y-115416035D01*
X152799173Y-115532087D01*
X152799172Y-115532089D01*
X152799171Y-115532090D01*
X152747986Y-115696353D01*
X152741500Y-115767737D01*
X152741500Y-116432261D01*
X152747986Y-116503646D01*
X152747986Y-116503647D01*
X152799170Y-116667906D01*
X152799172Y-116667911D01*
X152799173Y-116667913D01*
X152869328Y-116783963D01*
X152887500Y-116849147D01*
X152887500Y-121545175D01*
X152867498Y-121613296D01*
X152826687Y-121653002D01*
X152809843Y-121663184D01*
X152688188Y-121784839D01*
X152688184Y-121784844D01*
X152599172Y-121932088D01*
X152599170Y-121932093D01*
X152547986Y-122096353D01*
X152541500Y-122167737D01*
X152541500Y-122832261D01*
X152547986Y-122903646D01*
X152547986Y-122903647D01*
X152599170Y-123067906D01*
X152599172Y-123067911D01*
X152599173Y-123067913D01*
X152669328Y-123183963D01*
X152673932Y-123200480D01*
X152682396Y-123213649D01*
X152687500Y-123249147D01*
X152687500Y-123250852D01*
X152669328Y-123316035D01*
X152605111Y-123422265D01*
X152599172Y-123432089D01*
X152599171Y-123432090D01*
X152547986Y-123596353D01*
X152541500Y-123667737D01*
X152541500Y-124332261D01*
X152547986Y-124403646D01*
X152547986Y-124403647D01*
X152599170Y-124567906D01*
X152599172Y-124567911D01*
X152599173Y-124567913D01*
X152669328Y-124683963D01*
X152673932Y-124700480D01*
X152682396Y-124713649D01*
X152687500Y-124749147D01*
X152687500Y-124902556D01*
X152677909Y-124950774D01*
X152666805Y-124977580D01*
X152666803Y-124977586D01*
X152637501Y-125124897D01*
X152637501Y-125275102D01*
X152666803Y-125422413D01*
X152666805Y-125422418D01*
X152724281Y-125561177D01*
X152807727Y-125686065D01*
X152807730Y-125686069D01*
X153713930Y-126592269D01*
X153713934Y-126592272D01*
X153713935Y-126592273D01*
X153838821Y-126675718D01*
X153977587Y-126733197D01*
X154124900Y-126762500D01*
X154197984Y-126762500D01*
X154266105Y-126782502D01*
X154287079Y-126799405D01*
X154291953Y-126804279D01*
X154291959Y-126804284D01*
X154291960Y-126804285D01*
X154437899Y-126894302D01*
X154600664Y-126948236D01*
X154620756Y-126950288D01*
X154701120Y-126958500D01*
X154701128Y-126958500D01*
X155298880Y-126958500D01*
X155371936Y-126951035D01*
X155399336Y-126948236D01*
X155562101Y-126894302D01*
X155631884Y-126851258D01*
X155648711Y-126846486D01*
X155662533Y-126837604D01*
X155698031Y-126832500D01*
X155748239Y-126832500D01*
X155816360Y-126852502D01*
X155849107Y-126882991D01*
X155886738Y-126933261D01*
X156003792Y-127020887D01*
X156003794Y-127020888D01*
X156003796Y-127020889D01*
X156062875Y-127042924D01*
X156140795Y-127071988D01*
X156140803Y-127071990D01*
X156201350Y-127078499D01*
X156201355Y-127078499D01*
X156201362Y-127078500D01*
X156611500Y-127078500D01*
X156679621Y-127098502D01*
X156726114Y-127152158D01*
X156737500Y-127204500D01*
X156737500Y-128775098D01*
X156766500Y-128920889D01*
X156766503Y-128920904D01*
X156766802Y-128922412D01*
X156824282Y-129061179D01*
X156907727Y-129186065D01*
X156907730Y-129186069D01*
X158615930Y-130894269D01*
X158615934Y-130894272D01*
X158615935Y-130894273D01*
X158740821Y-130977718D01*
X158879587Y-131035197D01*
X159026900Y-131064500D01*
X165011500Y-131064500D01*
X165079621Y-131084502D01*
X165126114Y-131138158D01*
X165137500Y-131190500D01*
X165137500Y-131350781D01*
X165117498Y-131418902D01*
X165087009Y-131451649D01*
X165006738Y-131511738D01*
X164919112Y-131628792D01*
X164919110Y-131628797D01*
X164918054Y-131631629D01*
X164916244Y-131634045D01*
X164914795Y-131636701D01*
X164914413Y-131636492D01*
X164875506Y-131688463D01*
X164808985Y-131713272D01*
X164739611Y-131698179D01*
X164689411Y-131647975D01*
X164681946Y-131631629D01*
X164681445Y-131630289D01*
X164680889Y-131628796D01*
X164680888Y-131628794D01*
X164680887Y-131628792D01*
X164593261Y-131511738D01*
X164476207Y-131424112D01*
X164476202Y-131424110D01*
X164339204Y-131373011D01*
X164339196Y-131373009D01*
X164278649Y-131366500D01*
X164278638Y-131366500D01*
X163121362Y-131366500D01*
X163121350Y-131366500D01*
X163060803Y-131373009D01*
X163060795Y-131373011D01*
X162923796Y-131424110D01*
X162915886Y-131428430D01*
X162914727Y-131426308D01*
X162879033Y-131442207D01*
X162810705Y-131455799D01*
X162766963Y-131464499D01*
X162755390Y-131466801D01*
X162755379Y-131466805D01*
X162616620Y-131524281D01*
X162491732Y-131607727D01*
X162491728Y-131607730D01*
X162007730Y-132091728D01*
X162007727Y-132091732D01*
X161966121Y-132154002D01*
X161924282Y-132216618D01*
X161866804Y-132355382D01*
X161866803Y-132355383D01*
X161837500Y-132502694D01*
X161837500Y-133975105D01*
X161864572Y-134111203D01*
X161866801Y-134122407D01*
X161866802Y-134122410D01*
X161866803Y-134122413D01*
X161900742Y-134204348D01*
X161920476Y-134251992D01*
X161924282Y-134261179D01*
X162007727Y-134386065D01*
X162313935Y-134692273D01*
X162412608Y-134758204D01*
X162458136Y-134812681D01*
X162466984Y-134883124D01*
X162436343Y-134947168D01*
X162393452Y-134975240D01*
X162394551Y-134977596D01*
X162387903Y-134980695D01*
X162241959Y-135070715D01*
X162241953Y-135070720D01*
X162120720Y-135191953D01*
X162120715Y-135191959D01*
X162030698Y-135337899D01*
X161976763Y-135500666D01*
X161966500Y-135601119D01*
X161966500Y-136198880D01*
X161966499Y-136198880D01*
X161976763Y-136299333D01*
X161976764Y-136299336D01*
X162030698Y-136462101D01*
X162071762Y-136528675D01*
X162120715Y-136608040D01*
X162120720Y-136608046D01*
X162219595Y-136706921D01*
X162253621Y-136769233D01*
X162256500Y-136796016D01*
X162256500Y-138974156D01*
X162236498Y-139042277D01*
X162219595Y-139063251D01*
X158263251Y-143019595D01*
X158200939Y-143053621D01*
X158174156Y-143056500D01*
X157159500Y-143056500D01*
X157091379Y-143036498D01*
X157044886Y-142982842D01*
X157033500Y-142930500D01*
X157033500Y-137038008D01*
X157033500Y-137038005D01*
X157005343Y-136860230D01*
X156949723Y-136689048D01*
X156868009Y-136528675D01*
X156781080Y-136409028D01*
X156762211Y-136383057D01*
X156634942Y-136255788D01*
X156489328Y-136149993D01*
X156489327Y-136149992D01*
X156489325Y-136149991D01*
X156328952Y-136068277D01*
X156328949Y-136068276D01*
X156328947Y-136068275D01*
X156157773Y-136012658D01*
X156157777Y-136012658D01*
X156124677Y-136007415D01*
X155979995Y-135984500D01*
X155912576Y-135984500D01*
X155844455Y-135964498D01*
X155797962Y-135910842D01*
X155787858Y-135840568D01*
X155794521Y-135814467D01*
X155841988Y-135687204D01*
X155841990Y-135687196D01*
X155848499Y-135626649D01*
X155848500Y-135626632D01*
X155848500Y-134629367D01*
X155848499Y-134629350D01*
X155841990Y-134568803D01*
X155841988Y-134568795D01*
X155812924Y-134490875D01*
X155790889Y-134431796D01*
X155726468Y-134345741D01*
X155701659Y-134279224D01*
X155709290Y-134234399D01*
X155706933Y-134233714D01*
X155709145Y-134226101D01*
X155755562Y-134066331D01*
X155758499Y-134029011D01*
X155758500Y-134029011D01*
X155758500Y-132872000D01*
X155778502Y-132803879D01*
X155832158Y-132757386D01*
X155884500Y-132746000D01*
X156116511Y-132746000D01*
X156116511Y-132745999D01*
X156153831Y-132743062D01*
X156313601Y-132696645D01*
X156313603Y-132696643D01*
X156313605Y-132696643D01*
X156385204Y-132654299D01*
X156456807Y-132611953D01*
X156574453Y-132494307D01*
X156629832Y-132400666D01*
X156659143Y-132351105D01*
X156659143Y-132351103D01*
X156659145Y-132351101D01*
X156705562Y-132191331D01*
X156708500Y-132154002D01*
X156708500Y-131709782D01*
X156708671Y-131703217D01*
X156709145Y-131694128D01*
X156718500Y-131647100D01*
X156718500Y-131514838D01*
X156718671Y-131511561D01*
X156729387Y-131481046D01*
X156738502Y-131450005D01*
X156741070Y-131447779D01*
X156742196Y-131444575D01*
X156767703Y-131424702D01*
X156792158Y-131403512D01*
X156796251Y-131401730D01*
X156894336Y-131361102D01*
X157043135Y-131261678D01*
X157169678Y-131135135D01*
X157269102Y-130986336D01*
X157337587Y-130821000D01*
X157372500Y-130645479D01*
X157372500Y-130466521D01*
X157337587Y-130291000D01*
X157269102Y-130125664D01*
X157169678Y-129976865D01*
X157043135Y-129850322D01*
X156894336Y-129750898D01*
X156770087Y-129699432D01*
X156729003Y-129682414D01*
X156729001Y-129682413D01*
X156729000Y-129682413D01*
X156640645Y-129664838D01*
X156553481Y-129647500D01*
X156553479Y-129647500D01*
X156374521Y-129647500D01*
X156374518Y-129647500D01*
X156243771Y-129673507D01*
X156199000Y-129682413D01*
X156198999Y-129682413D01*
X156198996Y-129682414D01*
X156033662Y-129750899D01*
X155884869Y-129850319D01*
X155884862Y-129850324D01*
X155758324Y-129976862D01*
X155758319Y-129976869D01*
X155658897Y-130125665D01*
X155658893Y-130125671D01*
X155621977Y-130214794D01*
X155577428Y-130270075D01*
X155540724Y-130287571D01*
X155486399Y-130303355D01*
X155486398Y-130303355D01*
X155486393Y-130303357D01*
X155343196Y-130388044D01*
X155343189Y-130388049D01*
X155225549Y-130505689D01*
X155225544Y-130505696D01*
X155140856Y-130648894D01*
X155094437Y-130808670D01*
X155094437Y-130808671D01*
X155091500Y-130845988D01*
X155091500Y-132003000D01*
X155071498Y-132071121D01*
X155017842Y-132117614D01*
X154965500Y-132129000D01*
X154733489Y-132129000D01*
X154696171Y-132131937D01*
X154696170Y-132131937D01*
X154536394Y-132178356D01*
X154393196Y-132263044D01*
X154393189Y-132263049D01*
X154275549Y-132380689D01*
X154275544Y-132380696D01*
X154190856Y-132523894D01*
X154144437Y-132683670D01*
X154144437Y-132683671D01*
X154141500Y-132720988D01*
X154141500Y-134029011D01*
X154144437Y-134066328D01*
X154144438Y-134066332D01*
X154184535Y-134204348D01*
X154184332Y-134275344D01*
X154145778Y-134334960D01*
X154081113Y-134364268D01*
X154063538Y-134365500D01*
X151171142Y-134365500D01*
X151103021Y-134345498D01*
X151056528Y-134291842D01*
X151045143Y-134240081D01*
X151045114Y-134233714D01*
X151007458Y-126062466D01*
X151027146Y-125994255D01*
X151044358Y-125972795D01*
X151072213Y-125944941D01*
X151178009Y-125799325D01*
X151259723Y-125638951D01*
X151315344Y-125467770D01*
X151343500Y-125289996D01*
X151343500Y-125110004D01*
X151315344Y-124932230D01*
X151259723Y-124761049D01*
X151178009Y-124600675D01*
X151086564Y-124474812D01*
X151062706Y-124407944D01*
X151062500Y-124400751D01*
X151062500Y-119406843D01*
X151082502Y-119338722D01*
X151099400Y-119317752D01*
X151172213Y-119244940D01*
X151278009Y-119099325D01*
X151359723Y-118938952D01*
X151415343Y-118767770D01*
X151443500Y-118589995D01*
X151443500Y-101810005D01*
X151415343Y-101632230D01*
X151359723Y-101461048D01*
X151278009Y-101300675D01*
X151216732Y-101216335D01*
X151216731Y-101216333D01*
X151172217Y-101155063D01*
X151172211Y-101155056D01*
X150928048Y-100910893D01*
X150894022Y-100848581D01*
X150891144Y-100822384D01*
X150876000Y-97536000D01*
X147605344Y-97536000D01*
X147537223Y-97515998D01*
X147516249Y-97499095D01*
X143019945Y-93002790D01*
X143019942Y-93002788D01*
X143019940Y-93002786D01*
X142874324Y-92896990D01*
X142713951Y-92815276D01*
X142713948Y-92815275D01*
X142713946Y-92815274D01*
X142713944Y-92815273D01*
X142671971Y-92801634D01*
X142671971Y-92801635D01*
X142542772Y-92759656D01*
X142542774Y-92759656D01*
X142542770Y-92759655D01*
X142542769Y-92759655D01*
X142364995Y-92731499D01*
X142364994Y-92731499D01*
X142364993Y-92731499D01*
X140864164Y-92731499D01*
X140796043Y-92711497D01*
X140775073Y-92694598D01*
X140690441Y-92609966D01*
X140479244Y-92456523D01*
X140246644Y-92338007D01*
X140246641Y-92338006D01*
X140246639Y-92338005D01*
X139998372Y-92257338D01*
X139998368Y-92257337D01*
X139998367Y-92257337D01*
X139740528Y-92216499D01*
X139479474Y-92216499D01*
X139221635Y-92257337D01*
X139221629Y-92257338D01*
X138973362Y-92338005D01*
X138973356Y-92338008D01*
X138740754Y-92456525D01*
X138529558Y-92609968D01*
X138529555Y-92609970D01*
X138344972Y-92794553D01*
X138344970Y-92794556D01*
X138191527Y-93005752D01*
X138073010Y-93238354D01*
X138073007Y-93238360D01*
X137992340Y-93486627D01*
X137992339Y-93486632D01*
X137992339Y-93486633D01*
X137951501Y-93744472D01*
X137951501Y-94005526D01*
X137989780Y-94247207D01*
X137992340Y-94263370D01*
X138020574Y-94350265D01*
X138073009Y-94511642D01*
X138191525Y-94744242D01*
X138344968Y-94955439D01*
X138344970Y-94955441D01*
X138344972Y-94955444D01*
X138529555Y-95140027D01*
X138529558Y-95140029D01*
X138529561Y-95140032D01*
X138740758Y-95293475D01*
X138973358Y-95411991D01*
X139221635Y-95492661D01*
X139479474Y-95533499D01*
X139479477Y-95533499D01*
X139740525Y-95533499D01*
X139740528Y-95533499D01*
X139998367Y-95492661D01*
X140246644Y-95411991D01*
X140479244Y-95293475D01*
X140690441Y-95140032D01*
X140775070Y-95055402D01*
X140837380Y-95021379D01*
X140864164Y-95018499D01*
X141749155Y-95018499D01*
X141817276Y-95038501D01*
X141838250Y-95055404D01*
X144103751Y-97320905D01*
X144137777Y-97383217D01*
X144132712Y-97454032D01*
X144090165Y-97510868D01*
X144023645Y-97535679D01*
X144014656Y-97536000D01*
X128396000Y-97536000D01*
X128327879Y-97515998D01*
X128281386Y-97462342D01*
X128270000Y-97410000D01*
X128270000Y-89611668D01*
X128290002Y-89543547D01*
X128322606Y-89509251D01*
X128924125Y-89078208D01*
X128927481Y-89075885D01*
X129876393Y-88441843D01*
X129879779Y-88439660D01*
X130848974Y-87836976D01*
X130852381Y-87834934D01*
X131840775Y-87264284D01*
X131844298Y-87262326D01*
X132850833Y-86724322D01*
X132854385Y-86722497D01*
X133877943Y-86217735D01*
X133881644Y-86215985D01*
X134921141Y-85744993D01*
X134924888Y-85743369D01*
X135979288Y-85306623D01*
X135982991Y-85305159D01*
X137051157Y-84903130D01*
X137054931Y-84901780D01*
X138135631Y-84534932D01*
X138139435Y-84533709D01*
X139231591Y-84202407D01*
X139235513Y-84201287D01*
X140337880Y-83905909D01*
X140341762Y-83904937D01*
X141453211Y-83645783D01*
X141457228Y-83644916D01*
X142576488Y-83422281D01*
X142580521Y-83421548D01*
X143706512Y-83235646D01*
X143710514Y-83235052D01*
X144841993Y-83086089D01*
X144846052Y-83085623D01*
X145981772Y-82973765D01*
X145985834Y-82973431D01*
X147124593Y-82898793D01*
X147128679Y-82898591D01*
X148269301Y-82861251D01*
X148273424Y-82861185D01*
X149414576Y-82861185D01*
X149418698Y-82861251D01*
G37*
G04 #@! TD.AperFunction*
G04 #@! TA.AperFunction,Conductor*
G36*
X171470805Y-131069106D02*
G01*
X171487150Y-131068639D01*
X171504170Y-131078902D01*
X171523240Y-131084502D01*
X171533947Y-131096859D01*
X171547948Y-131105302D01*
X171556716Y-131123136D01*
X171569733Y-131138158D01*
X171572059Y-131154341D01*
X171579274Y-131169014D01*
X171577008Y-131188759D01*
X171579837Y-131208432D01*
X171573044Y-131223304D01*
X171571181Y-131239548D01*
X171558598Y-131254935D01*
X171550343Y-131273012D01*
X171536089Y-131282462D01*
X171526239Y-131294509D01*
X171494055Y-131310333D01*
X171436521Y-131329026D01*
X171436515Y-131329029D01*
X171245987Y-131426108D01*
X171072993Y-131551796D01*
X171072990Y-131551798D01*
X170921798Y-131702990D01*
X170921796Y-131702993D01*
X170796108Y-131875987D01*
X170699029Y-132066515D01*
X170699026Y-132066521D01*
X170632952Y-132269878D01*
X170632951Y-132269883D01*
X170632951Y-132269884D01*
X170599500Y-132481084D01*
X170599500Y-132694916D01*
X170623355Y-132845527D01*
X170632952Y-132906121D01*
X170683767Y-133062514D01*
X170699028Y-133109483D01*
X170782152Y-133272622D01*
X170796108Y-133300012D01*
X170804891Y-133312101D01*
X170921794Y-133473004D01*
X170921796Y-133473006D01*
X170921798Y-133473009D01*
X171072990Y-133624201D01*
X171072993Y-133624203D01*
X171072996Y-133624206D01*
X171245991Y-133749894D01*
X171245996Y-133749896D01*
X171247088Y-133750566D01*
X171247418Y-133750931D01*
X171249996Y-133752804D01*
X171249602Y-133753345D01*
X171294721Y-133803213D01*
X171306328Y-133873255D01*
X171278226Y-133938453D01*
X171249870Y-133963023D01*
X171249996Y-133963196D01*
X171247982Y-133964658D01*
X171247088Y-133965434D01*
X171245987Y-133966108D01*
X171072993Y-134091796D01*
X171072990Y-134091798D01*
X170921798Y-134242990D01*
X170921796Y-134242993D01*
X170796108Y-134415987D01*
X170699029Y-134606515D01*
X170699026Y-134606521D01*
X170632952Y-134809878D01*
X170632951Y-134809883D01*
X170632951Y-134809884D01*
X170599500Y-135021084D01*
X170599500Y-135234916D01*
X170615811Y-135337899D01*
X170632952Y-135446121D01*
X170693420Y-135632224D01*
X170699028Y-135649483D01*
X170780820Y-135810008D01*
X170796108Y-135840012D01*
X170804157Y-135851090D01*
X170921794Y-136013004D01*
X170921796Y-136013006D01*
X170921798Y-136013009D01*
X171072990Y-136164201D01*
X171072993Y-136164203D01*
X171072996Y-136164206D01*
X171245991Y-136289894D01*
X171245996Y-136289896D01*
X171247088Y-136290566D01*
X171247418Y-136290931D01*
X171249996Y-136292804D01*
X171249602Y-136293345D01*
X171294721Y-136343213D01*
X171306328Y-136413255D01*
X171278226Y-136478453D01*
X171249870Y-136503023D01*
X171249996Y-136503196D01*
X171247982Y-136504658D01*
X171247088Y-136505434D01*
X171245987Y-136506108D01*
X171072993Y-136631796D01*
X171072990Y-136631798D01*
X170921798Y-136782990D01*
X170921796Y-136782993D01*
X170796108Y-136955987D01*
X170699029Y-137146515D01*
X170699026Y-137146521D01*
X170632952Y-137349878D01*
X170632951Y-137349883D01*
X170632951Y-137349884D01*
X170599500Y-137561084D01*
X170599500Y-137774916D01*
X170602172Y-137791791D01*
X170593074Y-137862200D01*
X170547352Y-137916514D01*
X170479524Y-137937487D01*
X170477724Y-137937500D01*
X166657485Y-137937500D01*
X166622333Y-137932497D01*
X166491332Y-137894438D01*
X166491328Y-137894437D01*
X166454011Y-137891500D01*
X166454002Y-137891500D01*
X165145998Y-137891500D01*
X165145989Y-137891500D01*
X165108671Y-137894437D01*
X165108670Y-137894437D01*
X164948894Y-137940856D01*
X164805696Y-138025544D01*
X164805689Y-138025549D01*
X164758595Y-138072644D01*
X164696283Y-138106670D01*
X164625468Y-138101605D01*
X164568632Y-138059058D01*
X164543821Y-137992538D01*
X164543500Y-137983549D01*
X164543500Y-135810008D01*
X164543500Y-135810005D01*
X164515343Y-135632230D01*
X164459723Y-135461048D01*
X164378009Y-135300675D01*
X164299022Y-135191959D01*
X164272211Y-135155057D01*
X164259007Y-135141853D01*
X164224981Y-135079541D01*
X164230046Y-135008726D01*
X164272593Y-134951890D01*
X164334638Y-134927479D01*
X164339201Y-134926989D01*
X164339805Y-134926764D01*
X164363591Y-134917892D01*
X164476204Y-134875889D01*
X164498413Y-134859264D01*
X164593261Y-134788261D01*
X164680886Y-134671208D01*
X164680885Y-134671208D01*
X164680889Y-134671204D01*
X164681945Y-134668370D01*
X164683756Y-134665951D01*
X164685205Y-134663299D01*
X164685586Y-134663507D01*
X164724491Y-134611538D01*
X164791011Y-134586727D01*
X164860386Y-134601819D01*
X164910588Y-134652021D01*
X164918050Y-134668362D01*
X164919111Y-134671204D01*
X164919112Y-134671205D01*
X164919113Y-134671208D01*
X165006738Y-134788261D01*
X165123792Y-134875887D01*
X165123794Y-134875888D01*
X165123796Y-134875889D01*
X165143194Y-134883124D01*
X165260795Y-134926988D01*
X165260803Y-134926990D01*
X165321350Y-134933499D01*
X165321355Y-134933499D01*
X165321362Y-134933500D01*
X165321368Y-134933500D01*
X166478632Y-134933500D01*
X166478638Y-134933500D01*
X166478645Y-134933499D01*
X166478649Y-134933499D01*
X166539196Y-134926990D01*
X166539199Y-134926989D01*
X166539201Y-134926989D01*
X166539805Y-134926764D01*
X166563591Y-134917892D01*
X166676204Y-134875889D01*
X166698413Y-134859264D01*
X166793261Y-134788261D01*
X166880887Y-134671207D01*
X166880887Y-134671206D01*
X166880889Y-134671204D01*
X166924960Y-134553045D01*
X166931988Y-134534204D01*
X166931990Y-134534196D01*
X166938499Y-134473649D01*
X166938500Y-134473632D01*
X166938500Y-133726367D01*
X166938499Y-133726354D01*
X166938161Y-133723210D01*
X166950762Y-133653341D01*
X166999136Y-133601376D01*
X167067926Y-133583813D01*
X167129583Y-133602491D01*
X167237899Y-133669302D01*
X167400664Y-133723236D01*
X167420756Y-133725288D01*
X167501120Y-133733500D01*
X167501128Y-133733500D01*
X168098880Y-133733500D01*
X168171936Y-133726035D01*
X168199336Y-133723236D01*
X168362101Y-133669302D01*
X168508040Y-133579285D01*
X168629285Y-133458040D01*
X168719302Y-133312101D01*
X168773236Y-133149336D01*
X168777933Y-133103366D01*
X168783500Y-133048880D01*
X168783500Y-132501119D01*
X168773236Y-132400666D01*
X168773236Y-132400664D01*
X168719302Y-132237899D01*
X168629285Y-132091960D01*
X168629284Y-132091959D01*
X168629279Y-132091953D01*
X168508047Y-131970721D01*
X168508042Y-131970717D01*
X168508040Y-131970715D01*
X168508037Y-131970713D01*
X168502286Y-131966166D01*
X168503452Y-131964690D01*
X168474057Y-131936335D01*
X168464504Y-131922039D01*
X168392272Y-131813935D01*
X168286065Y-131707728D01*
X168161179Y-131624282D01*
X168022414Y-131566803D01*
X167875103Y-131537500D01*
X167875100Y-131537500D01*
X166869610Y-131537500D01*
X166848019Y-131531160D01*
X166825577Y-131529555D01*
X166805829Y-131518772D01*
X166801489Y-131517498D01*
X166794100Y-131512368D01*
X166793262Y-131511741D01*
X166793261Y-131511739D01*
X166712989Y-131451648D01*
X166670444Y-131394813D01*
X166662500Y-131350781D01*
X166662500Y-131336500D01*
X166665534Y-131326163D01*
X166665380Y-131323997D01*
X166667091Y-131320862D01*
X166682502Y-131268379D01*
X166736158Y-131221886D01*
X166788500Y-131210500D01*
X166889478Y-131210500D01*
X166889479Y-131210500D01*
X167065000Y-131175587D01*
X167230336Y-131107102D01*
X167262314Y-131085734D01*
X167330067Y-131064520D01*
X167332316Y-131064500D01*
X168834900Y-131064500D01*
X171455119Y-131064500D01*
X171470805Y-131069106D01*
G37*
G04 #@! TD.AperFunction*
G04 #@! TA.AperFunction,Conductor*
G36*
X170859532Y-112337367D02*
G01*
X170916368Y-112379914D01*
X170941179Y-112446434D01*
X170941500Y-112455423D01*
X170941500Y-112618649D01*
X170948009Y-112679196D01*
X170948011Y-112679204D01*
X170999110Y-112816202D01*
X170999112Y-112816207D01*
X171086737Y-112933259D01*
X171086738Y-112933259D01*
X171086739Y-112933261D01*
X171113600Y-112953369D01*
X171134657Y-112969132D01*
X171177203Y-113025968D01*
X171182267Y-113096784D01*
X171148242Y-113159096D01*
X171134657Y-113170868D01*
X171086737Y-113206740D01*
X170999112Y-113323792D01*
X170999110Y-113323797D01*
X170948011Y-113460795D01*
X170948009Y-113460803D01*
X170941500Y-113521350D01*
X170941500Y-114618649D01*
X170948009Y-114679196D01*
X170948011Y-114679204D01*
X170999110Y-114816202D01*
X170999112Y-114816207D01*
X171086738Y-114933260D01*
X171086739Y-114933261D01*
X171134655Y-114969131D01*
X171150772Y-114990660D01*
X171169780Y-115009696D01*
X171171718Y-115018641D01*
X171177202Y-115025966D01*
X171179121Y-115052794D01*
X171184819Y-115079082D01*
X171181614Y-115087652D01*
X171182268Y-115096781D01*
X171169378Y-115120387D01*
X171159959Y-115145584D01*
X171150418Y-115155109D01*
X171148243Y-115159094D01*
X171134580Y-115170924D01*
X171134192Y-115171214D01*
X171067654Y-115195975D01*
X171010541Y-115186698D01*
X170865005Y-115126414D01*
X170689481Y-115091500D01*
X170689479Y-115091500D01*
X170510521Y-115091500D01*
X170510518Y-115091500D01*
X170397239Y-115114033D01*
X170335000Y-115126413D01*
X170334999Y-115126413D01*
X170334996Y-115126414D01*
X170211553Y-115177547D01*
X170189461Y-115186698D01*
X170169662Y-115194899D01*
X170020869Y-115294319D01*
X170020862Y-115294324D01*
X169894324Y-115420862D01*
X169894319Y-115420869D01*
X169794899Y-115569662D01*
X169726414Y-115734996D01*
X169691500Y-115910518D01*
X169691500Y-115910521D01*
X169691500Y-116089479D01*
X169726413Y-116265000D01*
X169794898Y-116430336D01*
X169894322Y-116579135D01*
X170020865Y-116705678D01*
X170169664Y-116805102D01*
X170335000Y-116873587D01*
X170510521Y-116908500D01*
X170510522Y-116908500D01*
X170689478Y-116908500D01*
X170689479Y-116908500D01*
X170865000Y-116873587D01*
X170909730Y-116855058D01*
X170980316Y-116847469D01*
X171043804Y-116879247D01*
X171045845Y-116881190D01*
X171052903Y-116888062D01*
X171086739Y-116933261D01*
X171141191Y-116974023D01*
X171147045Y-116979723D01*
X171160624Y-117003821D01*
X171177203Y-117025968D01*
X171177798Y-117034298D01*
X171181899Y-117041575D01*
X171180293Y-117069192D01*
X171182267Y-117096784D01*
X171178264Y-117104113D01*
X171177780Y-117112452D01*
X171161499Y-117134816D01*
X171148242Y-117159096D01*
X171136278Y-117169462D01*
X171135996Y-117169851D01*
X171135696Y-117169967D01*
X171134657Y-117170868D01*
X171086737Y-117206740D01*
X170999112Y-117323792D01*
X170999110Y-117323797D01*
X170948011Y-117460795D01*
X170948009Y-117460803D01*
X170941500Y-117521350D01*
X170941500Y-118618649D01*
X170948009Y-118679196D01*
X170948011Y-118679204D01*
X170999110Y-118816202D01*
X170999112Y-118816207D01*
X171086737Y-118933259D01*
X171086738Y-118933259D01*
X171086739Y-118933261D01*
X171126714Y-118963186D01*
X171134657Y-118969132D01*
X171177203Y-119025968D01*
X171182267Y-119096784D01*
X171148242Y-119159096D01*
X171134657Y-119170868D01*
X171086737Y-119206740D01*
X170999112Y-119323792D01*
X170999110Y-119323797D01*
X170948011Y-119460795D01*
X170948009Y-119460803D01*
X170941500Y-119521350D01*
X170941500Y-120618649D01*
X170948009Y-120679196D01*
X170948011Y-120679204D01*
X170999110Y-120816202D01*
X170999112Y-120816207D01*
X171086737Y-120933259D01*
X171086738Y-120933259D01*
X171086739Y-120933261D01*
X171134657Y-120969132D01*
X171177203Y-121025968D01*
X171182267Y-121096784D01*
X171148242Y-121159096D01*
X171134657Y-121170868D01*
X171086737Y-121206740D01*
X170999112Y-121323792D01*
X170999110Y-121323797D01*
X170948011Y-121460795D01*
X170948009Y-121460803D01*
X170941500Y-121521350D01*
X170941500Y-122618649D01*
X170948009Y-122679196D01*
X170948011Y-122679204D01*
X170999110Y-122816202D01*
X170999112Y-122816207D01*
X171086737Y-122933259D01*
X171086738Y-122933259D01*
X171086739Y-122933261D01*
X171119450Y-122957748D01*
X171134657Y-122969132D01*
X171177203Y-123025968D01*
X171182267Y-123096784D01*
X171148242Y-123159096D01*
X171134657Y-123170868D01*
X171086737Y-123206740D01*
X170999112Y-123323792D01*
X170994550Y-123336021D01*
X170985034Y-123361534D01*
X170942490Y-123418368D01*
X170875970Y-123443179D01*
X170866981Y-123443500D01*
X170458316Y-123443500D01*
X170390195Y-123423498D01*
X170388314Y-123422265D01*
X170356337Y-123400899D01*
X170356338Y-123400899D01*
X170356336Y-123400898D01*
X170239429Y-123352473D01*
X170191003Y-123332414D01*
X170191001Y-123332413D01*
X170191000Y-123332413D01*
X170102645Y-123314838D01*
X170015481Y-123297500D01*
X170015479Y-123297500D01*
X169836521Y-123297500D01*
X169836518Y-123297500D01*
X169743328Y-123316037D01*
X169661000Y-123332413D01*
X169660999Y-123332413D01*
X169660996Y-123332414D01*
X169495662Y-123400899D01*
X169346869Y-123500319D01*
X169346862Y-123500324D01*
X169220324Y-123626862D01*
X169220319Y-123626869D01*
X169120899Y-123775662D01*
X169052414Y-123940996D01*
X169017500Y-124116518D01*
X169017500Y-124295481D01*
X169023926Y-124327787D01*
X169049242Y-124455060D01*
X169052414Y-124471003D01*
X169053992Y-124474812D01*
X169120898Y-124636336D01*
X169220322Y-124785135D01*
X169346865Y-124911678D01*
X169495664Y-125011102D01*
X169661000Y-125079587D01*
X169836521Y-125114500D01*
X169836522Y-125114500D01*
X170015478Y-125114500D01*
X170015479Y-125114500D01*
X170191000Y-125079587D01*
X170356336Y-125011102D01*
X170388314Y-124989734D01*
X170456067Y-124968520D01*
X170458316Y-124968500D01*
X171091876Y-124968500D01*
X171159997Y-124988502D01*
X171167385Y-124993632D01*
X171203796Y-125020889D01*
X171203797Y-125020889D01*
X171203798Y-125020890D01*
X171340795Y-125071988D01*
X171340803Y-125071990D01*
X171401350Y-125078499D01*
X171401355Y-125078499D01*
X171401362Y-125078500D01*
X172878671Y-125078500D01*
X172915819Y-125085891D01*
X172916285Y-125084356D01*
X172922208Y-125086152D01*
X172922215Y-125086155D01*
X173044606Y-125110500D01*
X173169394Y-125110500D01*
X174618338Y-125110500D01*
X174686459Y-125130502D01*
X174707433Y-125147405D01*
X174798839Y-125238811D01*
X174798844Y-125238815D01*
X174798845Y-125238816D01*
X174946087Y-125327827D01*
X175110351Y-125379013D01*
X175181735Y-125385500D01*
X175846264Y-125385499D01*
X175917649Y-125379013D01*
X176081913Y-125327827D01*
X176229155Y-125238816D01*
X176350816Y-125117155D01*
X176439827Y-124969913D01*
X176491013Y-124805649D01*
X176497500Y-124734265D01*
X176497499Y-124219736D01*
X176491013Y-124148351D01*
X176439827Y-123984087D01*
X176350816Y-123836845D01*
X176350815Y-123836844D01*
X176350811Y-123836839D01*
X176229160Y-123715188D01*
X176229155Y-123715184D01*
X176083064Y-123626869D01*
X176081913Y-123626173D01*
X176081912Y-123626172D01*
X176081911Y-123626172D01*
X176081906Y-123626170D01*
X175917646Y-123574986D01*
X175865723Y-123570268D01*
X175846265Y-123568500D01*
X175846262Y-123568500D01*
X175181738Y-123568500D01*
X175110353Y-123574986D01*
X175110352Y-123574986D01*
X174946093Y-123626170D01*
X174946088Y-123626172D01*
X174798844Y-123715184D01*
X174798839Y-123715188D01*
X174707433Y-123806595D01*
X174680064Y-123821539D01*
X174653836Y-123838396D01*
X174647537Y-123839301D01*
X174645121Y-123840621D01*
X174618338Y-123843500D01*
X174584500Y-123843500D01*
X174516379Y-123823498D01*
X174469886Y-123769842D01*
X174458500Y-123717500D01*
X174458500Y-123521367D01*
X174458499Y-123521350D01*
X174451990Y-123460803D01*
X174451988Y-123460795D01*
X174400889Y-123323797D01*
X174400887Y-123323792D01*
X174313261Y-123206738D01*
X174265343Y-123170868D01*
X174222796Y-123114033D01*
X174217731Y-123043217D01*
X174251756Y-122980905D01*
X174265343Y-122969132D01*
X174283165Y-122955791D01*
X174313261Y-122933261D01*
X174400889Y-122816204D01*
X174451989Y-122679201D01*
X174455183Y-122649499D01*
X174458499Y-122618649D01*
X174458500Y-122618632D01*
X174458500Y-122554500D01*
X174478502Y-122486379D01*
X174532158Y-122439886D01*
X174584500Y-122428500D01*
X175526339Y-122428500D01*
X175594460Y-122448502D01*
X175615435Y-122465406D01*
X175652839Y-122502811D01*
X175652844Y-122502815D01*
X175652845Y-122502816D01*
X175800087Y-122591827D01*
X175964351Y-122643013D01*
X176035735Y-122649500D01*
X176145971Y-122649499D01*
X176214091Y-122669500D01*
X176235066Y-122686404D01*
X176654594Y-123105932D01*
X176688620Y-123168244D01*
X176691499Y-123195027D01*
X176691499Y-123929021D01*
X176707131Y-124007606D01*
X176720802Y-124076334D01*
X176738155Y-124118229D01*
X176738157Y-124118234D01*
X176751057Y-124149375D01*
X176773908Y-124204544D01*
X176783500Y-124252761D01*
X176783500Y-136181893D01*
X176763498Y-136250014D01*
X176746595Y-136270989D01*
X175918112Y-137099471D01*
X175855800Y-137133496D01*
X175784984Y-137128431D01*
X175728149Y-137085884D01*
X175716752Y-137067582D01*
X175659894Y-136955991D01*
X175534206Y-136782996D01*
X175534203Y-136782993D01*
X175534201Y-136782990D01*
X175383009Y-136631798D01*
X175383006Y-136631796D01*
X175383004Y-136631794D01*
X175210009Y-136506106D01*
X175019483Y-136409028D01*
X175019480Y-136409027D01*
X175019478Y-136409026D01*
X174816120Y-136342952D01*
X174816123Y-136342952D01*
X174776801Y-136336724D01*
X174604916Y-136309500D01*
X174391084Y-136309500D01*
X174205878Y-136338834D01*
X174179878Y-136342952D01*
X173976521Y-136409026D01*
X173976515Y-136409029D01*
X173785987Y-136506108D01*
X173612993Y-136631796D01*
X173612990Y-136631798D01*
X173461798Y-136782990D01*
X173461796Y-136782993D01*
X173336108Y-136955987D01*
X173335434Y-136957088D01*
X173335068Y-136957418D01*
X173333196Y-136959996D01*
X173332654Y-136959602D01*
X173282787Y-137004721D01*
X173212745Y-137016328D01*
X173147547Y-136988226D01*
X173122976Y-136959870D01*
X173122804Y-136959996D01*
X173121341Y-136957982D01*
X173120566Y-136957088D01*
X173119896Y-136955996D01*
X173119894Y-136955991D01*
X172994206Y-136782996D01*
X172994203Y-136782993D01*
X172994201Y-136782990D01*
X172843009Y-136631798D01*
X172843006Y-136631796D01*
X172843004Y-136631794D01*
X172670009Y-136506106D01*
X172670007Y-136506105D01*
X172668920Y-136505439D01*
X172668591Y-136505075D01*
X172666004Y-136503196D01*
X172666398Y-136502652D01*
X172621283Y-136452796D01*
X172609670Y-136382756D01*
X172637766Y-136317555D01*
X172666130Y-136292978D01*
X172666004Y-136292804D01*
X172668030Y-136291331D01*
X172668920Y-136290561D01*
X172669997Y-136289899D01*
X172670009Y-136289894D01*
X172843004Y-136164206D01*
X172994206Y-136013004D01*
X173119894Y-135840009D01*
X173216972Y-135649483D01*
X173283049Y-135446116D01*
X173316500Y-135234916D01*
X173316500Y-135021084D01*
X173283049Y-134809884D01*
X173216972Y-134606517D01*
X173119894Y-134415991D01*
X172994206Y-134242996D01*
X172994203Y-134242993D01*
X172994201Y-134242990D01*
X172843009Y-134091798D01*
X172843006Y-134091796D01*
X172843004Y-134091794D01*
X172670009Y-133966106D01*
X172670007Y-133966105D01*
X172668920Y-133965439D01*
X172668591Y-133965075D01*
X172666004Y-133963196D01*
X172666398Y-133962652D01*
X172621283Y-133912796D01*
X172609670Y-133842756D01*
X172637766Y-133777555D01*
X172666130Y-133752978D01*
X172666004Y-133752804D01*
X172668030Y-133751331D01*
X172668920Y-133750561D01*
X172669997Y-133749899D01*
X172670009Y-133749894D01*
X172843004Y-133624206D01*
X172945982Y-133521227D01*
X173008292Y-133487204D01*
X173079108Y-133492268D01*
X173135944Y-133534815D01*
X173153131Y-133566291D01*
X173197110Y-133684203D01*
X173197112Y-133684207D01*
X173284738Y-133801261D01*
X173401792Y-133888887D01*
X173401794Y-133888888D01*
X173401796Y-133888889D01*
X173460875Y-133910924D01*
X173538795Y-133939988D01*
X173538803Y-133939990D01*
X173599350Y-133946499D01*
X173599355Y-133946499D01*
X173599362Y-133946500D01*
X173599368Y-133946500D01*
X175396632Y-133946500D01*
X175396638Y-133946500D01*
X175396645Y-133946499D01*
X175396649Y-133946499D01*
X175457196Y-133939990D01*
X175457199Y-133939989D01*
X175457201Y-133939989D01*
X175594204Y-133888889D01*
X175647192Y-133849223D01*
X175711261Y-133801261D01*
X175798887Y-133684207D01*
X175798887Y-133684206D01*
X175798889Y-133684204D01*
X175849989Y-133547201D01*
X175851141Y-133536492D01*
X175856499Y-133486649D01*
X175856500Y-133486632D01*
X175856500Y-131689367D01*
X175856499Y-131689350D01*
X175849990Y-131628803D01*
X175849988Y-131628795D01*
X175813571Y-131531160D01*
X175798889Y-131491796D01*
X175798888Y-131491794D01*
X175798887Y-131491792D01*
X175711261Y-131374738D01*
X175594207Y-131287112D01*
X175594202Y-131287110D01*
X175457204Y-131236011D01*
X175457196Y-131236009D01*
X175396649Y-131229500D01*
X175396638Y-131229500D01*
X175378745Y-131229500D01*
X175310624Y-131209498D01*
X175264131Y-131155842D01*
X175255166Y-131128083D01*
X175246742Y-131085735D01*
X175231197Y-131007587D01*
X175173718Y-130868821D01*
X175119759Y-130788065D01*
X175090273Y-130743935D01*
X175090272Y-130743934D01*
X175090269Y-130743930D01*
X174056069Y-129709730D01*
X174056065Y-129709727D01*
X173931179Y-129626282D01*
X173792415Y-129568804D01*
X173792414Y-129568803D01*
X173645103Y-129539500D01*
X173645100Y-129539500D01*
X168985100Y-129539500D01*
X167332316Y-129539500D01*
X167264195Y-129519498D01*
X167262314Y-129518265D01*
X167230337Y-129496899D01*
X167230338Y-129496899D01*
X167230336Y-129496898D01*
X167113429Y-129448473D01*
X167065003Y-129428414D01*
X167065001Y-129428413D01*
X167065000Y-129428413D01*
X166976645Y-129410838D01*
X166889481Y-129393500D01*
X166889479Y-129393500D01*
X166710521Y-129393500D01*
X166710518Y-129393500D01*
X166579771Y-129419507D01*
X166535000Y-129428413D01*
X166534999Y-129428413D01*
X166534996Y-129428414D01*
X166369662Y-129496899D01*
X166337686Y-129518265D01*
X166269933Y-129539480D01*
X166267684Y-129539500D01*
X159470028Y-129539500D01*
X159401907Y-129519498D01*
X159380933Y-129502595D01*
X158299405Y-128421067D01*
X158265379Y-128358755D01*
X158262500Y-128331972D01*
X158262500Y-127204500D01*
X158282502Y-127136379D01*
X158336158Y-127089886D01*
X158388500Y-127078500D01*
X158798632Y-127078500D01*
X158798638Y-127078500D01*
X158798645Y-127078499D01*
X158798649Y-127078499D01*
X158859196Y-127071990D01*
X158859199Y-127071989D01*
X158859201Y-127071989D01*
X158859204Y-127071988D01*
X158921467Y-127048765D01*
X158992282Y-127043699D01*
X159054595Y-127077724D01*
X159088620Y-127140036D01*
X159091500Y-127166820D01*
X159091500Y-128518649D01*
X159098009Y-128579196D01*
X159098011Y-128579204D01*
X159149110Y-128716202D01*
X159149112Y-128716207D01*
X159236738Y-128833261D01*
X159353792Y-128920887D01*
X159353794Y-128920888D01*
X159353796Y-128920889D01*
X159412875Y-128942924D01*
X159490795Y-128971988D01*
X159490803Y-128971990D01*
X159551350Y-128978499D01*
X159551355Y-128978499D01*
X159551362Y-128978500D01*
X159551368Y-128978500D01*
X160648632Y-128978500D01*
X160648638Y-128978500D01*
X160648645Y-128978499D01*
X160648649Y-128978499D01*
X160709196Y-128971990D01*
X160709199Y-128971989D01*
X160709201Y-128971989D01*
X160846204Y-128920889D01*
X160963261Y-128833261D01*
X160999132Y-128785342D01*
X161055967Y-128742796D01*
X161126783Y-128737731D01*
X161189095Y-128771756D01*
X161200868Y-128785343D01*
X161236738Y-128833261D01*
X161353792Y-128920887D01*
X161353794Y-128920888D01*
X161353796Y-128920889D01*
X161412875Y-128942924D01*
X161490795Y-128971988D01*
X161490803Y-128971990D01*
X161551350Y-128978499D01*
X161551355Y-128978499D01*
X161551362Y-128978500D01*
X161551368Y-128978500D01*
X162648632Y-128978500D01*
X162648638Y-128978500D01*
X162648645Y-128978499D01*
X162648649Y-128978499D01*
X162709196Y-128971990D01*
X162709199Y-128971989D01*
X162709201Y-128971989D01*
X162846204Y-128920889D01*
X162963261Y-128833261D01*
X162999132Y-128785342D01*
X163055967Y-128742796D01*
X163126783Y-128737731D01*
X163189095Y-128771756D01*
X163200868Y-128785343D01*
X163236738Y-128833261D01*
X163353792Y-128920887D01*
X163353794Y-128920888D01*
X163353796Y-128920889D01*
X163412875Y-128942924D01*
X163490795Y-128971988D01*
X163490803Y-128971990D01*
X163551350Y-128978499D01*
X163551355Y-128978499D01*
X163551362Y-128978500D01*
X163551368Y-128978500D01*
X164648632Y-128978500D01*
X164648638Y-128978500D01*
X164648645Y-128978499D01*
X164648649Y-128978499D01*
X164709196Y-128971990D01*
X164709199Y-128971989D01*
X164709201Y-128971989D01*
X164846204Y-128920889D01*
X164963261Y-128833261D01*
X164999132Y-128785342D01*
X165055967Y-128742796D01*
X165126783Y-128737731D01*
X165189095Y-128771756D01*
X165200868Y-128785343D01*
X165236738Y-128833261D01*
X165353792Y-128920887D01*
X165353794Y-128920888D01*
X165353796Y-128920889D01*
X165412875Y-128942924D01*
X165490795Y-128971988D01*
X165490803Y-128971990D01*
X165551350Y-128978499D01*
X165551355Y-128978499D01*
X165551362Y-128978500D01*
X165551368Y-128978500D01*
X166648632Y-128978500D01*
X166648638Y-128978500D01*
X166648645Y-128978499D01*
X166648649Y-128978499D01*
X166709196Y-128971990D01*
X166709199Y-128971989D01*
X166709201Y-128971989D01*
X166846204Y-128920889D01*
X166963261Y-128833261D01*
X166999132Y-128785342D01*
X167055967Y-128742796D01*
X167126783Y-128737731D01*
X167189095Y-128771756D01*
X167200868Y-128785343D01*
X167236738Y-128833261D01*
X167353792Y-128920887D01*
X167353794Y-128920888D01*
X167353796Y-128920889D01*
X167412875Y-128942924D01*
X167490795Y-128971988D01*
X167490803Y-128971990D01*
X167551350Y-128978499D01*
X167551355Y-128978499D01*
X167551362Y-128978500D01*
X167551368Y-128978500D01*
X168648632Y-128978500D01*
X168648638Y-128978500D01*
X168648645Y-128978499D01*
X168648649Y-128978499D01*
X168709196Y-128971990D01*
X168709199Y-128971989D01*
X168709201Y-128971989D01*
X168846204Y-128920889D01*
X168963261Y-128833261D01*
X168999132Y-128785342D01*
X169055967Y-128742796D01*
X169126783Y-128737731D01*
X169189095Y-128771756D01*
X169200868Y-128785343D01*
X169236738Y-128833261D01*
X169353792Y-128920887D01*
X169353794Y-128920888D01*
X169353796Y-128920889D01*
X169412875Y-128942924D01*
X169490795Y-128971988D01*
X169490803Y-128971990D01*
X169551350Y-128978499D01*
X169551355Y-128978499D01*
X169551362Y-128978500D01*
X169551368Y-128978500D01*
X170648632Y-128978500D01*
X170648638Y-128978500D01*
X170648645Y-128978499D01*
X170648649Y-128978499D01*
X170709196Y-128971990D01*
X170709199Y-128971989D01*
X170709201Y-128971989D01*
X170846204Y-128920889D01*
X170963261Y-128833261D01*
X171006800Y-128775100D01*
X171050887Y-128716207D01*
X171050887Y-128716206D01*
X171050889Y-128716204D01*
X171101989Y-128579201D01*
X171103578Y-128564429D01*
X171108499Y-128518649D01*
X171108500Y-128518632D01*
X171108500Y-126621367D01*
X171108499Y-126621350D01*
X171101990Y-126560803D01*
X171101988Y-126560795D01*
X171050889Y-126423797D01*
X171050887Y-126423792D01*
X170963261Y-126306738D01*
X170846207Y-126219112D01*
X170846202Y-126219110D01*
X170709204Y-126168011D01*
X170709196Y-126168009D01*
X170648649Y-126161500D01*
X170648638Y-126161500D01*
X169551362Y-126161500D01*
X169551350Y-126161500D01*
X169490803Y-126168009D01*
X169490795Y-126168011D01*
X169353797Y-126219110D01*
X169353792Y-126219112D01*
X169236740Y-126306737D01*
X169200868Y-126354657D01*
X169144032Y-126397203D01*
X169073216Y-126402267D01*
X169010904Y-126368242D01*
X168999132Y-126354657D01*
X168963261Y-126306739D01*
X168963259Y-126306738D01*
X168963259Y-126306737D01*
X168846207Y-126219112D01*
X168846202Y-126219110D01*
X168709204Y-126168011D01*
X168709196Y-126168009D01*
X168648649Y-126161500D01*
X168648638Y-126161500D01*
X167551362Y-126161500D01*
X167551350Y-126161500D01*
X167490803Y-126168009D01*
X167490795Y-126168011D01*
X167353797Y-126219110D01*
X167353792Y-126219112D01*
X167236740Y-126306737D01*
X167200868Y-126354657D01*
X167144032Y-126397203D01*
X167073216Y-126402267D01*
X167010904Y-126368242D01*
X166999132Y-126354657D01*
X166963261Y-126306739D01*
X166963259Y-126306738D01*
X166963259Y-126306737D01*
X166846207Y-126219112D01*
X166846202Y-126219110D01*
X166709204Y-126168011D01*
X166709196Y-126168009D01*
X166648649Y-126161500D01*
X166648638Y-126161500D01*
X165551362Y-126161500D01*
X165551350Y-126161500D01*
X165490803Y-126168009D01*
X165490795Y-126168011D01*
X165353797Y-126219110D01*
X165353792Y-126219112D01*
X165236740Y-126306737D01*
X165200868Y-126354657D01*
X165144032Y-126397203D01*
X165073216Y-126402267D01*
X165010904Y-126368242D01*
X164999132Y-126354657D01*
X164963261Y-126306739D01*
X164963259Y-126306738D01*
X164963259Y-126306737D01*
X164846207Y-126219112D01*
X164846202Y-126219110D01*
X164709204Y-126168011D01*
X164709196Y-126168009D01*
X164648649Y-126161500D01*
X164648638Y-126161500D01*
X163551362Y-126161500D01*
X163551350Y-126161500D01*
X163490803Y-126168009D01*
X163490795Y-126168011D01*
X163353797Y-126219110D01*
X163353792Y-126219112D01*
X163236740Y-126306737D01*
X163200868Y-126354657D01*
X163144032Y-126397203D01*
X163073216Y-126402267D01*
X163010904Y-126368242D01*
X162999132Y-126354657D01*
X162963261Y-126306739D01*
X162963259Y-126306738D01*
X162963259Y-126306737D01*
X162846207Y-126219112D01*
X162846202Y-126219110D01*
X162709204Y-126168011D01*
X162709196Y-126168009D01*
X162648649Y-126161500D01*
X162648638Y-126161500D01*
X161551362Y-126161500D01*
X161551350Y-126161500D01*
X161490803Y-126168009D01*
X161490795Y-126168011D01*
X161353797Y-126219110D01*
X161353792Y-126219112D01*
X161236740Y-126306737D01*
X161200868Y-126354657D01*
X161144032Y-126397203D01*
X161073216Y-126402267D01*
X161010904Y-126368242D01*
X160999132Y-126354657D01*
X160963261Y-126306739D01*
X160963259Y-126306738D01*
X160963259Y-126306737D01*
X160846207Y-126219112D01*
X160846202Y-126219110D01*
X160709204Y-126168011D01*
X160709196Y-126168009D01*
X160648649Y-126161500D01*
X160648638Y-126161500D01*
X159551362Y-126161500D01*
X159551350Y-126161500D01*
X159490803Y-126168009D01*
X159490799Y-126168010D01*
X159428532Y-126191235D01*
X159357716Y-126196299D01*
X159295404Y-126162274D01*
X159261379Y-126099961D01*
X159258500Y-126073179D01*
X159258500Y-125521367D01*
X159258499Y-125521350D01*
X159251990Y-125460803D01*
X159251988Y-125460795D01*
X159202393Y-125327829D01*
X159200889Y-125323796D01*
X159200888Y-125323794D01*
X159200887Y-125323792D01*
X159113261Y-125206738D01*
X159065343Y-125170868D01*
X159022796Y-125114033D01*
X159017731Y-125043217D01*
X159051756Y-124980905D01*
X159065343Y-124969132D01*
X159113261Y-124933261D01*
X159200887Y-124816207D01*
X159200887Y-124816206D01*
X159200889Y-124816204D01*
X159208251Y-124796466D01*
X159250798Y-124739631D01*
X159317319Y-124714821D01*
X159326306Y-124714500D01*
X159741684Y-124714500D01*
X159809805Y-124734502D01*
X159811671Y-124735725D01*
X159843664Y-124757102D01*
X160009000Y-124825587D01*
X160184521Y-124860500D01*
X160184522Y-124860500D01*
X160363478Y-124860500D01*
X160363479Y-124860500D01*
X160539000Y-124825587D01*
X160704336Y-124757102D01*
X160853135Y-124657678D01*
X160979678Y-124531135D01*
X161079102Y-124382336D01*
X161147587Y-124217000D01*
X161182500Y-124041479D01*
X161182500Y-123862521D01*
X161147587Y-123687000D01*
X161079102Y-123521664D01*
X160979678Y-123372865D01*
X160853135Y-123246322D01*
X160735564Y-123167764D01*
X160690038Y-123113289D01*
X160681189Y-123042846D01*
X160711830Y-122978801D01*
X160735561Y-122958237D01*
X160853135Y-122879678D01*
X160979678Y-122753135D01*
X161079102Y-122604336D01*
X161147587Y-122439000D01*
X161182500Y-122263479D01*
X161182500Y-122084521D01*
X161147587Y-121909000D01*
X161079102Y-121743664D01*
X160979678Y-121594865D01*
X160853135Y-121468322D01*
X160704336Y-121368898D01*
X160578424Y-121316743D01*
X160539003Y-121300414D01*
X160539001Y-121300413D01*
X160539000Y-121300413D01*
X160450645Y-121282838D01*
X160363481Y-121265500D01*
X160363479Y-121265500D01*
X160184521Y-121265500D01*
X160184518Y-121265500D01*
X160053771Y-121291507D01*
X160009000Y-121300413D01*
X160008999Y-121300413D01*
X160008996Y-121300414D01*
X159843662Y-121368899D01*
X159811686Y-121390265D01*
X159743933Y-121411480D01*
X159741684Y-121411500D01*
X159321084Y-121411500D01*
X159252963Y-121391498D01*
X159206470Y-121337842D01*
X159203029Y-121329533D01*
X159200889Y-121323797D01*
X159200887Y-121323792D01*
X159113261Y-121206738D01*
X159065343Y-121170868D01*
X159022796Y-121114033D01*
X159017731Y-121043217D01*
X159051756Y-120980905D01*
X159065343Y-120969132D01*
X159113261Y-120933261D01*
X159200887Y-120816207D01*
X159200887Y-120816206D01*
X159200889Y-120816204D01*
X159251989Y-120679201D01*
X159252295Y-120676361D01*
X159258499Y-120618649D01*
X159258500Y-120618632D01*
X159258500Y-119521367D01*
X159258499Y-119521350D01*
X159251990Y-119460803D01*
X159251988Y-119460795D01*
X159200889Y-119323797D01*
X159200887Y-119323792D01*
X159113261Y-119206738D01*
X159065343Y-119170868D01*
X159052203Y-119153316D01*
X159035499Y-119139114D01*
X159031350Y-119125459D01*
X159022796Y-119114033D01*
X159021231Y-119092159D01*
X159014858Y-119071184D01*
X159018749Y-119057454D01*
X159017731Y-119043217D01*
X159028239Y-119023972D01*
X159034218Y-119002879D01*
X159047796Y-118988157D01*
X159051756Y-118980905D01*
X159057448Y-118975555D01*
X159061260Y-118972188D01*
X159113261Y-118933261D01*
X159128709Y-118912624D01*
X159138413Y-118904055D01*
X159159311Y-118894272D01*
X159177783Y-118880445D01*
X159195796Y-118877194D01*
X159202714Y-118873957D01*
X159209038Y-118874805D01*
X159221817Y-118872500D01*
X159741684Y-118872500D01*
X159809805Y-118892502D01*
X159811671Y-118893725D01*
X159843664Y-118915102D01*
X160009000Y-118983587D01*
X160184521Y-119018500D01*
X160184522Y-119018500D01*
X160363478Y-119018500D01*
X160363479Y-119018500D01*
X160539000Y-118983587D01*
X160704336Y-118915102D01*
X160853135Y-118815678D01*
X160979678Y-118689135D01*
X161079102Y-118540336D01*
X161147587Y-118375000D01*
X161182500Y-118199479D01*
X161182500Y-118020521D01*
X161147587Y-117845000D01*
X161079102Y-117679664D01*
X160979678Y-117530865D01*
X160853135Y-117404322D01*
X160704336Y-117304898D01*
X160557937Y-117244257D01*
X160539003Y-117236414D01*
X160539001Y-117236413D01*
X160539000Y-117236413D01*
X160450645Y-117218838D01*
X160363481Y-117201500D01*
X160363479Y-117201500D01*
X160184521Y-117201500D01*
X160184518Y-117201500D01*
X160095566Y-117219194D01*
X160009000Y-117236413D01*
X160008999Y-117236413D01*
X160008996Y-117236414D01*
X159843662Y-117304899D01*
X159840078Y-117307294D01*
X159815380Y-117323797D01*
X159811686Y-117326265D01*
X159743933Y-117347480D01*
X159741684Y-117347500D01*
X159281705Y-117347500D01*
X159249679Y-117338096D01*
X159217335Y-117329817D01*
X159215323Y-117328008D01*
X159213584Y-117327498D01*
X159189426Y-117307294D01*
X159184856Y-117302378D01*
X159113261Y-117206739D01*
X159056279Y-117164083D01*
X159048573Y-117155794D01*
X159037560Y-117133756D01*
X159022796Y-117114033D01*
X159021975Y-117102567D01*
X159016838Y-117092285D01*
X159019488Y-117067792D01*
X159017731Y-117043217D01*
X159023240Y-117033127D01*
X159024477Y-117021700D01*
X159039948Y-117002528D01*
X159051756Y-116980905D01*
X159065343Y-116969132D01*
X159113261Y-116933261D01*
X159200887Y-116816207D01*
X159200887Y-116816206D01*
X159200889Y-116816204D01*
X159211608Y-116787466D01*
X159254155Y-116730631D01*
X159320676Y-116705821D01*
X159329663Y-116705500D01*
X166186590Y-116705500D01*
X166186591Y-116705500D01*
X166309369Y-116681078D01*
X166425022Y-116633173D01*
X166529108Y-116563625D01*
X170726405Y-112366328D01*
X170788717Y-112332302D01*
X170859532Y-112337367D01*
G37*
G04 #@! TD.AperFunction*
G04 #@! TA.AperFunction,Conductor*
G36*
X173436512Y-92958824D02*
G01*
X173443095Y-92964953D01*
X173992517Y-93514375D01*
X173995385Y-93517337D01*
X174775507Y-94350265D01*
X174778276Y-94353320D01*
X175269490Y-94913442D01*
X175468204Y-95140032D01*
X175530719Y-95211316D01*
X175533377Y-95214450D01*
X175795214Y-95533499D01*
X176257329Y-96096587D01*
X176259893Y-96099817D01*
X176954611Y-97005192D01*
X176957067Y-97008504D01*
X177621779Y-97936108D01*
X177624125Y-97939498D01*
X178258130Y-98888354D01*
X178260364Y-98891819D01*
X178814294Y-99782612D01*
X178862983Y-99860909D01*
X178865103Y-99864446D01*
X179435692Y-100852735D01*
X179437695Y-100856339D01*
X179852417Y-101632230D01*
X179975647Y-101862776D01*
X179977531Y-101866444D01*
X180482257Y-102889930D01*
X180484020Y-102893657D01*
X180954997Y-103933123D01*
X180956637Y-103936906D01*
X181393350Y-104991223D01*
X181394865Y-104995057D01*
X181796849Y-106063103D01*
X181798238Y-106066986D01*
X182083614Y-106907676D01*
X182086570Y-106978611D01*
X182050707Y-107039883D01*
X181987410Y-107072040D01*
X181950837Y-107073456D01*
X181932641Y-107071500D01*
X181932638Y-107071500D01*
X181100027Y-107071500D01*
X181031906Y-107051498D01*
X181010932Y-107034595D01*
X180493574Y-106517237D01*
X180459548Y-106454925D01*
X180459090Y-106452721D01*
X180451588Y-106415006D01*
X180451587Y-106415002D01*
X180451587Y-106415000D01*
X180383102Y-106249664D01*
X180283678Y-106100865D01*
X180157135Y-105974322D01*
X180008336Y-105874898D01*
X179891429Y-105826473D01*
X179843003Y-105806414D01*
X179843001Y-105806413D01*
X179843000Y-105806413D01*
X179754645Y-105788838D01*
X179667481Y-105771500D01*
X179667479Y-105771500D01*
X179488521Y-105771500D01*
X179488518Y-105771500D01*
X179357771Y-105797507D01*
X179313000Y-105806413D01*
X179312999Y-105806413D01*
X179312996Y-105806414D01*
X179147662Y-105874899D01*
X178998869Y-105974319D01*
X178998862Y-105974324D01*
X178872324Y-106100862D01*
X178872319Y-106100869D01*
X178772899Y-106249662D01*
X178704414Y-106414996D01*
X178704413Y-106414999D01*
X178704413Y-106415000D01*
X178695507Y-106459771D01*
X178669500Y-106590518D01*
X178669500Y-106590521D01*
X178669500Y-106769479D01*
X178704413Y-106945000D01*
X178772898Y-107110336D01*
X178872322Y-107259135D01*
X178933656Y-107320469D01*
X178952455Y-107339268D01*
X178986480Y-107401581D01*
X178982112Y-107462728D01*
X178983823Y-107463133D01*
X178982009Y-107470804D01*
X178975500Y-107531350D01*
X178975500Y-108368649D01*
X178982009Y-108429196D01*
X178982011Y-108429204D01*
X179033110Y-108566202D01*
X179033112Y-108566207D01*
X179120738Y-108683261D01*
X179237792Y-108770887D01*
X179237794Y-108770888D01*
X179237796Y-108770889D01*
X179296875Y-108792924D01*
X179374795Y-108821988D01*
X179374803Y-108821990D01*
X179435350Y-108828499D01*
X179435355Y-108828499D01*
X179435362Y-108828500D01*
X179435368Y-108828500D01*
X181932632Y-108828500D01*
X181932638Y-108828500D01*
X181932645Y-108828499D01*
X181932649Y-108828499D01*
X181993196Y-108821990D01*
X181993199Y-108821989D01*
X181993201Y-108821989D01*
X182130204Y-108770889D01*
X182170400Y-108740799D01*
X182247261Y-108683261D01*
X182334887Y-108566207D01*
X182334888Y-108566205D01*
X182334887Y-108566205D01*
X182334889Y-108566204D01*
X182342171Y-108546678D01*
X182384715Y-108489845D01*
X182451235Y-108465033D01*
X182520610Y-108480123D01*
X182570813Y-108530325D01*
X182581933Y-108558101D01*
X182794073Y-109349814D01*
X182795075Y-109353814D01*
X183054215Y-110465211D01*
X183055085Y-110469241D01*
X183277715Y-111588477D01*
X183278453Y-111592533D01*
X183464347Y-112718474D01*
X183464952Y-112722553D01*
X183613907Y-113853975D01*
X183614378Y-113858071D01*
X183726232Y-114993748D01*
X183726569Y-114997857D01*
X183801205Y-116136577D01*
X183801408Y-116140695D01*
X183838748Y-117281301D01*
X183838815Y-117285424D01*
X183838815Y-118426575D01*
X183838748Y-118430698D01*
X183801408Y-119571304D01*
X183801205Y-119575422D01*
X183726569Y-120714142D01*
X183726232Y-120718251D01*
X183614378Y-121853928D01*
X183613907Y-121858024D01*
X183464952Y-122989446D01*
X183464347Y-122993525D01*
X183278453Y-124119466D01*
X183277715Y-124123522D01*
X183055085Y-125242758D01*
X183054215Y-125246788D01*
X182795075Y-126358185D01*
X182794073Y-126362185D01*
X182498717Y-127464464D01*
X182497585Y-127468429D01*
X182166309Y-128560504D01*
X182165047Y-128564429D01*
X181798238Y-129645013D01*
X181796849Y-129648896D01*
X181394865Y-130716942D01*
X181393350Y-130720776D01*
X180956637Y-131775093D01*
X180954997Y-131778876D01*
X180484020Y-132818342D01*
X180482257Y-132822069D01*
X179977531Y-133845555D01*
X179975647Y-133849223D01*
X179437695Y-134855660D01*
X179435692Y-134859264D01*
X178865103Y-135847553D01*
X178862983Y-135851090D01*
X178541499Y-136368078D01*
X178488541Y-136415363D01*
X178418425Y-136426511D01*
X178353413Y-136397982D01*
X178314145Y-136338834D01*
X178308500Y-136301541D01*
X178308500Y-124473604D01*
X178328502Y-124405483D01*
X178382158Y-124358990D01*
X178409914Y-124350026D01*
X178573000Y-124317587D01*
X178738336Y-124249102D01*
X178887135Y-124149678D01*
X179013678Y-124023135D01*
X179113102Y-123874336D01*
X179181587Y-123709000D01*
X179216500Y-123533479D01*
X179216500Y-123354521D01*
X179181587Y-123179000D01*
X179113102Y-123013664D01*
X179091734Y-122981685D01*
X179070520Y-122913933D01*
X179070500Y-122911684D01*
X179070500Y-121750899D01*
X179070499Y-121750896D01*
X179069221Y-121744472D01*
X179041197Y-121603587D01*
X178983718Y-121464821D01*
X178900272Y-121339935D01*
X178877080Y-121316743D01*
X178845880Y-121265133D01*
X178793829Y-121098091D01*
X178793827Y-121098088D01*
X178793827Y-121098087D01*
X178704816Y-120950845D01*
X178704815Y-120950844D01*
X178704811Y-120950839D01*
X178615405Y-120861433D01*
X178600460Y-120834064D01*
X178583604Y-120807836D01*
X178582698Y-120801537D01*
X178581379Y-120799121D01*
X178578500Y-120772338D01*
X178578500Y-120693662D01*
X178598502Y-120625541D01*
X178615405Y-120604567D01*
X178704811Y-120515160D01*
X178704816Y-120515155D01*
X178793827Y-120367913D01*
X178845013Y-120203649D01*
X178851500Y-120132265D01*
X178851499Y-119467736D01*
X178845013Y-119396351D01*
X178793827Y-119232087D01*
X178704816Y-119084845D01*
X178704815Y-119084844D01*
X178704811Y-119084839D01*
X178583160Y-118963188D01*
X178583155Y-118963184D01*
X178485344Y-118904055D01*
X178435913Y-118874173D01*
X178435912Y-118874172D01*
X178435911Y-118874172D01*
X178435906Y-118874170D01*
X178271646Y-118822986D01*
X178219723Y-118818268D01*
X178200265Y-118816500D01*
X178200262Y-118816500D01*
X177685738Y-118816500D01*
X177617901Y-118822664D01*
X177548250Y-118808908D01*
X177497093Y-118759679D01*
X177480501Y-118697181D01*
X177480501Y-113814422D01*
X177500503Y-113746301D01*
X177517406Y-113725327D01*
X179837328Y-111405405D01*
X179899640Y-111371379D01*
X179926423Y-111368500D01*
X181932632Y-111368500D01*
X181932638Y-111368500D01*
X181932645Y-111368499D01*
X181932649Y-111368499D01*
X181993196Y-111361990D01*
X181993199Y-111361989D01*
X181993201Y-111361989D01*
X182001395Y-111358933D01*
X182012045Y-111354960D01*
X182130204Y-111310889D01*
X182247261Y-111223261D01*
X182284010Y-111174170D01*
X182334887Y-111106207D01*
X182334887Y-111106206D01*
X182334889Y-111106204D01*
X182385989Y-110969201D01*
X182387076Y-110959095D01*
X182392499Y-110908649D01*
X182392500Y-110908632D01*
X182392500Y-110071367D01*
X182392499Y-110071350D01*
X182385990Y-110010803D01*
X182385988Y-110010795D01*
X182334889Y-109873797D01*
X182334887Y-109873792D01*
X182247261Y-109756738D01*
X182130207Y-109669112D01*
X182130202Y-109669110D01*
X181993204Y-109618011D01*
X181993196Y-109618009D01*
X181932649Y-109611500D01*
X181932638Y-109611500D01*
X179435362Y-109611500D01*
X179435350Y-109611500D01*
X179374803Y-109618009D01*
X179374795Y-109618011D01*
X179237797Y-109669110D01*
X179237792Y-109669112D01*
X179120738Y-109756738D01*
X179033112Y-109873792D01*
X179033110Y-109873797D01*
X178982011Y-110010795D01*
X178982009Y-110010803D01*
X178975500Y-110071350D01*
X178975500Y-110417575D01*
X178955498Y-110485696D01*
X178938595Y-110506670D01*
X178707595Y-110737670D01*
X178645283Y-110771696D01*
X178574468Y-110766631D01*
X178517632Y-110724084D01*
X178492821Y-110657564D01*
X178492500Y-110648575D01*
X178492500Y-110071367D01*
X178492499Y-110071350D01*
X178485990Y-110010803D01*
X178485988Y-110010795D01*
X178444302Y-109899033D01*
X178439236Y-109828218D01*
X178444302Y-109810967D01*
X178485988Y-109699204D01*
X178485990Y-109699196D01*
X178492499Y-109638649D01*
X178492500Y-109638632D01*
X178492500Y-108801367D01*
X178492499Y-108801350D01*
X178485990Y-108740803D01*
X178485988Y-108740795D01*
X178444302Y-108629033D01*
X178439236Y-108558218D01*
X178444302Y-108540967D01*
X178485988Y-108429204D01*
X178485990Y-108429196D01*
X178492499Y-108368649D01*
X178492500Y-108368632D01*
X178492500Y-107531367D01*
X178492499Y-107531350D01*
X178485990Y-107470803D01*
X178485988Y-107470795D01*
X178434889Y-107333797D01*
X178434887Y-107333792D01*
X178347261Y-107216738D01*
X178230207Y-107129112D01*
X178230202Y-107129110D01*
X178093204Y-107078011D01*
X178093196Y-107078009D01*
X178032649Y-107071500D01*
X178032638Y-107071500D01*
X175535362Y-107071500D01*
X175535350Y-107071500D01*
X175474803Y-107078009D01*
X175474795Y-107078011D01*
X175337797Y-107129110D01*
X175337792Y-107129112D01*
X175220738Y-107216738D01*
X175143087Y-107320469D01*
X175090439Y-107361368D01*
X175028979Y-107386826D01*
X175028978Y-107386826D01*
X174924896Y-107456372D01*
X174924889Y-107456377D01*
X173750377Y-108630889D01*
X173750372Y-108630896D01*
X173680827Y-108734977D01*
X173632924Y-108850625D01*
X173632922Y-108850630D01*
X173608500Y-108973406D01*
X173608500Y-110174577D01*
X173599716Y-110204492D01*
X173593088Y-110234962D01*
X173589273Y-110240057D01*
X173588498Y-110242698D01*
X173571595Y-110263672D01*
X173509672Y-110325595D01*
X173447360Y-110359621D01*
X173420577Y-110362500D01*
X173354000Y-110362500D01*
X173285879Y-110342498D01*
X173239386Y-110288842D01*
X173228000Y-110236500D01*
X173228000Y-93054048D01*
X173248002Y-92985927D01*
X173301658Y-92939434D01*
X173371932Y-92929330D01*
X173436512Y-92958824D01*
G37*
G04 #@! TD.AperFunction*
G04 #@! TA.AperFunction,Conductor*
G36*
X164860386Y-132701819D02*
G01*
X164910588Y-132752021D01*
X164918050Y-132768362D01*
X164919111Y-132771204D01*
X164919112Y-132771205D01*
X164919113Y-132771208D01*
X165006738Y-132888261D01*
X165123792Y-132975887D01*
X165123794Y-132975888D01*
X165123796Y-132975889D01*
X165174897Y-132994948D01*
X165260800Y-133026990D01*
X165262446Y-133027379D01*
X165263589Y-133028030D01*
X165268184Y-133029744D01*
X165267906Y-133030488D01*
X165324139Y-133062514D01*
X165357043Y-133125425D01*
X165350711Y-133196139D01*
X165307154Y-133252204D01*
X165268102Y-133270037D01*
X165268184Y-133270256D01*
X165265132Y-133271394D01*
X165262446Y-133272621D01*
X165260800Y-133273009D01*
X165123797Y-133324110D01*
X165123792Y-133324112D01*
X165006738Y-133411738D01*
X164919112Y-133528792D01*
X164919110Y-133528797D01*
X164918054Y-133531629D01*
X164916244Y-133534045D01*
X164914795Y-133536701D01*
X164914413Y-133536492D01*
X164875506Y-133588463D01*
X164808985Y-133613272D01*
X164739611Y-133598179D01*
X164689411Y-133547975D01*
X164681946Y-133531629D01*
X164680889Y-133528797D01*
X164680887Y-133528792D01*
X164593261Y-133411738D01*
X164476207Y-133324112D01*
X164476202Y-133324110D01*
X164339202Y-133273011D01*
X164337556Y-133272622D01*
X164336410Y-133271969D01*
X164331816Y-133270256D01*
X164332093Y-133269511D01*
X164275862Y-133237488D01*
X164242956Y-133174578D01*
X164249286Y-133103864D01*
X164292842Y-133047798D01*
X164331897Y-133029962D01*
X164331816Y-133029744D01*
X164334866Y-133028606D01*
X164337556Y-133027378D01*
X164339195Y-133026989D01*
X164339201Y-133026989D01*
X164476204Y-132975889D01*
X164593261Y-132888261D01*
X164680889Y-132771204D01*
X164681945Y-132768370D01*
X164683756Y-132765951D01*
X164685205Y-132763299D01*
X164685586Y-132763507D01*
X164724491Y-132711538D01*
X164791011Y-132686727D01*
X164860386Y-132701819D01*
G37*
G04 #@! TD.AperFunction*
M02*
