M48
; DRILL file KiCad 10.0.3 date 2026-05-25T14:53:56
; FORMAT={-:-/ absolute / metric / decimal}
; #@! TF.CreationDate,2026-05-25T14:53:56+02:00
; #@! TF.GenerationSoftware,Kicad,Pcbnew,10.0.3
; #@! TF.FileFunction,Plated,1,2,PTH
FMAT,2
METRIC
; #@! TA.AperFunction,Plated,PTH,ViaDrill
T1C0.400
; #@! TA.AperFunction,Plated,PTH,ComponentDrill
T2C0.760
; #@! TA.AperFunction,Plated,PTH,ComponentDrill
T3C0.800
; #@! TA.AperFunction,Plated,PTH,ComponentDrill
T4C1.000
; #@! TA.AperFunction,Plated,PTH,ComponentDrill
T5C1.020
; #@! TA.AperFunction,Plated,PTH,ComponentDrill
T6C1.300
%
G90
G05
T1
X152.0Y-117.0
X152.0Y-118.0
X152.0Y-119.0
X152.0Y-120.0
X152.0Y-121.0
X152.0Y-122.0
X152.0Y-123.0
X152.0Y-124.0
X152.0Y-125.0
X152.0Y-126.0
X152.0Y-127.0
X152.0Y-128.0
X152.4Y-137.668
X152.654Y-128.016
X153.0Y-147.0
X153.65Y-114.7
X156.464Y-130.556
X159.4Y-114.2
X160.0Y-120.0
X160.274Y-118.11
X160.274Y-122.174
X160.274Y-123.952
X160.6Y-135.9
X160.7Y-132.588
X161.0Y-113.0
X161.0Y-121.0
X162.0Y-113.0
X162.0Y-125.0
X163.0Y-113.0
X164.0Y-113.0
X164.8Y-133.2
X165.0Y-113.0
X165.2Y-136.1
X166.0Y-113.0
X166.8Y-130.302
X167.8Y-135.2
X169.926Y-124.206
X170.0Y-119.0
X170.0Y-120.0
X170.0Y-121.0
X170.0Y-122.0
X170.5Y-141.6
X170.6Y-116.0
X174.0Y-128.0
X174.0Y-129.0
X175.91Y-128.61
X176.0Y-135.0
X178.054Y-106.426
X178.308Y-123.444
X179.578Y-106.68
X182.118Y-112.014
T2
X132.01Y-93.875
X139.61Y-93.875
T3
X132.01Y-121.875
X147.21Y-121.875
T4
X171.958Y-132.588
X171.958Y-135.128
X171.958Y-137.668
X174.498Y-132.588
X174.498Y-135.128
X174.498Y-137.668
T5
X123.0Y-108.0
X123.0Y-111.0
X123.0Y-114.0
X123.0Y-125.0
X123.0Y-128.0
T6
X129.54Y-132.715
X137.16Y-132.715
X147.32Y-132.715
X147.32Y-140.335
M30
