G04 #@! TF.GenerationSoftware,KiCad,Pcbnew,10.0.3*
G04 #@! TF.CreationDate,2026-05-25T14:53:54+02:00*
G04 #@! TF.ProjectId,loftrelayRound,6c6f6674-7265-46c6-9179-526f756e642e,rev?*
G04 #@! TF.SameCoordinates,Original*
G04 #@! TF.FileFunction,Legend,Bot*
G04 #@! TF.FilePolarity,Positive*
%FSLAX46Y46*%
G04 Gerber Fmt 4.6, Leading zero omitted, Abs format (unit mm)*
G04 Created by KiCad (PCBNEW 10.0.3) date 2026-05-25 14:53:54*
%MOMM*%
%LPD*%
G01*
G04 APERTURE LIST*
%ADD10C,0.150000*%
%ADD11C,0.120000*%
G04 APERTURE END LIST*
D10*
X130166666Y-103734819D02*
X130499999Y-103258628D01*
X130738094Y-103734819D02*
X130738094Y-102734819D01*
X130738094Y-102734819D02*
X130357142Y-102734819D01*
X130357142Y-102734819D02*
X130261904Y-102782438D01*
X130261904Y-102782438D02*
X130214285Y-102830057D01*
X130214285Y-102830057D02*
X130166666Y-102925295D01*
X130166666Y-102925295D02*
X130166666Y-103068152D01*
X130166666Y-103068152D02*
X130214285Y-103163390D01*
X130214285Y-103163390D02*
X130261904Y-103211009D01*
X130261904Y-103211009D02*
X130357142Y-103258628D01*
X130357142Y-103258628D02*
X130738094Y-103258628D01*
X129214285Y-103734819D02*
X129785713Y-103734819D01*
X129499999Y-103734819D02*
X129499999Y-102734819D01*
X129499999Y-102734819D02*
X129595237Y-102877676D01*
X129595237Y-102877676D02*
X129690475Y-102972914D01*
X129690475Y-102972914D02*
X129785713Y-103020533D01*
X147424819Y-105008333D02*
X146948628Y-104675000D01*
X147424819Y-104436905D02*
X146424819Y-104436905D01*
X146424819Y-104436905D02*
X146424819Y-104817857D01*
X146424819Y-104817857D02*
X146472438Y-104913095D01*
X146472438Y-104913095D02*
X146520057Y-104960714D01*
X146520057Y-104960714D02*
X146615295Y-105008333D01*
X146615295Y-105008333D02*
X146758152Y-105008333D01*
X146758152Y-105008333D02*
X146853390Y-104960714D01*
X146853390Y-104960714D02*
X146901009Y-104913095D01*
X146901009Y-104913095D02*
X146948628Y-104817857D01*
X146948628Y-104817857D02*
X146948628Y-104436905D01*
X146520057Y-105389286D02*
X146472438Y-105436905D01*
X146472438Y-105436905D02*
X146424819Y-105532143D01*
X146424819Y-105532143D02*
X146424819Y-105770238D01*
X146424819Y-105770238D02*
X146472438Y-105865476D01*
X146472438Y-105865476D02*
X146520057Y-105913095D01*
X146520057Y-105913095D02*
X146615295Y-105960714D01*
X146615295Y-105960714D02*
X146710533Y-105960714D01*
X146710533Y-105960714D02*
X146853390Y-105913095D01*
X146853390Y-105913095D02*
X147424819Y-105341667D01*
X147424819Y-105341667D02*
X147424819Y-105960714D01*
X136396819Y-101853905D02*
X135396819Y-101853905D01*
X135396819Y-101853905D02*
X135396819Y-102092000D01*
X135396819Y-102092000D02*
X135444438Y-102234857D01*
X135444438Y-102234857D02*
X135539676Y-102330095D01*
X135539676Y-102330095D02*
X135634914Y-102377714D01*
X135634914Y-102377714D02*
X135825390Y-102425333D01*
X135825390Y-102425333D02*
X135968247Y-102425333D01*
X135968247Y-102425333D02*
X136158723Y-102377714D01*
X136158723Y-102377714D02*
X136253961Y-102330095D01*
X136253961Y-102330095D02*
X136349200Y-102234857D01*
X136349200Y-102234857D02*
X136396819Y-102092000D01*
X136396819Y-102092000D02*
X136396819Y-101853905D01*
X135492057Y-102806286D02*
X135444438Y-102853905D01*
X135444438Y-102853905D02*
X135396819Y-102949143D01*
X135396819Y-102949143D02*
X135396819Y-103187238D01*
X135396819Y-103187238D02*
X135444438Y-103282476D01*
X135444438Y-103282476D02*
X135492057Y-103330095D01*
X135492057Y-103330095D02*
X135587295Y-103377714D01*
X135587295Y-103377714D02*
X135682533Y-103377714D01*
X135682533Y-103377714D02*
X135825390Y-103330095D01*
X135825390Y-103330095D02*
X136396819Y-102758667D01*
X136396819Y-102758667D02*
X136396819Y-103377714D01*
X141223904Y-104516819D02*
X141223904Y-105326342D01*
X141223904Y-105326342D02*
X141176285Y-105421580D01*
X141176285Y-105421580D02*
X141128666Y-105469200D01*
X141128666Y-105469200D02*
X141033428Y-105516819D01*
X141033428Y-105516819D02*
X140842952Y-105516819D01*
X140842952Y-105516819D02*
X140747714Y-105469200D01*
X140747714Y-105469200D02*
X140700095Y-105421580D01*
X140700095Y-105421580D02*
X140652476Y-105326342D01*
X140652476Y-105326342D02*
X140652476Y-104516819D01*
X140223904Y-104612057D02*
X140176285Y-104564438D01*
X140176285Y-104564438D02*
X140081047Y-104516819D01*
X140081047Y-104516819D02*
X139842952Y-104516819D01*
X139842952Y-104516819D02*
X139747714Y-104564438D01*
X139747714Y-104564438D02*
X139700095Y-104612057D01*
X139700095Y-104612057D02*
X139652476Y-104707295D01*
X139652476Y-104707295D02*
X139652476Y-104802533D01*
X139652476Y-104802533D02*
X139700095Y-104945390D01*
X139700095Y-104945390D02*
X140271523Y-105516819D01*
X140271523Y-105516819D02*
X139652476Y-105516819D01*
X151789580Y-104958333D02*
X151837200Y-104910714D01*
X151837200Y-104910714D02*
X151884819Y-104767857D01*
X151884819Y-104767857D02*
X151884819Y-104672619D01*
X151884819Y-104672619D02*
X151837200Y-104529762D01*
X151837200Y-104529762D02*
X151741961Y-104434524D01*
X151741961Y-104434524D02*
X151646723Y-104386905D01*
X151646723Y-104386905D02*
X151456247Y-104339286D01*
X151456247Y-104339286D02*
X151313390Y-104339286D01*
X151313390Y-104339286D02*
X151122914Y-104386905D01*
X151122914Y-104386905D02*
X151027676Y-104434524D01*
X151027676Y-104434524D02*
X150932438Y-104529762D01*
X150932438Y-104529762D02*
X150884819Y-104672619D01*
X150884819Y-104672619D02*
X150884819Y-104767857D01*
X150884819Y-104767857D02*
X150932438Y-104910714D01*
X150932438Y-104910714D02*
X150980057Y-104958333D01*
X150884819Y-105863095D02*
X150884819Y-105386905D01*
X150884819Y-105386905D02*
X151361009Y-105339286D01*
X151361009Y-105339286D02*
X151313390Y-105386905D01*
X151313390Y-105386905D02*
X151265771Y-105482143D01*
X151265771Y-105482143D02*
X151265771Y-105720238D01*
X151265771Y-105720238D02*
X151313390Y-105815476D01*
X151313390Y-105815476D02*
X151361009Y-105863095D01*
X151361009Y-105863095D02*
X151456247Y-105910714D01*
X151456247Y-105910714D02*
X151694342Y-105910714D01*
X151694342Y-105910714D02*
X151789580Y-105863095D01*
X151789580Y-105863095D02*
X151837200Y-105815476D01*
X151837200Y-105815476D02*
X151884819Y-105720238D01*
X151884819Y-105720238D02*
X151884819Y-105482143D01*
X151884819Y-105482143D02*
X151837200Y-105386905D01*
X151837200Y-105386905D02*
X151789580Y-105339286D01*
X133733333Y-108601009D02*
X134066666Y-108601009D01*
X134066666Y-109124819D02*
X134066666Y-108124819D01*
X134066666Y-108124819D02*
X133590476Y-108124819D01*
X132685714Y-109124819D02*
X133257142Y-109124819D01*
X132971428Y-109124819D02*
X132971428Y-108124819D01*
X132971428Y-108124819D02*
X133066666Y-108267676D01*
X133066666Y-108267676D02*
X133161904Y-108362914D01*
X133161904Y-108362914D02*
X133257142Y-108410533D01*
X130166666Y-99834819D02*
X130499999Y-99358628D01*
X130738094Y-99834819D02*
X130738094Y-98834819D01*
X130738094Y-98834819D02*
X130357142Y-98834819D01*
X130357142Y-98834819D02*
X130261904Y-98882438D01*
X130261904Y-98882438D02*
X130214285Y-98930057D01*
X130214285Y-98930057D02*
X130166666Y-99025295D01*
X130166666Y-99025295D02*
X130166666Y-99168152D01*
X130166666Y-99168152D02*
X130214285Y-99263390D01*
X130214285Y-99263390D02*
X130261904Y-99311009D01*
X130261904Y-99311009D02*
X130357142Y-99358628D01*
X130357142Y-99358628D02*
X130738094Y-99358628D01*
X129595237Y-99263390D02*
X129690475Y-99215771D01*
X129690475Y-99215771D02*
X129738094Y-99168152D01*
X129738094Y-99168152D02*
X129785713Y-99072914D01*
X129785713Y-99072914D02*
X129785713Y-99025295D01*
X129785713Y-99025295D02*
X129738094Y-98930057D01*
X129738094Y-98930057D02*
X129690475Y-98882438D01*
X129690475Y-98882438D02*
X129595237Y-98834819D01*
X129595237Y-98834819D02*
X129404761Y-98834819D01*
X129404761Y-98834819D02*
X129309523Y-98882438D01*
X129309523Y-98882438D02*
X129261904Y-98930057D01*
X129261904Y-98930057D02*
X129214285Y-99025295D01*
X129214285Y-99025295D02*
X129214285Y-99072914D01*
X129214285Y-99072914D02*
X129261904Y-99168152D01*
X129261904Y-99168152D02*
X129309523Y-99215771D01*
X129309523Y-99215771D02*
X129404761Y-99263390D01*
X129404761Y-99263390D02*
X129595237Y-99263390D01*
X129595237Y-99263390D02*
X129690475Y-99311009D01*
X129690475Y-99311009D02*
X129738094Y-99358628D01*
X129738094Y-99358628D02*
X129785713Y-99453866D01*
X129785713Y-99453866D02*
X129785713Y-99644342D01*
X129785713Y-99644342D02*
X129738094Y-99739580D01*
X129738094Y-99739580D02*
X129690475Y-99787200D01*
X129690475Y-99787200D02*
X129595237Y-99834819D01*
X129595237Y-99834819D02*
X129404761Y-99834819D01*
X129404761Y-99834819D02*
X129309523Y-99787200D01*
X129309523Y-99787200D02*
X129261904Y-99739580D01*
X129261904Y-99739580D02*
X129214285Y-99644342D01*
X129214285Y-99644342D02*
X129214285Y-99453866D01*
X129214285Y-99453866D02*
X129261904Y-99358628D01*
X129261904Y-99358628D02*
X129309523Y-99311009D01*
X129309523Y-99311009D02*
X129404761Y-99263390D01*
X145938094Y-108084819D02*
X145938094Y-107084819D01*
X145938094Y-107084819D02*
X145699999Y-107084819D01*
X145699999Y-107084819D02*
X145557142Y-107132438D01*
X145557142Y-107132438D02*
X145461904Y-107227676D01*
X145461904Y-107227676D02*
X145414285Y-107322914D01*
X145414285Y-107322914D02*
X145366666Y-107513390D01*
X145366666Y-107513390D02*
X145366666Y-107656247D01*
X145366666Y-107656247D02*
X145414285Y-107846723D01*
X145414285Y-107846723D02*
X145461904Y-107941961D01*
X145461904Y-107941961D02*
X145557142Y-108037200D01*
X145557142Y-108037200D02*
X145699999Y-108084819D01*
X145699999Y-108084819D02*
X145938094Y-108084819D01*
X145033332Y-107084819D02*
X144414285Y-107084819D01*
X144414285Y-107084819D02*
X144747618Y-107465771D01*
X144747618Y-107465771D02*
X144604761Y-107465771D01*
X144604761Y-107465771D02*
X144509523Y-107513390D01*
X144509523Y-107513390D02*
X144461904Y-107561009D01*
X144461904Y-107561009D02*
X144414285Y-107656247D01*
X144414285Y-107656247D02*
X144414285Y-107894342D01*
X144414285Y-107894342D02*
X144461904Y-107989580D01*
X144461904Y-107989580D02*
X144509523Y-108037200D01*
X144509523Y-108037200D02*
X144604761Y-108084819D01*
X144604761Y-108084819D02*
X144890475Y-108084819D01*
X144890475Y-108084819D02*
X144985713Y-108037200D01*
X144985713Y-108037200D02*
X145033332Y-107989580D01*
X148167857Y-106824819D02*
X148501190Y-106348628D01*
X148739285Y-106824819D02*
X148739285Y-105824819D01*
X148739285Y-105824819D02*
X148358333Y-105824819D01*
X148358333Y-105824819D02*
X148263095Y-105872438D01*
X148263095Y-105872438D02*
X148215476Y-105920057D01*
X148215476Y-105920057D02*
X148167857Y-106015295D01*
X148167857Y-106015295D02*
X148167857Y-106158152D01*
X148167857Y-106158152D02*
X148215476Y-106253390D01*
X148215476Y-106253390D02*
X148263095Y-106301009D01*
X148263095Y-106301009D02*
X148358333Y-106348628D01*
X148358333Y-106348628D02*
X148739285Y-106348628D01*
X147215476Y-106824819D02*
X147786904Y-106824819D01*
X147501190Y-106824819D02*
X147501190Y-105824819D01*
X147501190Y-105824819D02*
X147596428Y-105967676D01*
X147596428Y-105967676D02*
X147691666Y-106062914D01*
X147691666Y-106062914D02*
X147786904Y-106110533D01*
X146834523Y-105920057D02*
X146786904Y-105872438D01*
X146786904Y-105872438D02*
X146691666Y-105824819D01*
X146691666Y-105824819D02*
X146453571Y-105824819D01*
X146453571Y-105824819D02*
X146358333Y-105872438D01*
X146358333Y-105872438D02*
X146310714Y-105920057D01*
X146310714Y-105920057D02*
X146263095Y-106015295D01*
X146263095Y-106015295D02*
X146263095Y-106110533D01*
X146263095Y-106110533D02*
X146310714Y-106253390D01*
X146310714Y-106253390D02*
X146882142Y-106824819D01*
X146882142Y-106824819D02*
X146263095Y-106824819D01*
X145017857Y-109684819D02*
X145351190Y-109208628D01*
X145589285Y-109684819D02*
X145589285Y-108684819D01*
X145589285Y-108684819D02*
X145208333Y-108684819D01*
X145208333Y-108684819D02*
X145113095Y-108732438D01*
X145113095Y-108732438D02*
X145065476Y-108780057D01*
X145065476Y-108780057D02*
X145017857Y-108875295D01*
X145017857Y-108875295D02*
X145017857Y-109018152D01*
X145017857Y-109018152D02*
X145065476Y-109113390D01*
X145065476Y-109113390D02*
X145113095Y-109161009D01*
X145113095Y-109161009D02*
X145208333Y-109208628D01*
X145208333Y-109208628D02*
X145589285Y-109208628D01*
X144065476Y-109684819D02*
X144636904Y-109684819D01*
X144351190Y-109684819D02*
X144351190Y-108684819D01*
X144351190Y-108684819D02*
X144446428Y-108827676D01*
X144446428Y-108827676D02*
X144541666Y-108922914D01*
X144541666Y-108922914D02*
X144636904Y-108970533D01*
X143113095Y-109684819D02*
X143684523Y-109684819D01*
X143398809Y-109684819D02*
X143398809Y-108684819D01*
X143398809Y-108684819D02*
X143494047Y-108827676D01*
X143494047Y-108827676D02*
X143589285Y-108922914D01*
X143589285Y-108922914D02*
X143684523Y-108970533D01*
D11*
X130602064Y-104190000D02*
X129397936Y-104190000D01*
X130602064Y-106010000D02*
X129397936Y-106010000D01*
X147877500Y-104937742D02*
X147877500Y-105412258D01*
X148922500Y-104937742D02*
X148922500Y-105412258D01*
X132977000Y-104877000D02*
X132977000Y-100992000D01*
X135247000Y-100992000D02*
X135247000Y-104877000D01*
X135247000Y-104877000D02*
X132977000Y-104877000D01*
X138062000Y-100362000D02*
X138062000Y-100662000D01*
X138062000Y-104062000D02*
X136362000Y-104062000D01*
X138062000Y-104062000D02*
X138062000Y-104362000D01*
X138062000Y-104362000D02*
X142862000Y-104362000D01*
X142862000Y-100362000D02*
X138062000Y-100362000D01*
X142862000Y-100662000D02*
X142862000Y-100362000D01*
X142862000Y-104362000D02*
X142862000Y-104062000D01*
X149490000Y-105265580D02*
X149490000Y-104984420D01*
X150510000Y-105265580D02*
X150510000Y-104984420D01*
X129840000Y-109750000D02*
X136960000Y-109750000D01*
X129840000Y-115850000D02*
X136960000Y-115850000D01*
X130602064Y-100290000D02*
X129397936Y-100290000D01*
X130602064Y-102110000D02*
X129397936Y-102110000D01*
X142915000Y-104665000D02*
X146800000Y-104665000D01*
X142915000Y-106935000D02*
X142915000Y-104665000D01*
X146800000Y-106935000D02*
X142915000Y-106935000D01*
X147762258Y-107277500D02*
X147287742Y-107277500D01*
X147762258Y-108322500D02*
X147287742Y-108322500D01*
X144137742Y-107277500D02*
X144612258Y-107277500D01*
X144137742Y-108322500D02*
X144612258Y-108322500D01*
M02*
